<svg xmlns="http://www.w3.org/2000/svg" viewBox="0 0 500 500"><style>.a{fill:#CEE5F2;}.b{fill:#FFF;}</style><title>  Slice</title><desc>  Created with Sketch.</desc><g class="svgSprite" fill="none"><g class="section content-strategy"><path d="M463 2606C463 2599.2 463 2592.4 463 2585.4 463 2570.2 450.9 2558 435.9 2558L217.8 2558 232.8 2606 463 2606ZM131.4 2597.5C139.9 2597.5 146.8 2590.5 146.8 2582 146.8 2573.4 139.9 2566.5 131.4 2566.5 122.9 2566.5 116 2573.4 116 2582 116 2590.5 122.9 2597.5 131.4 2597.5ZM178.9 2597.5C187.4 2597.5 194.3 2590.5 194.3 2582 194.3 2573.4 187.4 2566.5 178.9 2566.5 170.4 2566.5 163.5 2573.4 163.5 2582 163.5 2590.5 170.4 2597.5 178.9 2597.5ZM82.4 2597.5C90.9 2597.5 97.8 2590.5 97.8 2582 97.8 2573.4 90.9 2566.5 82.4 2566.5 73.9 2566.5 67 2573.4 67 2582 67 2590.5 73.9 2597.5 82.4 2597.5ZM463 2619.9L38 2619.9 38 2841.9C38 2857 50.2 2869.2 65.1 2869.2 137.1 2869.2 227.1 2868.9 335.2 2868.4L335.2 2950 427.9 2869.2C458.1 2869.2 463 2869.2 463 2869.2 462.9 2869.3 462.9 2786.2 463 2619.9Z" class="quote" class="a"/><path d="M300.2 2651.5L192.4 2651.5 192.4 2835.9 339.9 2835.9 339.9 2691.8 306.5 2691.8 306.5 2691.9 300.2 2691.9 300.2 2651.5ZM306.5 2653L306.5 2685.5 338.3 2685.5 306.5 2653ZM348.2 2683.6L348.2 2844.4 184 2844.4 184 2643 308.4 2643 348.2 2683.6ZM267.5 2681.8L267.5 2684.2 269.8 2684.2 272.1 2684.2 272.1 2688.8 272.1 2693.5 269.8 2693.5 267.5 2693.5 267.5 2695.8 267.5 2698.1 270 2698.1C274.2 2698.1 279.2 2698.6 281.2 2699.3 284.6 2700.3 285.8 2702.1 286 2706.5 286.2 2710.1 285.3 2713.7 283.2 2718.1 282.4 2719.8 281.7 2721.2 281.7 2721.3 281.7 2721.3 282.7 2721.4 283.9 2721.4L286.1 2721.4 286.1 2726.1 286.1 2730.7 262.8 2730.7 239.6 2730.7 239.6 2726.1 239.6 2721.4 241.7 2721.4C242.9 2721.4 243.9 2721.3 243.9 2721.3 243.9 2721.2 243.4 2720 242.6 2718.5 240.3 2713.4 239.4 2709.7 239.6 2706 239.8 2703.4 240.3 2702.1 241.6 2700.8 243.2 2699.3 245.5 2698.7 252.3 2698.3L258.2 2698 258.2 2695.7 258.2 2693.5 255.8 2693.5 253.5 2693.5 253.5 2688.8 253.5 2684.2 255.8 2684.2 258.2 2684.2 258.2 2681.8 258.2 2679.5 262.8 2679.5 267.5 2679.5 267.5 2681.8ZM276.8 2737.3C276.8 2738.4 276.9 2741.1 277.1 2743.2 278.5 2761.1 282.8 2776.4 288.8 2784.3L290.6 2786.7 290.7 2789 290.8 2791.2 262.8 2791.2 234.8 2791.2 235 2789 235 2786.7 236.9 2784.3C243.2 2775.8 248 2758.2 248.8 2739.8L248.9 2735.4 262.9 2735.4 276.8 2735.4 276.8 2737.3ZM297.3 2796.3C298.5 2796.8 299.7 2798.3 299.9 2799.5 300 2800 300.1 2802.9 300 2806 299.9 2812.1 299.9 2812.3 297.9 2813.8 297.1 2814.4 297 2814.4 262.8 2814.4 228.7 2814.4 228.5 2814.4 227.7 2813.8 225.8 2812.3 225.7 2812.2 225.7 2805.2 225.7 2798.2 225.8 2798.1 227.7 2796.6 228.5 2796 228.7 2796 262.5 2796 290.3 2795.9 296.6 2796 297.3 2796.3Z" class="icon" class="b"/><g class="invert"><path d="M963 2606C963 2599.2 963 2592.4 963 2585.4 963 2570.2 950.9 2558 935.9 2558L717.8 2558 732.8 2606 963 2606ZM631.4 2597.5C639.9 2597.5 646.8 2590.5 646.8 2582 646.8 2573.4 639.9 2566.5 631.4 2566.5 622.9 2566.5 616 2573.4 616 2582 616 2590.5 622.9 2597.5 631.4 2597.5ZM678.9 2597.5C687.4 2597.5 694.3 2590.5 694.3 2582 694.3 2573.4 687.4 2566.5 678.9 2566.5 670.4 2566.5 663.5 2573.4 663.5 2582 663.5 2590.5 670.4 2597.5 678.9 2597.5ZM582.4 2597.5C590.9 2597.5 597.8 2590.5 597.8 2582 597.8 2573.4 590.9 2566.5 582.4 2566.5 573.9 2566.5 567 2573.4 567 2582 567 2590.5 573.9 2597.5 582.4 2597.5ZM538 2619.9L963 2619.9 963 2841.9C963 2857 950.8 2869.2 935.9 2869.2 863.9 2869.2 773.9 2868.9 665.8 2868.4L665.8 2950 573.1 2869.2C542.9 2869.2 538 2869.2 538 2869.2 538.1 2869.3 538.1 2786.2 538 2619.9Z" class="quote" class="a"/><path d="M800.2 2651.5L692.4 2651.5 692.4 2835.9 839.9 2835.9 839.9 2691.8 806.5 2691.8 806.5 2691.9 800.2 2691.9 800.2 2651.5ZM806.5 2653L806.5 2685.5 838.3 2685.5 806.5 2653ZM848.2 2683.6L848.2 2844.4 684 2844.4 684 2643 808.4 2643 848.2 2683.6ZM767.5 2681.8L767.5 2684.2 769.8 2684.2 772.1 2684.2 772.1 2688.8 772.1 2693.5 769.8 2693.5 767.5 2693.5 767.5 2695.8 767.5 2698.1 770 2698.1C774.2 2698.1 779.2 2698.6 781.2 2699.3 784.6 2700.3 785.8 2702.1 786 2706.5 786.2 2710.1 785.3 2713.7 783.2 2718.1 782.4 2719.8 781.7 2721.2 781.7 2721.3 781.7 2721.3 782.7 2721.4 783.9 2721.4L786.1 2721.4 786.1 2726.1 786.1 2730.7 762.8 2730.7 739.6 2730.7 739.6 2726.1 739.6 2721.4 741.7 2721.4C742.9 2721.4 743.9 2721.3 743.9 2721.3 743.9 2721.2 743.4 2720 742.6 2718.5 740.3 2713.4 739.4 2709.7 739.6 2706 739.8 2703.4 740.3 2702.1 741.6 2700.8 743.2 2699.3 745.5 2698.7 752.3 2698.3L758.2 2698 758.2 2695.7 758.2 2693.5 755.8 2693.5 753.5 2693.5 753.5 2688.8 753.5 2684.2 755.8 2684.2 758.2 2684.2 758.2 2681.8 758.2 2679.5 762.8 2679.5 767.5 2679.5 767.5 2681.8ZM776.8 2737.3C776.8 2738.4 776.9 2741.1 777.1 2743.2 778.5 2761.1 782.8 2776.4 788.8 2784.3L790.6 2786.7 790.7 2789 790.8 2791.2 762.8 2791.2 734.8 2791.2 735 2789 735 2786.7 736.9 2784.3C743.2 2775.8 748 2758.2 748.8 2739.8L748.9 2735.4 762.9 2735.4 776.8 2735.4 776.8 2737.3ZM797.3 2796.3C798.5 2796.8 799.7 2798.3 799.9 2799.5 800 2800 800.1 2802.9 800 2806 799.9 2812.1 799.9 2812.3 797.9 2813.8 797.1 2814.4 797 2814.4 762.8 2814.4 728.7 2814.4 728.5 2814.4 727.7 2813.8 725.8 2812.3 725.7 2812.2 725.7 2805.2 725.7 2798.2 725.8 2798.1 727.7 2796.6 728.5 2796 728.7 2796 762.5 2796 790.3 2795.9 796.6 2796 797.3 2796.3Z" class="icon" class="b"/></g></g><g class="section ppc"><path d="M463 2106C463 2099.2 463 2092.4 463 2085.4 463 2070.2 450.9 2058 435.9 2058L217.8 2058 232.8 2106 463 2106ZM131.4 2097.5C139.9 2097.5 146.8 2090.5 146.8 2082 146.8 2073.4 139.9 2066.5 131.4 2066.5 122.9 2066.5 116 2073.4 116 2082 116 2090.5 122.9 2097.5 131.4 2097.5ZM178.9 2097.5C187.4 2097.5 194.3 2090.5 194.3 2082 194.3 2073.4 187.4 2066.5 178.9 2066.5 170.4 2066.5 163.5 2073.4 163.5 2082 163.5 2090.5 170.4 2097.5 178.9 2097.5ZM82.4 2097.5C90.9 2097.5 97.8 2090.5 97.8 2082 97.8 2073.4 90.9 2066.5 82.4 2066.5 73.9 2066.5 67 2073.4 67 2082 67 2090.5 73.9 2097.5 82.4 2097.5ZM463 2119.9L38 2119.9 38 2341.9C38 2357 50.2 2369.2 65.1 2369.2 137.1 2369.2 227.1 2368.9 335.2 2368.4L335.2 2450 427.9 2369.2C458.1 2369.2 463 2369.2 463 2369.2 462.9 2369.3 462.9 2286.2 463 2119.9Z" class="quote" class="a"/><path d="M230.1 2160.3C245.4 2161.9 259.1 2167.5 266.2 2174.9 270.3 2179.2 272 2182.8 272 2187.8 271.9 2200.6 256.5 2211.1 232.6 2214.7 227.3 2215.5 212.6 2215.5 207.3 2214.7 186.9 2211.7 172.5 2203.5 168.8 2192.9 168.2 2191.2 168 2190 168 2187.8 168 2182.8 169.6 2179.2 173.7 2174.9 180.9 2167.3 194.5 2161.9 210.2 2160.3 213.8 2159.9 226.5 2159.9 230.1 2160.3ZM271.7 2198.4C271.9 2198.7 272 2201.7 272 2205.1 272 2210.3 271.9 2211.5 271.3 2213.3 270.4 2216.2 268.5 2219.1 265.5 2222 263 2224.4 262.9 2224.4 260.2 2225 253.6 2226.5 245.1 2229.8 239.3 2233.3 236.8 2234.9 236.5 2235 232.5 2235.5 226.7 2236.3 212.7 2236.3 207.3 2235.5 187 2232.5 172.5 2224.3 168.8 2213.7 168.1 2211.6 168 2211 168 2205.1 168 2201.6 168.1 2198.6 168.3 2198.3 168.5 2198.1 168.8 2198.5 169.3 2199.8 173.2 2210.8 190 2219.6 210.5 2221.7 214.8 2222.1 225.1 2222.1 229.4 2221.7 245.2 2220.1 258.7 2214.6 266 2206.9 268.5 2204.3 269.8 2202.1 271.2 2198.6 271.5 2197.9 271.5 2197.9 271.7 2198.4ZM169.3 2220.6C172 2228 180.9 2234.8 193 2238.8 202.2 2241.8 210.3 2242.9 221.8 2242.7 225.6 2242.7 228.8 2242.7 228.8 2242.7 228.8 2242.8 228.3 2243.4 227.8 2244.2 225.7 2247.3 224.2 2251.4 223.7 2255.3L223.5 2257.2 217.1 2257C213.6 2256.9 209.1 2256.6 207.1 2256.3 187.2 2253.4 172.5 2245.1 168.8 2234.5 168.1 2232.4 168 2231.8 168 2225.9 168 2222.4 168.1 2219.4 168.3 2219.1 168.5 2218.8 168.8 2219.3 169.3 2220.6ZM290 2229.3C300 2230.2 310.8 2233 318 2236.6 328.7 2242 334.3 2249 334.3 2256.8 334.3 2261.8 332.7 2265.4 328.6 2269.7 321.4 2277.3 307.8 2282.7 292.1 2284.3 288.1 2284.8 276.6 2284.8 272.6 2284.3 256.9 2282.7 243.3 2277.3 236.1 2269.7 232 2265.4 230.4 2261.8 230.4 2256.8 230.4 2244.1 246 2233.4 269.5 2229.9 273 2229.4 286.3 2229 290 2229.3ZM169.3 2241.4C172 2248.8 180.9 2255.6 193 2259.6 201.3 2262.3 209.4 2263.5 218.7 2263.5L223.5 2263.5 223.5 2270.8 223.5 2278 217.1 2277.7C213.6 2277.7 209.1 2277.3 207.1 2277.1 187.2 2274.2 172.5 2265.9 168.8 2255.3 168.1 2253.2 168 2252.6 168 2246.7 168 2243.2 168.1 2240.2 168.3 2239.9 168.5 2239.6 168.8 2240.1 169.3 2241.4ZM169.3 2262.2C172 2269.6 180.9 2276.4 193 2280.4 201.3 2283.1 209.4 2284.3 218.7 2284.3L223.5 2284.3 223.5 2291.5 223.5 2298.8 217.1 2298.5C213.6 2298.4 209.1 2298.1 207.1 2297.9 187.2 2295 172.5 2286.7 168.8 2276.1 168.1 2273.9 168 2273.4 168 2267.4 168 2264 168.1 2260.9 168.3 2260.7 168.5 2260.4 168.8 2260.9 169.3 2262.2ZM334.1 2267.7C334.2 2267.9 334.3 2270.9 334.3 2274.3 334.3 2279.5 334.2 2280.7 333.7 2282.5 332.7 2285.5 331.4 2287.6 328.6 2290.5 321.4 2298.1 307.8 2303.5 292.1 2305.1 288.1 2305.6 276.6 2305.6 272.6 2305.1 256.9 2303.5 243.3 2298.1 236.1 2290.5 233.3 2287.6 231.9 2285.5 231 2282.5 230.5 2280.7 230.4 2279.5 230.4 2274.2 230.4 2270.8 230.5 2267.8 230.6 2267.5 230.8 2267.2 231.1 2267.7 231.6 2269 235.5 2279.6 250.4 2287.9 270.7 2290.7 276.3 2291.5 288.4 2291.5 294 2290.7 314.3 2287.9 329.2 2279.6 333.1 2269 333.5 2268 333.8 2267.1 333.9 2267.1 333.9 2267.1 334 2267.4 334.1 2267.7ZM334.1 2288.5C334.2 2288.7 334.3 2291.7 334.3 2295.1 334.3 2300.3 334.2 2301.5 333.7 2303.2 332.7 2306.2 331.4 2308.4 328.6 2311.3 321.4 2318.9 307.8 2324.3 292.1 2325.9 288.1 2326.4 276.6 2326.4 272.6 2325.9 256.9 2324.3 243.3 2318.9 236.1 2311.3 233.3 2308.4 231.9 2306.2 231 2303.2 230.5 2301.5 230.4 2300.3 230.4 2295 230.4 2291.5 230.5 2288.5 230.6 2288.3 230.8 2288 231.1 2288.5 231.6 2289.8 235.5 2300.4 250.4 2308.7 270.7 2311.5 276.3 2312.3 288.4 2312.3 294 2311.5 314.3 2308.7 329.2 2300.4 333.1 2289.8 333.5 2288.8 333.8 2287.9 333.9 2287.9 333.9 2287.9 334 2288.1 334.1 2288.5Z" class="icon" class="b"/><g class="invert"><path d="M963 2106C963 2099.2 963 2092.4 963 2085.4 963 2070.2 950.9 2058 935.9 2058L717.8 2058 732.8 2106 963 2106ZM631.4 2097.5C639.9 2097.5 646.8 2090.5 646.8 2082 646.8 2073.4 639.9 2066.5 631.4 2066.5 622.9 2066.5 616 2073.4 616 2082 616 2090.5 622.9 2097.5 631.4 2097.5ZM678.9 2097.5C687.4 2097.5 694.3 2090.5 694.3 2082 694.3 2073.4 687.4 2066.5 678.9 2066.5 670.4 2066.5 663.5 2073.4 663.5 2082 663.5 2090.5 670.4 2097.5 678.9 2097.5ZM582.4 2097.5C590.9 2097.5 597.8 2090.5 597.8 2082 597.8 2073.4 590.9 2066.5 582.4 2066.5 573.9 2066.5 567 2073.4 567 2082 567 2090.5 573.9 2097.5 582.4 2097.5ZM538 2119.9L963 2119.9 963 2341.9C963 2357 950.8 2369.2 935.9 2369.2 863.9 2369.2 773.9 2368.9 665.8 2368.4L665.8 2450 573.1 2369.2C542.9 2369.2 538 2369.2 538 2369.2 538.1 2369.3 538.1 2286.2 538 2119.9Z" class="quote" class="a"/><path d="M771.7 2198.4C771.9 2198.7 772 2201.7 772 2205.1 772 2210.3 771.9 2211.5 771.3 2213.3 770.4 2216.2 768.5 2219.1 765.5 2222 763 2224.4 762.9 2224.4 760.2 2225 753.6 2226.5 745.1 2229.8 739.3 2233.3 736.8 2234.9 736.5 2235 732.5 2235.5 726.7 2236.3 712.7 2236.3 707.3 2235.5 687 2232.5 672.5 2224.3 668.8 2213.7 668.1 2211.6 668 2211 668 2205.1 668 2201.6 668.1 2198.6 668.3 2198.3 668.5 2198.1 668.8 2198.5 669.3 2199.8 673.2 2210.8 690 2219.6 710.5 2221.7 714.8 2222.1 725.1 2222.1 729.4 2221.7 745.2 2220.1 758.7 2214.6 766 2206.9 768.5 2204.3 769.8 2202.1 771.2 2198.6 771.5 2197.9 771.5 2197.9 771.7 2198.4ZM669.3 2220.6C672 2228 680.9 2234.8 693 2238.8 702.2 2241.8 710.3 2242.9 721.8 2242.7 725.6 2242.7 728.8 2242.7 728.8 2242.7 728.8 2242.8 728.3 2243.4 727.8 2244.2 725.7 2247.3 724.2 2251.4 723.7 2255.3L723.5 2257.2 717.1 2257C713.6 2256.9 709.1 2256.6 707.1 2256.3 687.2 2253.4 672.5 2245.1 668.8 2234.5 668.1 2232.4 668 2231.8 668 2225.9 668 2222.4 668.1 2219.4 668.3 2219.1 668.5 2218.8 668.8 2219.3 669.3 2220.6ZM790 2229.3C800 2230.2 810.8 2233 818 2236.6 828.7 2242 834.3 2249 834.3 2256.8 834.3 2261.8 832.7 2265.4 828.6 2269.7 821.4 2277.3 807.8 2282.7 792.1 2284.3 788.1 2284.8 776.6 2284.8 772.6 2284.3 756.9 2282.7 743.3 2277.3 736.1 2269.7 732 2265.4 730.4 2261.8 730.4 2256.8 730.4 2244.1 746 2233.4 769.5 2229.9 773 2229.4 786.3 2229 790 2229.3ZM669.3 2241.4C672 2248.8 680.9 2255.6 693 2259.6 701.3 2262.3 709.4 2263.5 718.7 2263.5L723.5 2263.5 723.5 2270.8 723.5 2278 717.1 2277.7C713.6 2277.7 709.1 2277.3 707.1 2277.1 687.2 2274.2 672.5 2265.9 668.8 2255.3 668.1 2253.2 668 2252.6 668 2246.7 668 2243.2 668.1 2240.2 668.3 2239.9 668.5 2239.6 668.8 2240.1 669.3 2241.4ZM669.3 2262.2C672 2269.6 680.9 2276.4 693 2280.4 701.3 2283.1 709.4 2284.3 718.7 2284.3L723.5 2284.3 723.5 2291.5 723.5 2298.8 717.1 2298.5C713.6 2298.4 709.1 2298.1 707.1 2297.9 687.2 2295 672.5 2286.7 668.8 2276.1 668.1 2273.9 668 2273.4 668 2267.4 668 2264 668.1 2260.9 668.3 2260.7 668.5 2260.4 668.8 2260.9 669.3 2262.2ZM834.1 2267.7C834.2 2267.9 834.3 2270.9 834.3 2274.3 834.3 2279.5 834.2 2280.7 833.7 2282.5 832.7 2285.5 831.4 2287.6 828.6 2290.5 821.4 2298.1 807.8 2303.5 792.1 2305.1 788.1 2305.6 776.6 2305.6 772.6 2305.1 756.9 2303.5 743.3 2298.1 736.1 2290.5 733.3 2287.6 731.9 2285.5 731 2282.5 730.5 2280.7 730.4 2279.5 730.4 2274.2 730.4 2270.8 730.5 2267.8 730.6 2267.5 730.8 2267.2 731.1 2267.7 731.6 2269 735.5 2279.6 750.4 2287.9 770.7 2290.7 776.3 2291.5 788.4 2291.5 794 2290.7 814.3 2287.9 829.2 2279.6 833.1 2269 833.5 2268 833.8 2267.1 833.9 2267.1 833.9 2267.1 834 2267.4 834.1 2267.7ZM834.1 2288.5C834.2 2288.7 834.3 2291.7 834.3 2295.1 834.3 2300.3 834.2 2301.5 833.7 2303.2 832.7 2306.2 831.4 2308.4 828.6 2311.3 821.4 2318.9 807.8 2324.3 792.1 2325.9 788.1 2326.4 776.6 2326.4 772.6 2325.9 756.9 2324.3 743.3 2318.9 736.1 2311.3 733.3 2308.4 731.9 2306.2 731 2303.2 730.5 2301.5 730.4 2300.3 730.4 2295 730.4 2291.5 730.5 2288.5 730.6 2288.3 730.8 2288 731.1 2288.5 731.6 2289.8 735.5 2300.4 750.4 2308.7 770.7 2311.5 776.3 2312.3 788.4 2312.3 794 2311.5 814.3 2308.7 829.2 2300.4 833.1 2289.8 833.5 2288.8 833.8 2287.9 833.9 2287.9 833.9 2287.9 834 2288.1 834.1 2288.5ZM730.1 2160.3C745.4 2161.9 759.1 2167.5 766.2 2174.9 770.3 2179.2 772 2182.8 772 2187.8 771.9 2200.6 756.5 2211.1 732.6 2214.7 727.3 2215.5 712.6 2215.5 707.3 2214.7 686.9 2211.7 672.5 2203.5 668.8 2192.9 668.2 2191.2 668 2190 668 2187.8 668 2182.8 669.6 2179.2 673.7 2174.9 680.9 2167.3 694.5 2161.9 710.2 2160.3 713.8 2159.9 726.5 2159.9 730.1 2160.3Z" class="icon" class="b"/></g></g><g class="section analytics"><path d="M463 1606C463 1599.2 463 1592.4 463 1585.4 463 1570.2 450.9 1558 435.9 1558L217.8 1558 232.8 1606 463 1606ZM131.4 1597.5C139.9 1597.5 146.8 1590.5 146.8 1582 146.8 1573.4 139.9 1566.5 131.4 1566.5 122.9 1566.5 116 1573.4 116 1582 116 1590.5 122.9 1597.5 131.4 1597.5ZM178.9 1597.5C187.4 1597.5 194.3 1590.5 194.3 1582 194.3 1573.4 187.4 1566.5 178.9 1566.5 170.4 1566.5 163.5 1573.4 163.5 1582 163.5 1590.5 170.4 1597.5 178.9 1597.5ZM82.4 1597.5C73.9 1597.5 67 1590.5 67 1582 67 1573.4 73.9 1566.5 82.4 1566.5 90.9 1566.5 97.8 1573.4 97.8 1582 97.8 1590.5 90.9 1597.5 82.4 1597.5ZM463 1619.9C462.9 1786.2 462.9 1869.3 463 1869.2 463 1869.2 458.1 1869.2 427.9 1869.2L335.2 1950 335.2 1868.4C227.1 1868.9 137.1 1869.2 65.1 1869.2 50.2 1869.2 38 1857 38 1841.9L38 1619.9 463 1619.9Z" class="quote" class="a"/><path d="M198.8 1671.3L237.2 1743.2 237.2 1743.3 237.3 1743.3 239.1 1746.8 240.3 1746.2 240.3 1746.7 326.6 1746.7C323.7 1788.6 289.6 1822.3 246.8 1823.8 201 1825.4 162.6 1789.6 161.1 1743.8 160 1713.6 175.2 1686.7 198.8 1671.3L198.8 1671.3ZM204.8 1667.8C215.6 1662 227.9 1658.5 241 1658.1 253.8 1657.6 266.1 1660.1 277.1 1664.9L241.1 1735.6 204.8 1667.8 204.8 1667.8ZM283.4 1668C308.4 1681.6 325.7 1707.6 326.8 1738 326.8 1738.6 326.8 1739.2 326.8 1739.7L246.9 1739.7 283.4 1668 283.4 1668Z" class="icon" class="b"/><g class="invert"><path d="M963 1606C963 1599.2 963 1592.4 963 1585.4 963 1570.2 950.9 1558 935.9 1558L717.8 1558 732.8 1606 963 1606ZM631.4 1597.5C639.9 1597.5 646.8 1590.5 646.8 1582 646.8 1573.4 639.9 1566.5 631.4 1566.5 622.9 1566.5 616 1573.4 616 1582 616 1590.5 622.9 1597.5 631.4 1597.5ZM678.9 1597.5C687.4 1597.5 694.3 1590.5 694.3 1582 694.3 1573.4 687.4 1566.5 678.9 1566.5 670.4 1566.5 663.5 1573.4 663.5 1582 663.5 1590.5 670.4 1597.5 678.9 1597.5ZM582.4 1597.5C590.9 1597.5 597.8 1590.5 597.8 1582 597.8 1573.4 590.9 1566.5 582.4 1566.5 573.9 1566.5 567 1573.4 567 1582 567 1590.5 573.9 1597.5 582.4 1597.5ZM538 1619.9L963 1619.9 963 1841.9C963 1857 950.8 1869.2 935.9 1869.2 863.9 1869.2 773.9 1868.9 665.8 1868.4L665.8 1950 573.1 1869.2C542.9 1869.2 538 1869.2 538 1869.2 538.1 1869.3 538.1 1786.2 538 1619.9Z" class="quote" class="a"/><path d="M698.8 1671.3L737.2 1743.2 737.2 1743.3 737.3 1743.3 739.1 1746.8 740.3 1746.2 740.3 1746.7 826.6 1746.7C823.7 1788.6 789.6 1822.3 746.8 1823.8 701 1825.4 662.6 1789.6 661.1 1743.8 660 1713.6 675.2 1686.7 698.8 1671.3L698.8 1671.3ZM704.8 1667.8C715.6 1662 727.9 1658.5 741 1658.1 753.8 1657.6 766.1 1660.1 777.1 1664.9L741.1 1735.6 704.8 1667.8 704.8 1667.8ZM783.4 1668C808.4 1681.6 825.7 1707.6 826.8 1738 826.8 1738.6 826.8 1739.2 826.8 1739.7L746.9 1739.7 783.4 1668 783.4 1668Z" class="icon" class="b"/></g></g><g class="section seo"><path d="M463 1106C463 1099.2 463 1092.4 463 1085.4 463 1070.2 450.9 1058 435.9 1058L217.8 1058 232.8 1106 463 1106ZM131.4 1097.5C139.9 1097.5 146.8 1090.5 146.8 1082 146.8 1073.4 139.9 1066.5 131.4 1066.5 122.9 1066.5 116 1073.4 116 1082 116 1090.5 122.9 1097.5 131.4 1097.5ZM178.9 1097.5C187.4 1097.5 194.3 1090.5 194.3 1082 194.3 1073.4 187.4 1066.5 178.9 1066.5 170.4 1066.5 163.5 1073.4 163.5 1082 163.5 1090.5 170.4 1097.5 178.9 1097.5ZM82.4 1097.5C90.9 1097.5 97.8 1090.5 97.8 1082 97.8 1073.4 90.9 1066.5 82.4 1066.5 73.9 1066.5 67 1073.4 67 1082 67 1090.5 73.9 1097.5 82.4 1097.5ZM463 1119.9L38 1119.9 38 1341.9C38 1357 50.2 1369.2 65.1 1369.2 137.1 1369.2 227.1 1368.9 335.2 1368.4L335.2 1450 427.9 1369.2C458.1 1369.2 463 1369.2 463 1369.2 462.9 1369.3 462.9 1286.2 463 1119.9Z" class="quote" class="a"/><path d="M278.6 1246.9L336.6 1304.9 316.7 1324.8 257.6 1265.8C248.4 1270.8 237.8 1273.7 226.5 1273.7 192 1273.7 164 1246.9 164 1213.8 164 1180.8 192 1154 226.5 1154 261 1154 289 1180.8 289 1213.8 289 1226.1 285.1 1237.4 278.6 1246.9L278.6 1246.9ZM226.5 1255.3C250.4 1255.3 269.7 1236.7 269.7 1213.8 269.7 1191 250.4 1172.4 226.5 1172.4 202.6 1172.4 183.2 1191 183.2 1213.8 183.2 1236.7 202.6 1255.3 226.5 1255.3ZM218 1222L218 1222 199.4 1222C195.6 1222 192.5 1218.9 192.5 1215.1L192.5 1212.9C192.5 1209.1 195.6 1206 199.4 1206L218 1206 218 1187.4C218 1183.6 221.1 1180.5 224.9 1180.5L227.1 1180.5C230.9 1180.5 234 1183.6 234 1187.4L234 1206 252.6 1206C256.4 1206 259.5 1209.1 259.5 1212.9L259.5 1215.1C259.5 1218.9 256.4 1222 252.6 1222L234 1222 234 1240.6C234 1244.4 230.9 1247.5 227.1 1247.5L224.9 1247.5C221.1 1247.5 218 1244.4 218 1240.6L218 1222Z" class="icon" class="b"/><g class="invert"><path d="M963 1106C963 1099.2 963 1092.4 963 1085.4 963 1070.2 950.9 1058 935.9 1058L717.8 1058 732.8 1106 963 1106ZM631.4 1097.5C639.9 1097.5 646.8 1090.5 646.8 1082 646.8 1073.4 639.9 1066.5 631.4 1066.5 622.9 1066.5 616 1073.4 616 1082 616 1090.5 622.9 1097.5 631.4 1097.5ZM678.9 1097.5C687.4 1097.5 694.3 1090.5 694.3 1082 694.3 1073.4 687.4 1066.5 678.9 1066.5 670.4 1066.5 663.5 1073.4 663.5 1082 663.5 1090.5 670.4 1097.5 678.9 1097.5ZM582.4 1097.5C590.9 1097.5 597.8 1090.5 597.8 1082 597.8 1073.4 590.9 1066.5 582.4 1066.5 573.9 1066.5 567 1073.4 567 1082 567 1090.5 573.9 1097.5 582.4 1097.5ZM538 1119.9L963 1119.9 963 1341.9C963 1357 950.8 1369.2 935.9 1369.2 863.9 1369.2 773.9 1368.9 665.8 1368.4L665.8 1450 573.1 1369.2C542.9 1369.2 538 1369.2 538 1369.2 538.1 1369.3 538.1 1286.2 538 1119.9Z" class="Combined-Shape" class="a"/><path d="M778.6 1246.9L836.6 1304.9 816.7 1324.8 757.6 1265.8C748.4 1270.8 737.8 1273.7 726.5 1273.7 692 1273.7 664 1246.9 664 1213.8 664 1180.8 692 1154 726.5 1154 761 1154 789 1180.8 789 1213.8 789 1226.1 785.1 1237.4 778.6 1246.9L778.6 1246.9ZM726.5 1255.3C750.4 1255.3 769.7 1236.7 769.7 1213.8 769.7 1191 750.4 1172.4 726.5 1172.4 702.6 1172.4 683.2 1191 683.2 1213.8 683.2 1236.7 702.6 1255.3 726.5 1255.3ZM718 1222L718 1222 699.4 1222C695.6 1222 692.5 1218.9 692.5 1215.1L692.5 1212.9C692.5 1209.1 695.6 1206 699.4 1206L718 1206 718 1187.4C718 1183.6 721.1 1180.5 724.9 1180.5L727.1 1180.5C730.9 1180.5 734 1183.6 734 1187.4L734 1206 752.6 1206C756.4 1206 759.5 1209.1 759.5 1212.9L759.5 1215.1C759.5 1218.9 756.4 1222 752.6 1222L734 1222 734 1240.6C734 1244.4 730.9 1247.5 727.1 1247.5L724.9 1247.5C721.1 1247.5 718 1244.4 718 1240.6L718 1222Z" class="icon" class="b"/></g></g><g class="section usability"><path d="M463 606C463 599.2 463 592.4 463 585.4 463 570.2 450.9 558 435.9 558L217.8 558 232.8 606 463 606ZM131.4 597.5C139.9 597.5 146.8 590.5 146.8 582 146.8 573.4 139.9 566.5 131.4 566.5 122.9 566.5 116 573.4 116 582 116 590.5 122.9 597.5 131.4 597.5ZM178.9 597.5C187.4 597.5 194.3 590.5 194.3 582 194.3 573.4 187.4 566.5 178.9 566.5 170.4 566.5 163.5 573.4 163.5 582 163.5 590.5 170.4 597.5 178.9 597.5ZM82.4 597.5C90.9 597.5 97.8 590.5 97.8 582 97.8 573.4 90.9 566.5 82.4 566.5 73.9 566.5 67 573.4 67 582 67 590.5 73.9 597.5 82.4 597.5ZM463 619.9L38 619.9 38 841.9C38 857 50.2 869.2 65.1 869.2 137.1 869.2 227.1 868.9 335.2 868.4L335.2 950 427.9 869.2C458.1 869.2 463 869.2 463 869.2 462.9 869.3 462.9 786.2 463 619.9Z" class="quote" class="a"/><path d="M373.1 743.3L360.9 731.1C357.8 728 352.7 728 349.5 731.1L347.6 733C344.5 736.2 344.5 741.3 347.6 744.4L367.2 764C368.7 765.4 370.5 766.2 372.4 766.4 374.7 766.6 377.1 765.8 378.9 764L418.9 724.1C422 720.9 422 715.8 418.9 712.7L417 710.8C413.9 707.7 408.8 707.7 405.6 710.8L373.1 743.3ZM106.8 734.1L91.5 749.4C88.3 752.6 88.3 757.7 91.5 760.8L93.3 762.7C96.5 765.8 101.6 765.8 104.8 762.7L120 747.4 135.3 762.7C138.5 765.8 143.6 765.8 146.7 762.7L148.6 760.8C151.8 757.7 151.8 752.6 148.6 749.4L133.3 734.1 148.6 718.8C151.8 715.7 151.8 710.6 148.6 707.4L146.7 705.6C143.6 702.4 138.5 702.4 135.3 705.6L120 720.8 104.8 705.6C101.6 702.4 96.5 702.4 93.3 705.6L91.5 707.4C88.3 710.6 88.3 715.7 91.5 718.8L106.8 734.1ZM119.9 785.9C91.2 785.9 68 762.7 68 734 68 705.3 91.2 682 119.9 682 148.6 682 171.8 705.3 171.8 734 171.8 762.7 148.6 785.9 119.9 785.9ZM250 784.9C221.4 784.9 198.2 761.6 198.2 732.9 198.2 704.3 221.4 681 250 681 278.7 681 301.9 704.3 301.9 732.9 301.9 761.6 278.7 784.9 250 784.9ZM248.3 694.7C243.9 694.7 240.3 698.3 240.3 702.8L240.3 735.3C240.3 739.8 243.9 743.4 248.3 743.4L250.8 743.4C255.2 743.4 258.9 739.8 258.9 735.3L258.9 702.8C258.9 698.3 255.2 694.7 250.8 694.7L248.3 694.7ZM248.3 752.5C243.9 752.5 240.3 756.2 240.3 760.6L240.3 762.9C240.3 767.4 243.9 771 248.3 771L250.8 771C255.2 771 258.9 767.4 258.9 762.9L258.9 760.6C258.9 756.2 255.2 752.5 250.8 752.5L248.3 752.5ZM379.2 784.9C350.6 784.9 327.4 761.6 327.4 732.9 327.4 704.3 350.6 681 379.2 681 407.9 681 431.1 704.3 431.1 732.9 431.1 761.6 407.9 784.9 379.2 784.9Z" class="icon" class="b"/><g class="invert"><path d="M963 606C963 599.2 963 592.4 963 585.4 963 570.2 950.9 558 935.9 558L717.8 558 732.8 606 963 606ZM631.4 597.5C639.9 597.5 646.8 590.5 646.8 582 646.8 573.4 639.9 566.5 631.4 566.5 622.9 566.5 616 573.4 616 582 616 590.5 622.9 597.5 631.4 597.5ZM678.9 597.5C687.4 597.5 694.3 590.5 694.3 582 694.3 573.4 687.4 566.5 678.9 566.5 670.4 566.5 663.5 573.4 663.5 582 663.5 590.5 670.4 597.5 678.9 597.5ZM582.4 597.5C590.9 597.5 597.8 590.5 597.8 582 597.8 573.4 590.9 566.5 582.4 566.5 573.9 566.5 567 573.4 567 582 567 590.5 573.9 597.5 582.4 597.5ZM538 619.9L963 619.9 963 841.9C963 857 950.8 869.2 935.9 869.2 863.9 869.2 773.9 868.9 665.8 868.4L665.8 950 573.1 869.2C542.9 869.2 538 869.2 538 869.2 538.1 869.3 538.1 786.2 538 619.9Z" class="quote" class="a"/><path d="M873.1 743.3L860.9 731.1C857.8 728 852.7 728 849.5 731.1L847.6 733C844.5 736.2 844.5 741.3 847.6 744.4L867.2 764C868.7 765.4 870.5 766.2 872.4 766.4 874.7 766.6 877.1 765.8 878.9 764L918.9 724.1C922 720.9 922 715.8 918.9 712.7L917 710.8C913.9 707.7 908.8 707.7 905.6 710.8L873.1 743.3ZM606.8 734.1L591.5 749.4C588.3 752.6 588.3 757.7 591.5 760.8L593.3 762.7C596.5 765.8 601.6 765.8 604.8 762.7L620 747.4 635.3 762.7C638.5 765.8 643.6 765.8 646.7 762.7L648.6 760.8C651.8 757.7 651.8 752.6 648.6 749.4L633.3 734.1 648.6 718.8C651.8 715.7 651.8 710.6 648.6 707.4L646.7 705.6C643.6 702.4 638.5 702.4 635.3 705.6L620 720.8 604.8 705.6C601.6 702.4 596.5 702.4 593.3 705.6L591.5 707.4C588.3 710.6 588.3 715.7 591.5 718.8L606.8 734.1ZM619.9 785.9C591.2 785.9 568 762.7 568 734 568 705.3 591.2 682 619.9 682 648.6 682 671.8 705.3 671.8 734 671.8 762.7 648.6 785.9 619.9 785.9ZM750 784.9C721.4 784.9 698.2 761.6 698.2 732.9 698.2 704.3 721.4 681 750 681 778.7 681 801.9 704.3 801.9 732.9 801.9 761.6 778.7 784.9 750 784.9ZM748.3 694.7C743.9 694.7 740.3 698.3 740.3 702.8L740.3 735.3C740.3 739.8 743.9 743.4 748.3 743.4L750.8 743.4C755.2 743.4 758.9 739.8 758.9 735.3L758.9 702.8C758.9 698.3 755.2 694.7 750.8 694.7L748.3 694.7ZM748.3 752.5C743.9 752.5 740.3 756.2 740.3 760.6L740.3 762.9C740.3 767.4 743.9 771 748.3 771L750.8 771C755.2 771 758.9 767.4 758.9 762.9L758.9 760.6C758.9 756.2 755.2 752.5 750.8 752.5L748.3 752.5ZM879.2 784.9C850.6 784.9 827.4 761.6 827.4 732.9 827.4 704.3 850.6 681 879.2 681 907.9 681 931.1 704.3 931.1 732.9 931.1 761.6 907.9 784.9 879.2 784.9Z" class="icon" class="b"/></g></g><g class="section web-design"><path d="M463 106C463 99.2 463 92.4 463 85.4 463 70.2 450.9 58 435.9 58L217.8 58 232.8 106 463 106ZM131.4 97.5C139.9 97.5 146.8 90.5 146.8 82 146.8 73.4 139.9 66.5 131.4 66.5 122.9 66.5 116 73.4 116 82 116 90.5 122.9 97.5 131.4 97.5ZM178.9 97.5C187.4 97.5 194.3 90.5 194.3 82 194.3 73.4 187.4 66.5 178.9 66.5 170.4 66.5 163.5 73.4 163.5 82 163.5 90.5 170.4 97.5 178.9 97.5ZM82.4 97.5C90.9 97.5 97.8 90.5 97.8 82 97.8 73.4 90.9 66.5 82.4 66.5 73.9 66.5 67 73.4 67 82 67 90.5 73.9 97.5 82.4 97.5ZM463 119.9L38 119.9 38 341.9C38 357 50.2 369.2 65.1 369.2 137.1 369.2 227.1 368.9 335.2 368.4L335.2 450 427.9 369.2C458.1 369.2 463 369.2 463 369.2 462.9 369.3 462.9 286.2 463 119.9Z" class="quote" class="a"/><path d="M324.1 185.5C323.6 186.7 321 189.8 318.4 192.4L313.5 197.1 298.2 181.8 283 166.5 288.1 161.5C290.9 158.7 294.1 156.1 295.2 155.7 297.7 154.8 301.3 154.8 303.8 155.7 306.4 156.7 322.6 172.8 324 175.7 325.4 178.5 325.4 182.7 324.1 185.5ZM267.3 243.5L224.5 286.3 209.3 270.9 194 255.7 236.8 212.9 279.6 170 290.5 180.9 301.4 191.8 261.2 232C239.1 254.1 221 272.5 221 272.9 221 273.3 221.8 274.5 222.8 275.4L224.6 277 264.8 236.9C286.8 214.8 305.2 196.7 305.6 196.7 306.1 196.7 307.2 197.6 308.3 198.7L310.1 200.6 267.3 243.5ZM175.2 306.5C174.9 306.2 188 262.4 188.4 261.8 188.7 261.5 218.1 290.7 218.1 291.4 218.1 291.6 175.4 306.7 175.2 306.5Z" class="icon" class="b"/><g class="invert"><path d="M963 106L732.8 106 717.8 58 935.9 58C950.9 58 963 70.2 963 85.4 963 92.4 963 99.2 963 106ZM631.4 97.5C622.9 97.5 616 90.5 616 82 616 73.4 622.9 66.5 631.4 66.5 639.9 66.5 646.8 73.4 646.8 82 646.8 90.5 639.9 97.5 631.4 97.5ZM678.9 97.5C670.4 97.5 663.5 90.5 663.5 82 663.5 73.4 670.4 66.5 678.9 66.5 687.4 66.5 694.3 73.4 694.3 82 694.3 90.5 687.4 97.5 678.9 97.5ZM582.4 97.5C573.9 97.5 567 90.5 567 82 567 73.4 573.9 66.5 582.4 66.5 590.9 66.5 597.8 73.4 597.8 82 597.8 90.5 590.9 97.5 582.4 97.5ZM538 119.9L963 119.9 963 341.9C963 357 950.8 369.2 935.9 369.2 863.9 369.2 773.9 368.9 665.8 368.4L665.8 450 573.1 369.2C542.9 369.2 538 369.2 538 369.2 538.1 369.3 538.1 286.2 538 119.9Z" class="quote" class="a"/><g class="icon" class="b"><path d="M824.1 185.5C823.6 186.7 821 189.8 818.4 192.4L813.5 197.1 798.2 181.8 783 166.5 788.1 161.5C790.9 158.7 794.1 156.1 795.2 155.7 797.7 154.8 801.3 154.8 803.8 155.7 806.4 156.7 822.6 172.8 824 175.7 825.4 178.5 825.4 182.7 824.1 185.5ZM767.3 243.5L724.5 286.3 709.3 270.9 694 255.7 736.8 212.9 779.6 170 790.5 180.9 801.4 191.8 761.2 232C739.1 254.1 721 272.5 721 272.9 721 273.3 721.8 274.5 722.8 275.4L724.6 277 764.8 236.9C786.8 214.8 805.2 196.7 805.6 196.7 806.1 196.7 807.2 197.6 808.3 198.7L810.1 200.6 767.3 243.5ZM675.2 306.5C674.9 306.2 688 262.4 688.4 261.8 688.7 261.5 718.1 290.7 718.1 291.4 718.1 291.6 675.4 306.7 675.2 306.5Z" class="Combined-Shape"/></g></g></g></g></svg>