<?xml version="1.0" encoding="UTF-8" standalone="no"?>
<svg viewBox="0 0 500 500" version="1.1" xmlns="http://www.w3.org/2000/svg" xmlns:xlink="http://www.w3.org/1999/xlink">
    <!-- Generator: Sketch 45.1 (43504) - http://www.bohemiancoding.com/sketch -->
    <title>svgTest</title>
    <desc>Created with Sketch.</desc>
    <defs></defs>
    <g id="Page-1" stroke="none" stroke-width="1" fill="none" fill-rule="evenodd">
        <path d="M462.960969,101.956585 L232.791507,101.956585 L217.732077,54 L435.82644,54 C450.81348,54 462.960969,66.2496393 462.960969,81.3782261 C462.956299,88.3733158 462.96564,95.2202244 462.960969,101.956585 Z M131.352268,93.4937967 C122.859301,93.4937967 115.975257,86.5481007 115.975257,77.9794686 C115.975257,69.4084844 122.859301,62.4627884 131.352268,62.4627884 C139.845236,62.4627884 146.72928,69.4084844 146.72928,77.9794686 C146.72928,86.5481007 139.845236,93.4937967 131.352268,93.4937967 Z M178.84003,93.4937967 C170.347062,93.4937967 163.460683,86.5481007 163.463018,77.9794686 C163.463018,69.4084844 170.347062,62.4627884 178.84003,62.4627884 C187.332997,62.4627884 194.217041,69.4084844 194.217041,77.9794686 C194.217041,86.5481007 187.332997,93.4937967 178.84003,93.4937967 Z M82.3770117,93.4937967 C73.8840441,93.4937967 67,86.5481007 67,77.9794686 C67,69.4084844 73.8840441,62.4627884 82.3770117,62.4627884 C90.8699792,62.4627884 97.7540233,69.4084844 97.7540233,77.9794686 C97.7540233,86.5481007 90.8699792,93.4937967 82.3770117,93.4937967 Z" class="controls" fill="#CEE5F2"></path>
        <path d="M462.998652,116 L38,116 L38,337.970614 C38.0046703,353.080384 50.1591647,365.32532 65.1438699,365.320615 C137.111865,365.295526 227.144492,365.032101 335.24175,364.530339 L335.24175,446.112037 L427.936278,365.264165 C458.143874,365.275926 463.04302,365.297095 462.998652,365.330024 C462.872553,365.419403 462.900575,282.308611 462.998652,116 Z" class="quoteBody" fill="#CEE5F2"></path>
        <path d="M324.958703,181.525937 C324.423747,182.662718 321.815836,185.738716 319.207924,188.346628 L314.326449,193.094364 L299.080198,177.781243 L283.833947,162.534992 L288.916031,157.519778 C291.724551,154.711258 294.934288,152.103347 296.0042,151.70213 C298.545242,150.765957 302.156196,150.765957 304.630369,151.70213 C307.23828,152.705173 323.487574,168.753858 324.891834,171.696117 C326.229224,174.504637 326.229224,178.650547 324.958703,181.525937 Z M268.168835,239.443712 L225.372342,282.240205 L210.126091,266.927085 L194.81297,251.680834 L237.676334,208.88434 L280.472827,166.020977 L291.372559,176.920709 L302.272291,187.820441 L262.083709,228.009023 C239.949897,250.075965 221.828257,268.531953 221.828257,268.933171 C221.828257,269.334388 222.630691,270.47117 223.633734,271.340473 L225.439211,273.012211 L265.627793,232.890498 C287.694736,210.756687 306.083854,192.701916 306.485071,192.701916 C306.953158,192.701916 308.08994,193.57122 309.159852,194.641132 L310.965329,196.580348 L268.168835,239.443712 Z M176.004051,302.484279 C175.736573,302.216801 188.80135,258.371751 189.269436,257.836795 C189.536915,257.502447 218.959504,286.724428 218.959504,287.393123 C218.959504,287.593732 176.20466,302.684888 176.004051,302.484279 Z" class="icon" fill="#FFFFFF"></path>
    </g>
</svg>