<?xml version="1.0" encoding="UTF-8" standalone="no"?>
<svg viewBox="0 0 500 500" version="1.1" xmlns="http://www.w3.org/2000/svg" xmlns:xlink="http://www.w3.org/1999/xlink">
    <!-- Generator: Sketch 45.1 (43504) - http://www.bohemiancoding.com/sketch -->
    <title>ppc</title>
    <desc>Created with Sketch.</desc>
    <defs></defs>
    <g id="Page-1" class="svgSprite" stroke="none" stroke-width="1" fill="none" fill-rule="evenodd">
        <g id="ppc" transform="translate(38.000000, 58.000000)">
            <path d="M424.998652,47.9565852 C425.003322,41.2202244 424.993981,34.3733158 424.998652,27.3782261 C424.998652,12.2496393 412.851163,0 397.864122,0 L179.769759,0 L194.82919,47.9565852 L424.998652,47.9565852 Z M93.389951,39.4937967 C101.882919,39.4937967 108.766963,32.5481007 108.766963,23.9794686 C108.766963,15.4084844 101.882919,8.46278843 93.389951,8.46278843 C84.8969834,8.46278843 78.0129393,15.4084844 78.0129393,23.9794686 C78.0129393,32.5481007 84.8969834,39.4937967 93.389951,39.4937967 Z M140.877712,39.4937967 C149.37068,39.4937967 156.254724,32.5481007 156.254724,23.9794686 C156.254724,15.4084844 149.37068,8.46278843 140.877712,8.46278843 C132.384745,8.46278843 125.500701,15.4084844 125.500701,23.9794686 C125.498366,32.5481007 132.384745,39.4937967 140.877712,39.4937967 Z M44.4146943,39.4937967 C52.9076618,39.4937967 59.7917059,32.5481007 59.7917059,23.9794686 C59.7917059,15.4084844 52.9076618,8.46278843 44.4146943,8.46278843 C35.9217267,8.46278843 29.0376826,15.4084844 29.0376826,23.9794686 C29.0376826,32.5481007 35.9217267,39.4937967 44.4146943,39.4937967 Z M424.998652,61.8879626 L0,61.8879626 L0,283.858577 C0.00467031485,298.968347 12.1591647,311.213282 27.1438699,311.208578 C99.1118651,311.183489 189.144492,310.920064 297.24175,310.418301 L297.24175,392 L389.936278,311.152128 C420.143874,311.163888 425.04302,311.185057 424.998652,311.217986 C424.872553,311.307365 424.900575,228.196573 424.998652,61.8879626 Z" class="quote" fill="#CEE5F2" fill-rule="nonzero"></path>
            <path d="M192.122864,102.278439 C207.437016,103.918136 221.111471,109.455981 228.227138,116.881025 C232.341849,121.2123 233.950609,124.832009 233.950609,129.812975 C233.919671,142.621175 218.543643,153.139987 194.628816,156.728758 C189.338472,157.533138 174.612136,157.533138 169.290855,156.728758 C148.902923,153.665927 134.547839,145.529317 130.80438,134.917693 C130.216564,133.185183 130,131.978613 130,129.812975 C130,124.832009 131.608759,121.2123 135.723471,116.881025 C142.931951,109.33223 156.482655,103.918136 172.229935,102.278439 C175.849643,101.907187 188.503155,101.907187 192.122864,102.278439 Z M233.734045,140.393662 C233.857796,140.703039 233.950609,143.734932 233.950609,147.076201 C233.950609,152.273732 233.857796,153.511239 233.300917,155.274687 C232.434662,158.151891 230.454651,161.090971 227.484633,163.968175 C225.009619,166.381314 224.947743,166.412252 222.225227,167.000068 C215.604564,168.454139 207.127639,171.826346 201.342293,175.322304 C198.836341,176.869188 198.526964,176.962001 194.474127,177.51888 C188.688781,178.323259 174.735887,178.323259 169.290855,177.51888 C148.964799,174.486987 134.547839,166.319439 130.80438,155.707814 C130.061875,153.573114 130,152.985299 130,147.076201 C130,143.611181 130.123751,140.579288 130.278439,140.331787 C130.464065,140.053348 130.773442,140.548351 131.268445,141.847733 C135.228468,152.768735 151.965754,161.616912 172.508374,163.658798 C176.839649,164.091926 187.110959,164.091926 191.442235,163.658798 C207.220452,162.080977 220.709281,156.635945 228.041511,148.901525 C230.485588,146.302759 231.846846,144.137122 233.208104,140.610226 C233.486543,139.929597 233.548419,139.898659 233.734045,140.393662 Z M131.268445,162.637855 C133.960023,170.001023 142.870075,176.838251 154.997646,180.798274 C164.1552,183.799229 172.322748,184.912985 183.831565,184.727359 C187.6369,184.665484 190.761606,184.665484 190.761606,184.727359 C190.761606,184.758297 190.328478,185.438926 189.802538,186.18143 C187.667838,189.275198 186.151891,193.420848 185.687826,197.25712 L185.471262,199.175256 L179.0981,198.958693 C175.571204,198.86588 171.116178,198.556503 169.136167,198.278064 C149.181362,195.369922 134.547839,187.078623 130.80438,176.497936 C130.061875,174.363236 130,173.77542 130,167.866323 C130,164.401303 130.123751,161.36941 130.278439,161.121909 C130.464065,160.84347 130.773442,161.338472 131.268445,162.637855 Z M251.987277,171.331343 C262.042023,172.166661 272.777398,174.98199 279.985878,178.632636 C290.690316,184.04673 296.290036,190.976771 296.320974,198.804004 C296.320974,203.784971 294.712214,207.40468 290.597503,211.735955 C283.389023,219.284749 269.838319,224.698843 254.091039,226.33854 C250.100078,226.771668 238.591261,226.771668 234.6003,226.33854 C218.85302,224.698843 205.302316,219.284749 198.093836,211.735955 C193.979125,207.40468 192.370365,203.784971 192.370365,198.804004 C192.401303,186.05768 207.962956,175.38418 231.506532,171.919159 C234.971552,171.424156 248.33663,171.021967 251.987277,171.331343 Z M131.268445,183.427977 C133.960023,190.791145 142.870075,197.628372 154.997646,201.588396 C163.258007,204.310911 171.425555,205.548419 180.706859,205.548419 L185.533138,205.548419 L185.533138,212.756898 L185.533138,219.965378 L179.129038,219.748814 C175.602142,219.656001 171.116178,219.346625 169.136167,219.068185 C149.181362,216.160043 134.547839,207.868745 130.80438,197.288058 C130.061875,195.153358 130,194.565542 130,188.656445 C130,185.191425 130.123751,182.159532 130.278439,181.91203 C130.464065,181.633591 130.773442,182.128594 131.268445,183.427977 Z M131.268445,204.218098 C133.960023,211.581267 142.870075,218.418494 154.997646,222.378517 C163.258007,225.101033 171.425555,226.33854 180.706859,226.33854 L185.533138,226.33854 L185.533138,233.54702 L185.533138,240.7555 L179.129038,240.538936 C175.602142,240.446123 171.116178,240.136746 169.136167,239.858307 C149.181362,236.950165 134.547839,228.658867 130.80438,218.07818 C130.061875,215.94348 130,215.355664 130,209.446567 C130,205.981546 130.123751,202.949654 130.278439,202.702152 C130.464065,202.423713 130.773442,202.918716 131.268445,204.218098 Z M296.135348,209.66313 C296.228161,209.941569 296.320974,212.911587 296.320974,216.283794 C296.320974,221.481325 296.228161,222.687894 295.671282,224.451342 C294.743152,227.452297 293.350956,229.648872 290.597503,232.526077 C283.389023,240.074871 269.838319,245.488965 254.091039,247.128662 C250.100078,247.56179 238.591261,247.56179 234.6003,247.128662 C218.85302,245.488965 205.302316,240.074871 198.093836,232.526077 C195.340383,229.648872 193.948187,227.452297 193.020056,224.451342 C192.463178,222.687894 192.370365,221.481325 192.370365,216.160043 C192.370365,212.756898 192.494116,209.755943 192.648804,209.53938 C192.83443,209.230003 193.143807,209.725006 193.607872,211.024388 C197.50602,221.636013 212.387045,229.927311 232.651226,232.74264 C238.250946,233.516082 250.440393,233.516082 256.040113,232.74264 C276.273356,229.927311 291.185319,221.636013 295.052529,211.024388 C295.454719,210.003445 295.795033,209.13719 295.856909,209.13719 C295.887846,209.13719 296.011597,209.353754 296.135348,209.66313 Z M296.135348,230.453252 C296.228161,230.731691 296.320974,233.701709 296.320974,237.073916 C296.320974,242.271446 296.228161,243.478016 295.671282,245.241464 C294.743152,248.242419 293.350956,250.438994 290.597503,253.316198 C283.389023,260.864993 269.838319,266.279087 254.091039,267.918784 C250.100078,268.351911 238.591261,268.351911 234.6003,267.918784 C218.85302,266.279087 205.302316,260.864993 198.093836,253.316198 C195.340383,250.438994 193.948187,248.242419 193.020056,245.241464 C192.463178,243.478016 192.370365,242.271446 192.370365,236.950165 C192.370365,233.54702 192.494116,230.546065 192.648804,230.329501 C192.83443,230.020125 193.143807,230.515127 193.607872,231.81451 C197.50602,242.426135 212.387045,250.717433 232.651226,253.532762 C238.250946,254.306204 250.440393,254.306204 256.040113,253.532762 C276.273356,250.717433 291.185319,242.426135 295.052529,231.81451 C295.454719,230.793567 295.795033,229.927311 295.856909,229.927311 C295.887846,229.927311 296.011597,230.143875 296.135348,230.453252 Z" class="icon" fill="#FFFFFF"></path>
            <g id="invert" transform="translate(500.000000, 0.000000)">
                <path d="M424.998652,47.9565852 C425.003322,41.2202244 424.993981,34.3733158 424.998652,27.3782261 C424.998652,12.2496393 412.851163,0 397.864122,0 L179.769759,0 L194.82919,47.9565852 L424.998652,47.9565852 Z M93.389951,39.4937967 C101.882919,39.4937967 108.766963,32.5481007 108.766963,23.9794686 C108.766963,15.4084844 101.882919,8.46278843 93.389951,8.46278843 C84.8969834,8.46278843 78.0129393,15.4084844 78.0129393,23.9794686 C78.0129393,32.5481007 84.8969834,39.4937967 93.389951,39.4937967 Z M140.877712,39.4937967 C149.37068,39.4937967 156.254724,32.5481007 156.254724,23.9794686 C156.254724,15.4084844 149.37068,8.46278843 140.877712,8.46278843 C132.384745,8.46278843 125.500701,15.4084844 125.500701,23.9794686 C125.498366,32.5481007 132.384745,39.4937967 140.877712,39.4937967 Z M44.4146943,39.4937967 C52.9076618,39.4937967 59.7917059,32.5481007 59.7917059,23.9794686 C59.7917059,15.4084844 52.9076618,8.46278843 44.4146943,8.46278843 C35.9217267,8.46278843 29.0376826,15.4084844 29.0376826,23.9794686 C29.0376826,32.5481007 35.9217267,39.4937967 44.4146943,39.4937967 Z M0.000296836478,61.8879626 L424.998949,61.8879626 L424.998949,283.858577 C424.994278,298.968347 412.839784,311.213282 397.855079,311.208578 C325.887084,311.183489 235.854457,310.920064 127.757198,310.418301 L127.757198,392 L35.0626709,311.152128 C4.85507439,311.163888 -0.0440711546,311.185057 0.000296836478,311.217986 C0.126395338,311.307365 0.0983734484,228.196573 0.000296836478,61.8879626 Z" class="quote" fill="#CEE5F2" fill-rule="nonzero"></path>
                <path d="M233.734045,140.393662 C233.857796,140.703039 233.950609,143.734932 233.950609,147.076201 C233.950609,152.273732 233.857796,153.511239 233.300917,155.274687 C232.434662,158.151891 230.454651,161.090971 227.484633,163.968175 C225.009619,166.381314 224.947743,166.412252 222.225227,167.000068 C215.604564,168.454139 207.127639,171.826346 201.342293,175.322304 C198.836341,176.869188 198.526964,176.962001 194.474127,177.51888 C188.688781,178.323259 174.735887,178.323259 169.290855,177.51888 C148.964799,174.486987 134.547839,166.319439 130.80438,155.707814 C130.061875,153.573114 130,152.985299 130,147.076201 C130,143.611181 130.123751,140.579288 130.278439,140.331787 C130.464065,140.053348 130.773442,140.548351 131.268445,141.847733 C135.228468,152.768735 151.965754,161.616912 172.508374,163.658798 C176.839649,164.091926 187.110959,164.091926 191.442235,163.658798 C207.220452,162.080977 220.709281,156.635945 228.041511,148.901525 C230.485588,146.302759 231.846846,144.137122 233.208104,140.610226 C233.486543,139.929597 233.548419,139.898659 233.734045,140.393662 Z M131.268445,162.637855 C133.960023,170.001023 142.870075,176.838251 154.997646,180.798274 C164.1552,183.799229 172.322748,184.912985 183.831565,184.727359 C187.6369,184.665484 190.761606,184.665484 190.761606,184.727359 C190.761606,184.758297 190.328478,185.438926 189.802538,186.18143 C187.667838,189.275198 186.151891,193.420848 185.687826,197.25712 L185.471262,199.175256 L179.0981,198.958693 C175.571204,198.86588 171.116178,198.556503 169.136167,198.278064 C149.181362,195.369922 134.547839,187.078623 130.80438,176.497936 C130.061875,174.363236 130,173.77542 130,167.866323 C130,164.401303 130.123751,161.36941 130.278439,161.121909 C130.464065,160.84347 130.773442,161.338472 131.268445,162.637855 Z M251.987277,171.331343 C262.042023,172.166661 272.777398,174.98199 279.985878,178.632636 C290.690316,184.04673 296.290036,190.976771 296.320974,198.804004 C296.320974,203.784971 294.712214,207.40468 290.597503,211.735955 C283.389023,219.284749 269.838319,224.698843 254.091039,226.33854 C250.100078,226.771668 238.591261,226.771668 234.6003,226.33854 C218.85302,224.698843 205.302316,219.284749 198.093836,211.735955 C193.979125,207.40468 192.370365,203.784971 192.370365,198.804004 C192.401303,186.05768 207.962956,175.38418 231.506532,171.919159 C234.971552,171.424156 248.33663,171.021967 251.987277,171.331343 Z M131.268445,183.427977 C133.960023,190.791145 142.870075,197.628372 154.997646,201.588396 C163.258007,204.310911 171.425555,205.548419 180.706859,205.548419 L185.533138,205.548419 L185.533138,212.756898 L185.533138,219.965378 L179.129038,219.748814 C175.602142,219.656001 171.116178,219.346625 169.136167,219.068185 C149.181362,216.160043 134.547839,207.868745 130.80438,197.288058 C130.061875,195.153358 130,194.565542 130,188.656445 C130,185.191425 130.123751,182.159532 130.278439,181.91203 C130.464065,181.633591 130.773442,182.128594 131.268445,183.427977 Z M131.268445,204.218098 C133.960023,211.581267 142.870075,218.418494 154.997646,222.378517 C163.258007,225.101033 171.425555,226.33854 180.706859,226.33854 L185.533138,226.33854 L185.533138,233.54702 L185.533138,240.7555 L179.129038,240.538936 C175.602142,240.446123 171.116178,240.136746 169.136167,239.858307 C149.181362,236.950165 134.547839,228.658867 130.80438,218.07818 C130.061875,215.94348 130,215.355664 130,209.446567 C130,205.981546 130.123751,202.949654 130.278439,202.702152 C130.464065,202.423713 130.773442,202.918716 131.268445,204.218098 Z M296.135348,209.66313 C296.228161,209.941569 296.320974,212.911587 296.320974,216.283794 C296.320974,221.481325 296.228161,222.687894 295.671282,224.451342 C294.743152,227.452297 293.350956,229.648872 290.597503,232.526077 C283.389023,240.074871 269.838319,245.488965 254.091039,247.128662 C250.100078,247.56179 238.591261,247.56179 234.6003,247.128662 C218.85302,245.488965 205.302316,240.074871 198.093836,232.526077 C195.340383,229.648872 193.948187,227.452297 193.020056,224.451342 C192.463178,222.687894 192.370365,221.481325 192.370365,216.160043 C192.370365,212.756898 192.494116,209.755943 192.648804,209.53938 C192.83443,209.230003 193.143807,209.725006 193.607872,211.024388 C197.50602,221.636013 212.387045,229.927311 232.651226,232.74264 C238.250946,233.516082 250.440393,233.516082 256.040113,232.74264 C276.273356,229.927311 291.185319,221.636013 295.052529,211.024388 C295.454719,210.003445 295.795033,209.13719 295.856909,209.13719 C295.887846,209.13719 296.011597,209.353754 296.135348,209.66313 Z M296.135348,230.453252 C296.228161,230.731691 296.320974,233.701709 296.320974,237.073916 C296.320974,242.271446 296.228161,243.478016 295.671282,245.241464 C294.743152,248.242419 293.350956,250.438994 290.597503,253.316198 C283.389023,260.864993 269.838319,266.279087 254.091039,267.918784 C250.100078,268.351911 238.591261,268.351911 234.6003,267.918784 C218.85302,266.279087 205.302316,260.864993 198.093836,253.316198 C195.340383,250.438994 193.948187,248.242419 193.020056,245.241464 C192.463178,243.478016 192.370365,242.271446 192.370365,236.950165 C192.370365,233.54702 192.494116,230.546065 192.648804,230.329501 C192.83443,230.020125 193.143807,230.515127 193.607872,231.81451 C197.50602,242.426135 212.387045,250.717433 232.651226,253.532762 C238.250946,254.306204 250.440393,254.306204 256.040113,253.532762 C276.273356,250.717433 291.185319,242.426135 295.052529,231.81451 C295.454719,230.793567 295.795033,229.927311 295.856909,229.927311 C295.887846,229.927311 296.011597,230.143875 296.135348,230.453252 Z M192.122864,102.278439 C207.437016,103.918136 221.111471,109.455981 228.227138,116.881025 C232.341849,121.2123 233.950609,124.832009 233.950609,129.812975 C233.919671,142.621175 218.543643,153.139987 194.628816,156.728758 C189.338472,157.533138 174.612136,157.533138 169.290855,156.728758 C148.902923,153.665927 134.547839,145.529317 130.80438,134.917693 C130.216564,133.185183 130,131.978613 130,129.812975 C130,124.832009 131.608759,121.2123 135.723471,116.881025 C142.931951,109.33223 156.482655,103.918136 172.229935,102.278439 C175.849643,101.907187 188.503155,101.907187 192.122864,102.278439 Z" class="icon" fill="#FFFFFF"></path>
            </g>
        </g>
    </g>
</svg>