<?xml version="1.0" encoding="UTF-8" standalone="no"?>
<svg viewBox="0 0 500 500" version="1.1" xmlns="http://www.w3.org/2000/svg" xmlns:xlink="http://www.w3.org/1999/xlink">
    <!-- Generator: Sketch 45.1 (43504) - http://www.bohemiancoding.com/sketch -->
    <title>web-design</title>
    <desc>Created with Sketch.</desc>
    <defs></defs>
    <g id="Page-1" class="svgSprite" stroke="none" stroke-width="1" fill="none" fill-rule="evenodd">
        <g id="web-design" transform="translate(38.000000, 58.000000)">
            <path d="M424.998652,47.9565852 C425.003322,41.2202244 424.993981,34.3733158 424.998652,27.3782261 C424.998652,12.2496393 412.851163,0 397.864122,0 L179.769759,0 L194.82919,47.9565852 L424.998652,47.9565852 Z M93.389951,39.4937967 C101.882919,39.4937967 108.766963,32.5481007 108.766963,23.9794686 C108.766963,15.4084844 101.882919,8.46278843 93.389951,8.46278843 C84.8969834,8.46278843 78.0129393,15.4084844 78.0129393,23.9794686 C78.0129393,32.5481007 84.8969834,39.4937967 93.389951,39.4937967 Z M140.877712,39.4937967 C149.37068,39.4937967 156.254724,32.5481007 156.254724,23.9794686 C156.254724,15.4084844 149.37068,8.46278843 140.877712,8.46278843 C132.384745,8.46278843 125.500701,15.4084844 125.500701,23.9794686 C125.498366,32.5481007 132.384745,39.4937967 140.877712,39.4937967 Z M44.4146943,39.4937967 C52.9076618,39.4937967 59.7917059,32.5481007 59.7917059,23.9794686 C59.7917059,15.4084844 52.9076618,8.46278843 44.4146943,8.46278843 C35.9217267,8.46278843 29.0376826,15.4084844 29.0376826,23.9794686 C29.0376826,32.5481007 35.9217267,39.4937967 44.4146943,39.4937967 Z M424.998652,61.8879626 L0,61.8879626 L0,283.858577 C0.00467031485,298.968347 12.1591647,311.213282 27.1438699,311.208578 C99.1118651,311.183489 189.144492,310.920064 297.24175,310.418301 L297.24175,392 L389.936278,311.152128 C420.143874,311.163888 425.04302,311.185057 424.998652,311.217986 C424.872553,311.307365 424.900575,228.196573 424.998652,61.8879626 Z" class="quote" fill="#CEE5F2" fill-rule="nonzero"></path>
            <path d="M286.112298,127.538394 C285.577342,128.675176 282.96943,131.751174 280.361519,134.359085 L275.480044,139.106821 L260.233793,123.793701 L244.987542,108.54745 L250.069626,103.532236 C252.878146,100.723716 256.087883,98.1158048 257.157795,97.7145876 C259.698837,96.7784143 263.309791,96.7784143 265.783963,97.7145876 C268.391875,98.7176304 284.641169,114.766316 286.045428,117.708575 C287.382819,120.517094 287.382819,124.663005 286.112298,127.538394 Z M229.32243,185.456169 L186.525937,228.252663 L171.279686,212.939543 L155.966565,197.693292 L198.829928,154.896798 L241.626422,112.033435 L252.526154,122.933167 L263.425886,133.832899 L223.237304,174.021481 C201.103492,196.088423 182.981852,214.544411 182.981852,214.945628 C182.981852,215.346845 183.784286,216.483627 184.787329,217.352931 L186.592806,219.024669 L226.781388,178.902956 C248.84833,156.769145 267.237449,138.714374 267.638666,138.714374 C268.106753,138.714374 269.243534,139.583678 270.313447,140.65359 L272.118924,142.592806 L229.32243,185.456169 Z M137.157646,248.496737 C136.890168,248.229259 149.954945,204.384208 150.423031,203.849252 C150.690509,203.514905 180.113099,232.736886 180.113099,233.405581 C180.113099,233.606189 137.358255,248.697345 137.157646,248.496737 Z" class="icon" fill="#FFFFFF"></path>
            <g id="invert" transform="translate(500.000000, 0.000000)">
                <path d="M424.998652,47.9565852 L194.82919,47.9565852 L179.769759,0 L397.864122,0 C412.851163,0 424.998652,12.2496393 424.998652,27.3782261 C424.993981,34.3733158 425.003322,41.2202244 424.998652,47.9565852 Z M93.389951,39.4937967 C84.8969834,39.4937967 78.0129393,32.5481007 78.0129393,23.9794686 C78.0129393,15.4084844 84.8969834,8.46278843 93.389951,8.46278843 C101.882919,8.46278843 108.766963,15.4084844 108.766963,23.9794686 C108.766963,32.5481007 101.882919,39.4937967 93.389951,39.4937967 Z M140.877712,39.4937967 C132.384745,39.4937967 125.498366,32.5481007 125.500701,23.9794686 C125.500701,15.4084844 132.384745,8.46278843 140.877712,8.46278843 C149.37068,8.46278843 156.254724,15.4084844 156.254724,23.9794686 C156.254724,32.5481007 149.37068,39.4937967 140.877712,39.4937967 Z M44.4146943,39.4937967 C35.9217267,39.4937967 29.0376826,32.5481007 29.0376826,23.9794686 C29.0376826,15.4084844 35.9217267,8.46278843 44.4146943,8.46278843 C52.9076618,8.46278843 59.7917059,15.4084844 59.7917059,23.9794686 C59.7917059,32.5481007 52.9076618,39.4937967 44.4146943,39.4937967 Z M0.000296836478,61.8879626 L424.998949,61.8879626 L424.998949,283.858577 C424.994278,298.968347 412.839784,311.213282 397.855079,311.208578 C325.887084,311.183489 235.854457,310.920064 127.757198,310.418301 L127.757198,392 L35.0626709,311.152128 C4.85507439,311.163888 -0.0440711546,311.185057 0.000296836478,311.217986 C0.126395338,311.307365 0.0983734484,228.196573 0.000296836478,61.8879626 Z" class="quote" fill="#CEE5F2" fill-rule="nonzero"></path>
                <g class="icon" transform="translate(137.000000, 97.000000)" fill="#FFFFFF">
                    <path d="M149.112298,30.5383942 C148.577342,31.675176 145.96943,34.751174 143.361519,37.3590854 L138.480044,42.1068214 L123.233793,26.793701 L107.987542,11.5474501 L113.069626,6.53223599 C115.878146,3.72371609 119.087883,1.11580476 120.157795,0.714587629 C122.698837,-0.22158567 126.309791,-0.22158567 128.783963,0.714587629 C131.391875,1.71763045 147.641169,17.7663156 149.045428,20.7085745 C150.382819,23.5170944 150.382819,27.6630047 149.112298,30.5383942 Z M92.3224302,88.4561692 L49.5259365,131.252663 L34.2796856,115.939543 L18.9665652,100.693292 L61.8299285,57.896798 L104.626422,15.0334348 L115.526154,25.9331667 L126.425886,36.8328987 L86.2373038,77.0214811 C64.1034922,99.0884231 45.9818519,117.544411 45.9818519,117.945628 C45.9818519,118.346845 46.7842861,119.483627 47.787329,120.352931 L49.592806,122.024669 L89.7813884,81.9029562 C111.84833,59.7691446 130.237449,41.7143738 130.638666,41.7143738 C131.106753,41.7143738 132.243534,42.5836776 133.313447,43.6535899 L135.118924,45.592806 L92.3224302,88.4561692 Z M0.157646213,151.496737 C-0.109831873,151.229259 12.9549447,107.384208 13.4230314,106.849252 C13.6905095,106.514905 43.1130989,135.736886 43.1130989,136.405581 C43.1130989,136.606189 0.358254777,151.697345 0.157646213,151.496737 Z" id="Combined-Shape"></path>
                </g>
            </g>
        </g>
    </g>
</svg>