<?xml version="1.0" encoding="UTF-8" standalone="no"?>
<svg viewBox="0 0 500 500" version="1.1" xmlns="http://www.w3.org/2000/svg" xmlns:xlink="http://www.w3.org/1999/xlink">
    <!-- Generator: Sketch 45.1 (43504) - http://www.bohemiancoding.com/sketch -->
    <title>analytics</title>
    <desc>Created with Sketch.</desc>
    <defs></defs>
    <g id="Page-1" class="svgSprite" stroke="none" stroke-width="1" fill="none" fill-rule="evenodd">
        <g id="analytics" transform="translate(38.000000, 58.000000)">
            <path d="M424.998652,47.9565852 C425.003322,41.2202244 424.993981,34.3733158 424.998652,27.3782261 C424.998652,12.2496393 412.851163,0 397.864122,0 L179.769759,0 L194.82919,47.9565852 L424.998652,47.9565852 Z M93.389951,39.4937967 C101.882919,39.4937967 108.766963,32.5481007 108.766963,23.9794686 C108.766963,15.4084844 101.882919,8.46278843 93.389951,8.46278843 C84.8969834,8.46278843 78.0129393,15.4084844 78.0129393,23.9794686 C78.0129393,32.5481007 84.8969834,39.4937967 93.389951,39.4937967 Z M140.877712,39.4937967 C149.37068,39.4937967 156.254724,32.5481007 156.254724,23.9794686 C156.254724,15.4084844 149.37068,8.46278843 140.877712,8.46278843 C132.384745,8.46278843 125.500701,15.4084844 125.500701,23.9794686 C125.498366,32.5481007 132.384745,39.4937967 140.877712,39.4937967 Z M44.4146943,39.4937967 C35.9217267,39.4937967 29.0376826,32.5481007 29.0376826,23.9794686 C29.0376826,15.4084844 35.9217267,8.46278843 44.4146943,8.46278843 C52.9076618,8.46278843 59.7917059,15.4084844 59.7917059,23.9794686 C59.7917059,32.5481007 52.9076618,39.4937967 44.4146943,39.4937967 Z M424.998652,61.8879626 C424.900575,228.196573 424.872553,311.307365 424.998652,311.217986 C425.04302,311.185057 420.143874,311.163888 389.936278,311.152128 L297.24175,392 L297.24175,310.418301 C189.144492,310.920064 99.1118651,311.183489 27.1438699,311.208578 C12.1591647,311.213282 0.00467031485,298.968347 1.0658141e-14,283.858577 L1.0658141e-14,61.8879626 L424.998652,61.8879626 Z" class="quote" fill="#CEE5F2" fill-rule="nonzero"></path>
            <path d="M160.799078,113.329767 L199.227072,185.210748 L199.201732,185.260482 L199.273101,185.296847 L201.149376,188.806488 L202.330142,188.175244 L202.330142,188.735233 L288.607002,188.735233 C285.709424,230.551402 251.612937,264.259981 208.796569,265.755161 C163.038761,267.353059 124.649375,231.554378 123.051478,185.796569 C121.99791,155.626346 137.202019,128.65945 160.799078,113.329767 L160.799078,113.329767 Z M166.83081,109.764904 C177.64761,103.975891 189.921411,100.508544 203.010069,100.051478 C215.841091,99.6034084 228.092729,102.095858 239.116235,106.923859 L203.100506,177.608707 L166.83081,109.764904 L166.83081,109.764904 Z M245.40432,110.001623 C270.357335,123.552595 287.692482,149.578926 288.755161,180.010069 C288.775284,180.586312 288.789476,181.161386 288.797792,181.735233 L208.85422,181.735233 L245.40432,110.001623 L245.40432,110.001623 Z" class="icon" fill="#FFFFFF"></path>
            <g id="invert" transform="translate(500.000000, 0.000000)">
                <path d="M424.998652,47.9565852 C425.003322,41.2202244 424.993981,34.3733158 424.998652,27.3782261 C424.998652,12.2496393 412.851163,0 397.864122,0 L179.769759,0 L194.82919,47.9565852 L424.998652,47.9565852 Z M93.389951,39.4937967 C101.882919,39.4937967 108.766963,32.5481007 108.766963,23.9794686 C108.766963,15.4084844 101.882919,8.46278843 93.389951,8.46278843 C84.8969834,8.46278843 78.0129393,15.4084844 78.0129393,23.9794686 C78.0129393,32.5481007 84.8969834,39.4937967 93.389951,39.4937967 Z M140.877712,39.4937967 C149.37068,39.4937967 156.254724,32.5481007 156.254724,23.9794686 C156.254724,15.4084844 149.37068,8.46278843 140.877712,8.46278843 C132.384745,8.46278843 125.500701,15.4084844 125.500701,23.9794686 C125.498366,32.5481007 132.384745,39.4937967 140.877712,39.4937967 Z M44.4146943,39.4937967 C52.9076618,39.4937967 59.7917059,32.5481007 59.7917059,23.9794686 C59.7917059,15.4084844 52.9076618,8.46278843 44.4146943,8.46278843 C35.9217267,8.46278843 29.0376826,15.4084844 29.0376826,23.9794686 C29.0376826,32.5481007 35.9217267,39.4937967 44.4146943,39.4937967 Z M0.000296836478,61.8879626 L424.998949,61.8879626 L424.998949,283.858577 C424.994278,298.968347 412.839784,311.213282 397.855079,311.208578 C325.887084,311.183489 235.854457,310.920064 127.757198,310.418301 L127.757198,392 L35.0626709,311.152128 C4.85507439,311.163888 -0.0440711546,311.185057 0.000296836478,311.217986 C0.126395338,311.307365 0.0983734484,228.196573 0.000296836478,61.8879626 Z" class="quote" fill="#CEE5F2" fill-rule="nonzero"></path>
                <path d="M160.799078,113.329767 L199.227072,185.210748 L199.201732,185.260482 L199.273101,185.296847 L201.149376,188.806488 L202.330142,188.175244 L202.330142,188.735233 L288.607002,188.735233 C285.709424,230.551402 251.612937,264.259981 208.796569,265.755161 C163.038761,267.353059 124.649375,231.554378 123.051478,185.796569 C121.99791,155.626346 137.202019,128.65945 160.799078,113.329767 L160.799078,113.329767 Z M166.83081,109.764904 C177.64761,103.975891 189.921411,100.508544 203.010069,100.051478 C215.841091,99.6034084 228.092729,102.095858 239.116235,106.923859 L203.100506,177.608707 L166.83081,109.764904 L166.83081,109.764904 Z M245.40432,110.001623 C270.357335,123.552595 287.692482,149.578926 288.755161,180.010069 C288.775284,180.586312 288.789476,181.161386 288.797792,181.735233 L208.85422,181.735233 L245.40432,110.001623 L245.40432,110.001623 Z" class="icon" fill="#FFFFFF"></path>
            </g>
        </g>
    </g>
</svg>