<?xml version="1.0" encoding="UTF-8" standalone="no"?>
<svg viewBox="0 0 500 500" version="1.1" xmlns="http://www.w3.org/2000/svg" xmlns:xlink="http://www.w3.org/1999/xlink">
    <!-- Generator: Sketch 45.1 (43504) - http://www.bohemiancoding.com/sketch -->
    <title>content-strategy</title>
    <desc>Created with Sketch.</desc>
    <defs></defs>
    <g id="Page-1" class="svgSprite" stroke="none" stroke-width="1" fill="none" fill-rule="evenodd">
        <g id="content-strategy" transform="translate(38.000000, 58.000000)">
            <path d="M424.998652,47.9565852 C425.003322,41.2202244 424.993981,34.3733158 424.998652,27.3782261 C424.998652,12.2496393 412.851163,0 397.864122,0 L179.769759,0 L194.82919,47.9565852 L424.998652,47.9565852 Z M93.389951,39.4937967 C101.882919,39.4937967 108.766963,32.5481007 108.766963,23.9794686 C108.766963,15.4084844 101.882919,8.46278843 93.389951,8.46278843 C84.8969834,8.46278843 78.0129393,15.4084844 78.0129393,23.9794686 C78.0129393,32.5481007 84.8969834,39.4937967 93.389951,39.4937967 Z M140.877712,39.4937967 C149.37068,39.4937967 156.254724,32.5481007 156.254724,23.9794686 C156.254724,15.4084844 149.37068,8.46278843 140.877712,8.46278843 C132.384745,8.46278843 125.500701,15.4084844 125.500701,23.9794686 C125.498366,32.5481007 132.384745,39.4937967 140.877712,39.4937967 Z M44.4146943,39.4937967 C52.9076618,39.4937967 59.7917059,32.5481007 59.7917059,23.9794686 C59.7917059,15.4084844 52.9076618,8.46278843 44.4146943,8.46278843 C35.9217267,8.46278843 29.0376826,15.4084844 29.0376826,23.9794686 C29.0376826,32.5481007 35.9217267,39.4937967 44.4146943,39.4937967 Z M424.998652,61.8879626 L0,61.8879626 L0,283.858577 C0.00467031485,298.968347 12.1591647,311.213282 27.1438699,311.208578 C99.1118651,311.183489 189.144492,310.920064 297.24175,310.418301 L297.24175,392 L389.936278,311.152128 C420.143874,311.163888 425.04302,311.185057 424.998652,311.217986 C424.872553,311.307365 424.900575,228.196573 424.998652,61.8879626 Z" class="quote" fill="#CEE5F2" fill-rule="nonzero"></path>
            <path d="M262.185799,93.5111136 L154.350503,93.5111136 L154.350503,277.918574 L301.876059,277.918574 L301.876059,133.845936 L268.452301,133.845936 L268.452301,133.858916 L262.185799,133.858916 L262.185799,93.5111136 Z M268.452301,95.0226268 L268.452301,127.458907 L300.276486,127.458907 L268.452301,95.0226268 Z M310.226562,125.563827 L310.226562,286.429687 L146,286.429687 L146,85 L270.428202,85 L310.226562,125.563827 Z M229.487549,123.827752 L229.487549,126.155505 L231.815301,126.155505 L234.143053,126.155505 L234.143053,130.81101 L234.143053,135.466514 L231.815301,135.466514 L229.487549,135.466514 L229.487549,137.794267 L229.487549,140.122019 L232.036992,140.122019 C236.165981,140.122019 241.181733,140.648534 243.17695,141.258184 C246.613156,142.338926 247.804743,144.140163 248.026434,148.546266 C248.192702,152.093317 247.305939,155.723502 245.199877,160.129605 C244.396249,161.792285 243.731176,163.233275 243.731176,163.288698 C243.731176,163.34412 244.728785,163.399543 245.920372,163.399543 L248.109568,163.399543 L248.109568,168.055048 L248.109568,172.710552 L224.832044,172.710552 L201.55452,172.710552 L201.55452,168.055048 L201.55452,163.399543 L203.743716,163.399543 C204.935303,163.399543 205.9052,163.34412 205.9052,163.288698 C205.9052,163.233275 205.350973,161.958553 204.630479,160.462141 C202.275015,155.418678 201.360541,151.73307 201.637654,147.992039 C201.803922,145.359462 202.302726,144.08474 203.605159,142.810019 C205.212417,141.258184 207.484746,140.731669 214.274024,140.34371 L220.176539,140.011174 L220.176539,137.738844 L220.176539,135.466514 L217.848787,135.466514 L215.521034,135.466514 L215.521034,130.81101 L215.521034,126.155505 L217.848787,126.155505 L220.176539,126.155505 L220.176539,123.827752 L220.176539,121.5 L224.832044,121.5 L229.487549,121.5 L229.487549,123.827752 Z M238.798558,179.333562 C238.798558,180.442016 238.937115,183.074593 239.103383,185.236077 C240.48895,203.137601 244.811919,218.351126 250.769856,226.276569 L252.626516,228.715166 L252.70965,230.959785 L252.820495,233.232114 L224.832044,233.232114 L196.843593,233.232114 L196.954438,230.959785 L197.037572,228.715166 L198.894232,226.276569 C205.240128,217.824611 209.951055,200.227911 210.754684,181.799871 L210.948664,177.366057 L224.887467,177.366057 L238.798558,177.366057 L238.798558,179.333562 Z M259.33266,238.303289 C260.496536,238.802093 261.715835,240.298506 261.937525,241.462382 C262.020659,241.988897 262.076082,244.898588 262.020659,247.974546 C261.909814,254.098752 261.854391,254.320443 259.914598,255.761432 C259.13868,256.371082 259.000124,256.371082 224.832044,256.371082 C190.663964,256.371082 190.525408,256.371082 189.74949,255.761432 C187.754274,254.292731 187.726563,254.209597 187.726563,247.198629 C187.726563,240.18766 187.754274,240.104526 189.74949,238.635825 C190.525408,238.026176 190.691676,238.026176 224.499508,237.970753 C252.266268,237.915331 258.612165,237.970753 259.33266,238.303289 Z" class="icon" fill="#FFFFFF"></path>
            <g id="invert" transform="translate(500.000000, 0.000000)">
                <path d="M424.998652,47.9565852 C425.003322,41.2202244 424.993981,34.3733158 424.998652,27.3782261 C424.998652,12.2496393 412.851163,0 397.864122,0 L179.769759,0 L194.82919,47.9565852 L424.998652,47.9565852 Z M93.389951,39.4937967 C101.882919,39.4937967 108.766963,32.5481007 108.766963,23.9794686 C108.766963,15.4084844 101.882919,8.46278843 93.389951,8.46278843 C84.8969834,8.46278843 78.0129393,15.4084844 78.0129393,23.9794686 C78.0129393,32.5481007 84.8969834,39.4937967 93.389951,39.4937967 Z M140.877712,39.4937967 C149.37068,39.4937967 156.254724,32.5481007 156.254724,23.9794686 C156.254724,15.4084844 149.37068,8.46278843 140.877712,8.46278843 C132.384745,8.46278843 125.500701,15.4084844 125.500701,23.9794686 C125.498366,32.5481007 132.384745,39.4937967 140.877712,39.4937967 Z M44.4146943,39.4937967 C52.9076618,39.4937967 59.7917059,32.5481007 59.7917059,23.9794686 C59.7917059,15.4084844 52.9076618,8.46278843 44.4146943,8.46278843 C35.9217267,8.46278843 29.0376826,15.4084844 29.0376826,23.9794686 C29.0376826,32.5481007 35.9217267,39.4937967 44.4146943,39.4937967 Z M0.000296836478,61.8879626 L424.998949,61.8879626 L424.998949,283.858577 C424.994278,298.968347 412.839784,311.213282 397.855079,311.208578 C325.887084,311.183489 235.854457,310.920064 127.757198,310.418301 L127.757198,392 L35.0626709,311.152128 C4.85507439,311.163888 -0.0440711546,311.185057 0.000296836478,311.217986 C0.126395338,311.307365 0.0983734484,228.196573 0.000296836478,61.8879626 Z" class="quote" fill="#CEE5F2" fill-rule="nonzero"></path>
                <path d="M262.185799,93.5111136 L154.350503,93.5111136 L154.350503,277.918574 L301.876059,277.918574 L301.876059,133.845936 L268.452301,133.845936 L268.452301,133.858916 L262.185799,133.858916 L262.185799,93.5111136 Z M268.452301,95.0226268 L268.452301,127.458907 L300.276486,127.458907 L268.452301,95.0226268 Z M310.226562,125.563827 L310.226562,286.429687 L146,286.429687 L146,85 L270.428202,85 L310.226562,125.563827 Z M229.487549,123.827752 L229.487549,126.155505 L231.815301,126.155505 L234.143053,126.155505 L234.143053,130.81101 L234.143053,135.466514 L231.815301,135.466514 L229.487549,135.466514 L229.487549,137.794267 L229.487549,140.122019 L232.036992,140.122019 C236.165981,140.122019 241.181733,140.648534 243.17695,141.258184 C246.613156,142.338926 247.804743,144.140163 248.026434,148.546266 C248.192702,152.093317 247.305939,155.723502 245.199877,160.129605 C244.396249,161.792285 243.731176,163.233275 243.731176,163.288698 C243.731176,163.34412 244.728785,163.399543 245.920372,163.399543 L248.109568,163.399543 L248.109568,168.055048 L248.109568,172.710552 L224.832044,172.710552 L201.55452,172.710552 L201.55452,168.055048 L201.55452,163.399543 L203.743716,163.399543 C204.935303,163.399543 205.9052,163.34412 205.9052,163.288698 C205.9052,163.233275 205.350973,161.958553 204.630479,160.462141 C202.275015,155.418678 201.360541,151.73307 201.637654,147.992039 C201.803922,145.359462 202.302726,144.08474 203.605159,142.810019 C205.212417,141.258184 207.484746,140.731669 214.274024,140.34371 L220.176539,140.011174 L220.176539,137.738844 L220.176539,135.466514 L217.848787,135.466514 L215.521034,135.466514 L215.521034,130.81101 L215.521034,126.155505 L217.848787,126.155505 L220.176539,126.155505 L220.176539,123.827752 L220.176539,121.5 L224.832044,121.5 L229.487549,121.5 L229.487549,123.827752 Z M238.798558,179.333562 C238.798558,180.442016 238.937115,183.074593 239.103383,185.236077 C240.48895,203.137601 244.811919,218.351126 250.769856,226.276569 L252.626516,228.715166 L252.70965,230.959785 L252.820495,233.232114 L224.832044,233.232114 L196.843593,233.232114 L196.954438,230.959785 L197.037572,228.715166 L198.894232,226.276569 C205.240128,217.824611 209.951055,200.227911 210.754684,181.799871 L210.948664,177.366057 L224.887467,177.366057 L238.798558,177.366057 L238.798558,179.333562 Z M259.33266,238.303289 C260.496536,238.802093 261.715835,240.298506 261.937525,241.462382 C262.020659,241.988897 262.076082,244.898588 262.020659,247.974546 C261.909814,254.098752 261.854391,254.320443 259.914598,255.761432 C259.13868,256.371082 259.000124,256.371082 224.832044,256.371082 C190.663964,256.371082 190.525408,256.371082 189.74949,255.761432 C187.754274,254.292731 187.726563,254.209597 187.726563,247.198629 C187.726563,240.18766 187.754274,240.104526 189.74949,238.635825 C190.525408,238.026176 190.691676,238.026176 224.499508,237.970753 C252.266268,237.915331 258.612165,237.970753 259.33266,238.303289 Z" class="icon" fill="#FFFFFF"></path>
            </g>
        </g>
    </g>
</svg>