<?xml version="1.0" encoding="UTF-8" standalone="no"?>
<svg viewBox="0 0 500 500" version="1.1" xmlns="http://www.w3.org/2000/svg" xmlns:xlink="http://www.w3.org/1999/xlink" width="100%" height="100%">
    <!-- Generator: Sketch 45.1 (43504) - http://www.bohemiancoding.com/sketch -->
    <title>seo</title>
    <desc>Created with Sketch.</desc>
    <defs></defs>
    <g id="Page-1" class="svgSprite" stroke="none" stroke-width="1" fill="none" fill-rule="evenodd">
        <g id="seo" transform="translate(38.000000, 58.000000)">
            <path d="M424.998652,47.9565852 C425.003322,41.2202244 424.993981,34.3733158 424.998652,27.3782261 C424.998652,12.2496393 412.851163,0 397.864122,0 L179.769759,0 L194.82919,47.9565852 L424.998652,47.9565852 Z M93.389951,39.4937967 C101.882919,39.4937967 108.766963,32.5481007 108.766963,23.9794686 C108.766963,15.4084844 101.882919,8.46278843 93.389951,8.46278843 C84.8969834,8.46278843 78.0129393,15.4084844 78.0129393,23.9794686 C78.0129393,32.5481007 84.8969834,39.4937967 93.389951,39.4937967 Z M140.877712,39.4937967 C149.37068,39.4937967 156.254724,32.5481007 156.254724,23.9794686 C156.254724,15.4084844 149.37068,8.46278843 140.877712,8.46278843 C132.384745,8.46278843 125.500701,15.4084844 125.500701,23.9794686 C125.498366,32.5481007 132.384745,39.4937967 140.877712,39.4937967 Z M44.4146943,39.4937967 C52.9076618,39.4937967 59.7917059,32.5481007 59.7917059,23.9794686 C59.7917059,15.4084844 52.9076618,8.46278843 44.4146943,8.46278843 C35.9217267,8.46278843 29.0376826,15.4084844 29.0376826,23.9794686 C29.0376826,32.5481007 35.9217267,39.4937967 44.4146943,39.4937967 Z M424.998652,61.8879626 L0,61.8879626 L0,283.858577 C0.00467031485,298.968347 12.1591647,311.213282 27.1438699,311.208578 C99.1118651,311.183489 189.144492,310.920064 297.24175,310.418301 L297.24175,392 L389.936278,311.152128 C420.143874,311.163888 425.04302,311.185057 424.998652,311.217986 C424.872553,311.307365 424.900575,228.196573 424.998652,61.8879626 Z" class="quote" fill="#CEE5F2" fill-rule="nonzero"></path>
            <path d="M240.577264,188.903605 L298.565462,246.891804 L278.651929,266.805338 L219.599302,207.752712 C210.437508,212.801046 199.813033,215.688457 188.484415,215.688457 C153.975225,215.688457 126,188.895283 126,155.844228 C126,122.793174 153.975225,96 188.484415,96 C222.993604,96 250.96883,122.793174 250.96883,155.844228 C250.96883,168.065803 247.143602,179.431698 240.577264,188.903605 L240.577264,188.903605 Z M188.484415,197.274848 C212.375392,197.274848 231.742856,178.725728 231.742856,155.844228 C231.742856,132.962729 212.375392,114.413609 188.484415,114.413609 C164.593438,114.413609 145.225974,132.962729 145.225974,155.844228 C145.225974,178.725728 164.593438,197.274848 188.484415,197.274848 Z M179.953263,164.046737 L179.953263,164.046737 L161.436068,164.046737 C157.614747,164.046737 154.516955,160.948945 154.516955,157.127624 L154.516955,154.872376 C154.516955,151.051055 157.614747,147.953263 161.436068,147.953263 L179.953263,147.953263 L179.953263,129.436068 C179.953263,125.614747 183.051055,122.516955 186.872376,122.516955 L189.127624,122.516955 C192.948945,122.516955 196.046737,125.614747 196.046737,129.436068 L196.046737,147.953263 L214.563932,147.953263 C218.385253,147.953263 221.483045,151.051055 221.483045,154.872376 L221.483045,157.127624 C221.483045,160.948945 218.385253,164.046737 214.563932,164.046737 L196.046737,164.046737 L196.046737,182.563932 C196.046737,186.385253 192.948945,189.483045 189.127624,189.483045 L186.872376,189.483045 C183.051055,189.483045 179.953263,186.385253 179.953263,182.563932 L179.953263,164.046737 Z" class="icon" fill="#FFFFFF"></path>
            <g id="invert" transform="translate(500.000000, 0.000000)">
                <path d="M424.998652,47.9565852 C425.003322,41.2202244 424.993981,34.3733158 424.998652,27.3782261 C424.998652,12.2496393 412.851163,0 397.864122,0 L179.769759,0 L194.82919,47.9565852 L424.998652,47.9565852 Z M93.389951,39.4937967 C101.882919,39.4937967 108.766963,32.5481007 108.766963,23.9794686 C108.766963,15.4084844 101.882919,8.46278843 93.389951,8.46278843 C84.8969834,8.46278843 78.0129393,15.4084844 78.0129393,23.9794686 C78.0129393,32.5481007 84.8969834,39.4937967 93.389951,39.4937967 Z M140.877712,39.4937967 C149.37068,39.4937967 156.254724,32.5481007 156.254724,23.9794686 C156.254724,15.4084844 149.37068,8.46278843 140.877712,8.46278843 C132.384745,8.46278843 125.500701,15.4084844 125.500701,23.9794686 C125.498366,32.5481007 132.384745,39.4937967 140.877712,39.4937967 Z M44.4146943,39.4937967 C52.9076618,39.4937967 59.7917059,32.5481007 59.7917059,23.9794686 C59.7917059,15.4084844 52.9076618,8.46278843 44.4146943,8.46278843 C35.9217267,8.46278843 29.0376826,15.4084844 29.0376826,23.9794686 C29.0376826,32.5481007 35.9217267,39.4937967 44.4146943,39.4937967 Z M0.000296836478,61.8879626 L424.998949,61.8879626 L424.998949,283.858577 C424.994278,298.968347 412.839784,311.213282 397.855079,311.208578 C325.887084,311.183489 235.854457,310.920064 127.757198,310.418301 L127.757198,392 L35.0626709,311.152128 C4.85507439,311.163888 -0.0440711546,311.185057 0.000296836478,311.217986 C0.126395338,311.307365 0.0983734484,228.196573 0.000296836478,61.8879626 Z" class="quote" fill="#CEE5F2" fill-rule="nonzero"></path>
                <path d="M240.577264,188.903605 L298.565462,246.891804 L278.651929,266.805338 L219.599302,207.752712 C210.437508,212.801046 199.813033,215.688457 188.484415,215.688457 C153.975225,215.688457 126,188.895283 126,155.844228 C126,122.793174 153.975225,96 188.484415,96 C222.993604,96 250.96883,122.793174 250.96883,155.844228 C250.96883,168.065803 247.143602,179.431698 240.577264,188.903605 L240.577264,188.903605 Z M188.484415,197.274848 C212.375392,197.274848 231.742856,178.725728 231.742856,155.844228 C231.742856,132.962729 212.375392,114.413609 188.484415,114.413609 C164.593438,114.413609 145.225974,132.962729 145.225974,155.844228 C145.225974,178.725728 164.593438,197.274848 188.484415,197.274848 Z M179.953263,164.046737 L179.953263,164.046737 L161.436068,164.046737 C157.614747,164.046737 154.516955,160.948945 154.516955,157.127624 L154.516955,154.872376 C154.516955,151.051055 157.614747,147.953263 161.436068,147.953263 L179.953263,147.953263 L179.953263,129.436068 C179.953263,125.614747 183.051055,122.516955 186.872376,122.516955 L189.127624,122.516955 C192.948945,122.516955 196.046737,125.614747 196.046737,129.436068 L196.046737,147.953263 L214.563932,147.953263 C218.385253,147.953263 221.483045,151.051055 221.483045,154.872376 L221.483045,157.127624 C221.483045,160.948945 218.385253,164.046737 214.563932,164.046737 L196.046737,164.046737 L196.046737,182.563932 C196.046737,186.385253 192.948945,189.483045 189.127624,189.483045 L186.872376,189.483045 C183.051055,189.483045 179.953263,186.385253 179.953263,182.563932 L179.953263,164.046737 Z" class="icon" fill="#FFFFFF"></path>
            </g>
        </g>
    </g>
</svg>