<?xml version="1.0" encoding="UTF-8" standalone="no"?>
<svg viewBox="0 0 500 500" version="1.1" xmlns="http://www.w3.org/2000/svg" xmlns:xlink="http://www.w3.org/1999/xlink" width="100%" height="100%">
    <!-- Generator: Sketch 45.1 (43504) - http://www.bohemiancoding.com/sketch -->
    <title>usability</title>
    <desc>Created with Sketch.</desc>
    <defs></defs>
    <g id="Page-1" class="svgSprite" stroke="none" stroke-width="1" fill="none" fill-rule="evenodd">
        <g id="usability" transform="translate(38.000000, 58.000000)">
            <path d="M424.998652,47.9565852 C425.003322,41.2202244 424.993981,34.3733158 424.998652,27.3782261 C424.998652,12.2496393 412.851163,0 397.864122,0 L179.769759,0 L194.82919,47.9565852 L424.998652,47.9565852 Z M93.389951,39.4937967 C101.882919,39.4937967 108.766963,32.5481007 108.766963,23.9794686 C108.766963,15.4084844 101.882919,8.46278843 93.389951,8.46278843 C84.8969834,8.46278843 78.0129393,15.4084844 78.0129393,23.9794686 C78.0129393,32.5481007 84.8969834,39.4937967 93.389951,39.4937967 Z M140.877712,39.4937967 C149.37068,39.4937967 156.254724,32.5481007 156.254724,23.9794686 C156.254724,15.4084844 149.37068,8.46278843 140.877712,8.46278843 C132.384745,8.46278843 125.500701,15.4084844 125.500701,23.9794686 C125.498366,32.5481007 132.384745,39.4937967 140.877712,39.4937967 Z M44.4146943,39.4937967 C52.9076618,39.4937967 59.7917059,32.5481007 59.7917059,23.9794686 C59.7917059,15.4084844 52.9076618,8.46278843 44.4146943,8.46278843 C35.9217267,8.46278843 29.0376826,15.4084844 29.0376826,23.9794686 C29.0376826,32.5481007 35.9217267,39.4937967 44.4146943,39.4937967 Z M424.998652,61.8879626 L0,61.8879626 L0,283.858577 C0.00467031485,298.968347 12.1591647,311.213282 27.1438699,311.208578 C99.1118651,311.183489 189.144492,310.920064 297.24175,310.418301 L297.24175,392 L389.936278,311.152128 C420.143874,311.163888 425.04302,311.185057 424.998652,311.217986 C424.872553,311.307365 424.900575,228.196573 424.998652,61.8879626 Z" class="quote" fill="#CEE5F2" fill-rule="nonzero"></path>
            <path d="M335.105447,185.316816 L322.927089,173.138457 C319.773605,169.984974 314.660798,169.984974 311.507314,173.138457 L309.646206,174.999565 C306.492723,178.153049 306.492723,183.265856 309.646206,186.41934 L329.243008,206.016142 C330.668848,207.441982 332.495247,208.223132 334.359982,208.359591 C336.706794,208.613222 339.143508,207.84052 340.942541,206.041487 L380.885197,166.098831 C384.038681,162.945347 384.038681,157.83254 380.885197,154.679056 L379.024089,152.817948 C375.870606,149.664465 370.757799,149.664465 367.604315,152.817948 L335.105447,185.316816 Z M68.7659154,176.1195 L53.4848957,191.40052 C50.3314121,194.554004 50.3314121,199.666811 53.4848957,202.820295 L55.3460036,204.681403 C58.4994872,207.834886 63.6122945,207.834886 66.7657781,204.681403 L82.0467978,189.400383 L97.3278175,204.681403 C100.481301,207.834886 105.594108,207.834886 108.747592,204.681403 L110.6087,202.820295 C113.762184,199.666811 113.762184,194.554004 110.6087,191.40052 L95.3276802,176.1195 L110.6087,160.838481 C113.762184,157.684997 113.762184,152.57219 110.6087,149.418706 L108.747592,147.557598 C105.594108,144.404115 100.481301,144.404115 97.3278175,147.557598 L82.0467978,162.838618 L66.7657781,147.557598 C63.6122945,144.404115 58.4994872,144.404115 55.3460036,147.557598 L53.4848957,149.418706 C50.3314121,152.57219 50.3314121,157.684997 53.4848957,160.838481 L68.7659154,176.1195 Z M81.8976426,227.917452 C53.2353661,227.917452 30,204.664335 30,175.980163 C30,147.29599 53.2353661,124.042873 81.8976426,124.042873 C110.559919,124.042873 133.795285,147.29599 133.795285,175.980163 C133.795285,204.664335 110.559919,227.917452 81.8976426,227.917452 Z M212.047643,226.874579 C183.385366,226.874579 160.15,203.621462 160.15,174.937289 C160.15,146.253117 183.385366,123 212.047643,123 C240.709919,123 263.945285,146.253117 263.945285,174.937289 C263.945285,203.621462 240.709919,226.874579 212.047643,226.874579 Z M210.330635,136.719284 C205.870935,136.719284 202.255635,140.334585 202.255635,144.794284 L202.255635,177.305826 C202.255635,181.765526 205.870935,185.380826 210.330635,185.380826 L212.78545,185.380826 C217.245149,185.380826 220.86045,181.765526 220.86045,177.305826 L220.86045,144.794284 C220.86045,140.334585 217.245149,136.719284 212.78545,136.719284 L210.330635,136.719284 Z M210.330635,194.536267 C205.870935,194.536267 202.255635,198.151567 202.255635,202.611267 L202.255635,204.914737 C202.255635,209.374436 205.870935,212.989737 210.330635,212.989737 L212.78545,212.989737 C217.245149,212.989737 220.86045,209.374436 220.86045,204.914737 L220.86045,202.611267 C220.86045,198.151567 217.245149,194.536267 212.78545,194.536267 L210.330635,194.536267 Z M341.247643,226.874579 C312.585366,226.874579 289.35,203.621462 289.35,174.937289 C289.35,146.253117 312.585366,123 341.247643,123 C369.909919,123 393.145285,146.253117 393.145285,174.937289 C393.145285,203.621462 369.909919,226.874579 341.247643,226.874579 Z" class="icon" fill="#FFFFFF"></path>
            <g id="invert" transform="translate(500.000000, 0.000000)">
                <path d="M424.998652,47.9565852 C425.003322,41.2202244 424.993981,34.3733158 424.998652,27.3782261 C424.998652,12.2496393 412.851163,0 397.864122,0 L179.769759,0 L194.82919,47.9565852 L424.998652,47.9565852 Z M93.389951,39.4937967 C101.882919,39.4937967 108.766963,32.5481007 108.766963,23.9794686 C108.766963,15.4084844 101.882919,8.46278843 93.389951,8.46278843 C84.8969834,8.46278843 78.0129393,15.4084844 78.0129393,23.9794686 C78.0129393,32.5481007 84.8969834,39.4937967 93.389951,39.4937967 Z M140.877712,39.4937967 C149.37068,39.4937967 156.254724,32.5481007 156.254724,23.9794686 C156.254724,15.4084844 149.37068,8.46278843 140.877712,8.46278843 C132.384745,8.46278843 125.500701,15.4084844 125.500701,23.9794686 C125.498366,32.5481007 132.384745,39.4937967 140.877712,39.4937967 Z M44.4146943,39.4937967 C52.9076618,39.4937967 59.7917059,32.5481007 59.7917059,23.9794686 C59.7917059,15.4084844 52.9076618,8.46278843 44.4146943,8.46278843 C35.9217267,8.46278843 29.0376826,15.4084844 29.0376826,23.9794686 C29.0376826,32.5481007 35.9217267,39.4937967 44.4146943,39.4937967 Z M0.000296836478,61.8879626 L424.998949,61.8879626 L424.998949,283.858577 C424.994278,298.968347 412.839784,311.213282 397.855079,311.208578 C325.887084,311.183489 235.854457,310.920064 127.757198,310.418301 L127.757198,392 L35.0626709,311.152128 C4.85507439,311.163888 -0.0440711546,311.185057 0.000296836478,311.217986 C0.126395338,311.307365 0.0983734484,228.196573 0.000296836478,61.8879626 Z" class="quote" fill="#CEE5F2" fill-rule="nonzero"></path>
                <path d="M335.105447,185.316816 L322.927089,173.138457 C319.773605,169.984974 314.660798,169.984974 311.507314,173.138457 L309.646206,174.999565 C306.492723,178.153049 306.492723,183.265856 309.646206,186.41934 L329.243008,206.016142 C330.668848,207.441982 332.495247,208.223132 334.359982,208.359591 C336.706794,208.613222 339.143508,207.84052 340.942541,206.041487 L380.885197,166.098831 C384.038681,162.945347 384.038681,157.83254 380.885197,154.679056 L379.024089,152.817948 C375.870606,149.664465 370.757799,149.664465 367.604315,152.817948 L335.105447,185.316816 Z M68.7659154,176.1195 L53.4848957,191.40052 C50.3314121,194.554004 50.3314121,199.666811 53.4848957,202.820295 L55.3460036,204.681403 C58.4994872,207.834886 63.6122945,207.834886 66.7657781,204.681403 L82.0467978,189.400383 L97.3278175,204.681403 C100.481301,207.834886 105.594108,207.834886 108.747592,204.681403 L110.6087,202.820295 C113.762184,199.666811 113.762184,194.554004 110.6087,191.40052 L95.3276802,176.1195 L110.6087,160.838481 C113.762184,157.684997 113.762184,152.57219 110.6087,149.418706 L108.747592,147.557598 C105.594108,144.404115 100.481301,144.404115 97.3278175,147.557598 L82.0467978,162.838618 L66.7657781,147.557598 C63.6122945,144.404115 58.4994872,144.404115 55.3460036,147.557598 L53.4848957,149.418706 C50.3314121,152.57219 50.3314121,157.684997 53.4848957,160.838481 L68.7659154,176.1195 Z M81.8976426,227.917452 C53.2353661,227.917452 30,204.664335 30,175.980163 C30,147.29599 53.2353661,124.042873 81.8976426,124.042873 C110.559919,124.042873 133.795285,147.29599 133.795285,175.980163 C133.795285,204.664335 110.559919,227.917452 81.8976426,227.917452 Z M212.047643,226.874579 C183.385366,226.874579 160.15,203.621462 160.15,174.937289 C160.15,146.253117 183.385366,123 212.047643,123 C240.709919,123 263.945285,146.253117 263.945285,174.937289 C263.945285,203.621462 240.709919,226.874579 212.047643,226.874579 Z M210.330635,136.719284 C205.870935,136.719284 202.255635,140.334585 202.255635,144.794284 L202.255635,177.305826 C202.255635,181.765526 205.870935,185.380826 210.330635,185.380826 L212.78545,185.380826 C217.245149,185.380826 220.86045,181.765526 220.86045,177.305826 L220.86045,144.794284 C220.86045,140.334585 217.245149,136.719284 212.78545,136.719284 L210.330635,136.719284 Z M210.330635,194.536267 C205.870935,194.536267 202.255635,198.151567 202.255635,202.611267 L202.255635,204.914737 C202.255635,209.374436 205.870935,212.989737 210.330635,212.989737 L212.78545,212.989737 C217.245149,212.989737 220.86045,209.374436 220.86045,204.914737 L220.86045,202.611267 C220.86045,198.151567 217.245149,194.536267 212.78545,194.536267 L210.330635,194.536267 Z M341.247643,226.874579 C312.585366,226.874579 289.35,203.621462 289.35,174.937289 C289.35,146.253117 312.585366,123 341.247643,123 C369.909919,123 393.145285,146.253117 393.145285,174.937289 C393.145285,203.621462 369.909919,226.874579 341.247643,226.874579 Z" class="icon" fill="#FFFFFF"></path>
            </g>
        </g>
    </g>
</svg>