<svg xmlns="http://www.w3.org/2000/svg" width="100%" height="100%" viewBox="0 0 1966 1500"><style>.hex{fill:#0B3954}.hex.select{fill:#CEE5F2;animation:hexActive 3s ease forwards}@keyframes hexActive{0%{opacity:.5;}25%{opacity:1;}100%{opacity:.1;}}</style><g class="grid" transform="translate(-81 -54)"><polygon class="hex-1-0 hex" points="64 0 119.43 32 119.43 96 64 128 8.57 96 8.57 32"/><polygon class="hex-3-0 hex" points="179 0 234.43 32 234.43 96 179 128 123.57 96 123.57 32"/><polygon class="hex-5-0 hex" points="294 0 349.43 32 349.43 96 294 128 238.57 96 238.57 32"/><polygon class="hex-7-0 hex" points="409 0 464.43 32 464.43 96 409 128 353.57 96 353.57 32"/><polygon class="hex-9-0 hex" points="524 0 579.43 32 579.43 96 524 128 468.57 96 468.57 32"/><polygon class="hex-11-0 hex" points="639 0 694.43 32 694.43 96 639 128 583.57 96 583.57 32"/><polygon class="hex-13-0 hex" points="754 0 809.43 32 809.43 96 754 128 698.57 96 698.57 32"/><polygon class="hex-15-0 hex" points="869 0 924.43 32 924.43 96 869 128 813.57 96 813.57 32"/><polygon class="hex-17-0 hex" points="984 0 1039.43 32 1039.43 96 984 128 928.57 96 928.57 32"/><polygon class="hex-19-0 hex" points="1099 0 1154.43 32 1154.43 96 1099 128 1043.57 96 1043.57 32"/><polygon class="hex-21-0 hex" points="1214 0 1269.43 32 1269.43 96 1214 128 1158.57 96 1158.57 32"/><polygon class="hex-23-0 hex" points="1329 0 1384.43 32 1384.43 96 1329 128 1273.57 96 1273.57 32"/><polygon class="hex-25-0 hex" points="1444 0 1499.43 32 1499.43 96 1444 128 1388.57 96 1388.57 32"/><polygon class="hex-27-0 hex" points="1559 0 1614.43 32 1614.43 96 1559 128 1503.57 96 1503.57 32"/><polygon class="hex-29-0 hex" points="1674 0 1729.43 32 1729.43 96 1674 128 1618.57 96 1618.57 32"/><polygon class="hex-31-0 hex" points="1789 0 1844.43 32 1844.43 96 1789 128 1733.57 96 1733.57 32"/><polygon class="hex-33-0 hex" points="1904 0 1959.43 32 1959.43 96 1904 128 1848.57 96 1848.57 32"/><polygon class="hex-35-0 hex" points="2020 0 2075.43 32 2075.43 96 2020 128 1964.57 96 1964.57 32"/><polygon class="hex-1-4 hex" points="64 800 119.43 832 119.43 896 64 928 8.57 896 8.57 832"/><polygon class="hex-3-4 hex" points="179 800 234.43 832 234.43 896 179 928 123.57 896 123.57 832"/><polygon class="hex-5-4 hex" points="294 800 349.43 832 349.43 896 294 928 238.57 896 238.57 832"/><polygon class="hex-7-4 hex" points="409 800 464.43 832 464.43 896 409 928 353.57 896 353.57 832"/><polygon class="hex-9-4 hex" points="524 800 579.43 832 579.43 896 524 928 468.57 896 468.57 832"/><polygon class="hex-11-4 hex" points="639 800 694.43 832 694.43 896 639 928 583.57 896 583.57 832"/><polygon class="hex-13-4 hex" points="754 800 809.43 832 809.43 896 754 928 698.57 896 698.57 832"/><polygon class="hex-15-4 hex" points="869 800 924.43 832 924.43 896 869 928 813.57 896 813.57 832"/><polygon class="hex-17-4 hex" points="984 800 1039.43 832 1039.43 896 984 928 928.57 896 928.57 832"/><polygon class="hex-19-4 hex" points="1099 800 1154.43 832 1154.43 896 1099 928 1043.57 896 1043.57 832"/><polygon class="hex-21-4 hex" points="1214 800 1269.43 832 1269.43 896 1214 928 1158.57 896 1158.57 832"/><polygon class="hex-23-4 hex" points="1329 800 1384.43 832 1384.43 896 1329 928 1273.57 896 1273.57 832"/><polygon class="hex-25-4 hex" points="1444 800 1499.43 832 1499.43 896 1444 928 1388.57 896 1388.57 832"/><polygon class="hex-27-4 hex" points="1559 800 1614.43 832 1614.43 896 1559 928 1503.57 896 1503.57 832"/><polygon class="hex-29-4 hex" points="1674 800 1729.43 832 1729.43 896 1674 928 1618.57 896 1618.57 832"/><polygon class="hex-31-4 hex" points="1789 800 1844.43 832 1844.43 896 1789 928 1733.57 896 1733.57 832"/><polygon class="hex-33-4 hex" points="1904 800 1959.43 832 1959.43 896 1904 928 1848.57 896 1848.57 832"/><polygon class="hex-35-4 hex" points="2020 800 2075.43 832 2075.43 896 2020 928 1964.57 896 1964.57 832"/><polygon class="hex-1-2 hex" points="64 400 119.43 432 119.43 496 64 528 8.57 496 8.57 432"/><polygon class="hex-3-2 hex" points="179 400 234.43 432 234.43 496 179 528 123.57 496 123.57 432"/><polygon class="hex-5-2 hex" points="294 400 349.43 432 349.43 496 294 528 238.57 496 238.57 432"/><polygon class="hex-7-2 hex" points="409 400 464.43 432 464.43 496 409 528 353.57 496 353.57 432"/><polygon class="hex-9-2 hex" points="524 400 579.43 432 579.43 496 524 528 468.57 496 468.57 432"/><polygon class="hex-11-2 hex" points="639 400 694.43 432 694.43 496 639 528 583.57 496 583.57 432"/><polygon class="hex-13-2 hex" points="754 400 809.43 432 809.43 496 754 528 698.57 496 698.57 432"/><polygon class="hex-15-2 hex" points="869 400 924.43 432 924.43 496 869 528 813.57 496 813.57 432"/><polygon class="hex-17-2 hex" points="984 400 1039.43 432 1039.43 496 984 528 928.57 496 928.57 432"/><polygon class="hex-19-2 hex" points="1099 400 1154.43 432 1154.43 496 1099 528 1043.57 496 1043.57 432"/><polygon class="hex-21-2 hex" points="1214 400 1269.43 432 1269.43 496 1214 528 1158.57 496 1158.57 432"/><polygon class="hex-23-2 hex" points="1329 400 1384.43 432 1384.43 496 1329 528 1273.57 496 1273.57 432"/><polygon class="hex-25-2 hex" points="1444 400 1499.43 432 1499.43 496 1444 528 1388.57 496 1388.57 432"/><polygon class="hex-27-2 hex" points="1559 400 1614.43 432 1614.43 496 1559 528 1503.57 496 1503.57 432"/><polygon class="hex-29-2 hex" points="1674 400 1729.43 432 1729.43 496 1674 528 1618.57 496 1618.57 432"/><polygon class="hex-31-2 hex" points="1789 400 1844.43 432 1844.43 496 1789 528 1733.57 496 1733.57 432"/><polygon class="hex-33-2 hex" points="1904 400 1959.43 432 1959.43 496 1904 528 1848.57 496 1848.57 432"/><polygon class="hex-35-2 hex" points="2020 400 2075.43 432 2075.43 496 2020 528 1964.57 496 1964.57 432"/><polygon class="hex-1-6 hex" points="64 1200 119.43 1232 119.43 1296 64 1328 8.57 1296 8.57 1232"/><polygon class="hex-3-6 hex" points="179 1200 234.43 1232 234.43 1296 179 1328 123.57 1296 123.57 1232"/><polygon class="hex-5-6 hex" points="294 1200 349.43 1232 349.43 1296 294 1328 238.57 1296 238.57 1232"/><polygon class="hex-7-6 hex" points="409 1200 464.43 1232 464.43 1296 409 1328 353.57 1296 353.57 1232"/><polygon class="hex-9-6 hex" points="524 1200 579.43 1232 579.43 1296 524 1328 468.57 1296 468.57 1232"/><polygon class="hex-11-6 hex" points="639 1200 694.43 1232 694.43 1296 639 1328 583.57 1296 583.57 1232"/><polygon class="hex-13-6 hex" points="754 1200 809.43 1232 809.43 1296 754 1328 698.57 1296 698.57 1232"/><polygon class="hex-15-6 hex" points="869 1200 924.43 1232 924.43 1296 869 1328 813.57 1296 813.57 1232"/><polygon class="hex-17-6 hex" points="984 1200 1039.43 1232 1039.43 1296 984 1328 928.57 1296 928.57 1232"/><polygon class="hex-19-6 hex" points="1099 1200 1154.43 1232 1154.43 1296 1099 1328 1043.57 1296 1043.57 1232"/><polygon class="hex-21-6 hex" points="1214 1200 1269.43 1232 1269.43 1296 1214 1328 1158.57 1296 1158.57 1232"/><polygon class="hex-23-6 hex" points="1329 1200 1384.43 1232 1384.43 1296 1329 1328 1273.57 1296 1273.57 1232"/><polygon class="hex-25-6 hex" points="1444 1200 1499.43 1232 1499.43 1296 1444 1328 1388.57 1296 1388.57 1232"/><polygon class="hex-27-6 hex" points="1559 1200 1614.43 1232 1614.43 1296 1559 1328 1503.57 1296 1503.57 1232"/><polygon class="hex-29-6 hex" points="1674 1200 1729.43 1232 1729.43 1296 1674 1328 1618.57 1296 1618.57 1232"/><polygon class="hex-31-6 hex" points="1789 1200 1844.43 1232 1844.43 1296 1789 1328 1733.57 1296 1733.57 1232"/><polygon class="hex-33-6 hex" points="1904 1200 1959.43 1232 1959.43 1296 1904 1328 1848.57 1296 1848.57 1232"/><polygon class="hex-35-6 hex" points="2020 1200 2075.43 1232 2075.43 1296 2020 1328 1964.57 1296 1964.57 1232"/><polygon class="hex-1-1 hex" points="64 200 119.43 232 119.43 296 64 328 8.57 296 8.57 232"/><polygon class="hex-3-1 hex" points="179 200 234.43 232 234.43 296 179 328 123.57 296 123.57 232"/><polygon class="hex-5-1 hex" points="294 200 349.43 232 349.43 296 294 328 238.57 296 238.57 232"/><polygon class="hex-7-1 hex" points="409 200 464.43 232 464.43 296 409 328 353.57 296 353.57 232"/><polygon class="hex-9-1 hex" points="524 200 579.43 232 579.43 296 524 328 468.57 296 468.57 232"/><polygon class="hex-11-1 hex" points="639 200 694.43 232 694.43 296 639 328 583.57 296 583.57 232"/><polygon class="hex-13-1 hex" points="754 200 809.43 232 809.43 296 754 328 698.57 296 698.57 232"/><polygon class="hex-15-1 hex" points="869 200 924.43 232 924.43 296 869 328 813.57 296 813.57 232"/><polygon class="hex-17-1 hex" points="984 200 1039.43 232 1039.43 296 984 328 928.57 296 928.57 232"/><polygon class="hex-19-1 hex" points="1099 200 1154.43 232 1154.43 296 1099 328 1043.57 296 1043.57 232"/><polygon class="hex-21-1 hex" points="1214 200 1269.43 232 1269.43 296 1214 328 1158.57 296 1158.57 232"/><polygon class="hex-23-1 hex" points="1329 200 1384.43 232 1384.43 296 1329 328 1273.57 296 1273.57 232"/><polygon class="hex-25-1 hex" points="1444 200 1499.43 232 1499.43 296 1444 328 1388.57 296 1388.57 232"/><polygon class="hex-27-1 hex" points="1559 200 1614.43 232 1614.43 296 1559 328 1503.57 296 1503.57 232"/><polygon class="hex-29-1 hex" points="1674 200 1729.43 232 1729.43 296 1674 328 1618.57 296 1618.57 232"/><polygon class="hex-31-1 hex" points="1789 200 1844.43 232 1844.43 296 1789 328 1733.57 296 1733.57 232"/><polygon class="hex-33-1 hex" points="1904 200 1959.43 232 1959.43 296 1904 328 1848.57 296 1848.57 232"/><polygon class="hex-35-1 hex" points="2020 200 2075.43 232 2075.43 296 2020 328 1964.57 296 1964.57 232"/><polygon class="hex-1-5 hex" points="64 1000 119.43 1032 119.43 1096 64 1128 8.57 1096 8.57 1032"/><polygon class="hex-3-5 hex" points="179 1000 234.43 1032 234.43 1096 179 1128 123.57 1096 123.57 1032"/><polygon class="hex-5-5 hex" points="294 1000 349.43 1032 349.43 1096 294 1128 238.57 1096 238.57 1032"/><polygon class="hex-7-5 hex" points="409 1000 464.43 1032 464.43 1096 409 1128 353.57 1096 353.57 1032"/><polygon class="hex-9-5 hex" points="524 1000 579.43 1032 579.43 1096 524 1128 468.57 1096 468.57 1032"/><polygon class="hex-11-5 hex" points="639 1000 694.43 1032 694.43 1096 639 1128 583.57 1096 583.57 1032"/><polygon class="hex-13-5 hex" points="754 1000 809.43 1032 809.43 1096 754 1128 698.57 1096 698.57 1032"/><polygon class="hex-15-5 hex" points="869 1000 924.43 1032 924.43 1096 869 1128 813.57 1096 813.57 1032"/><polygon class="hex-17-5 hex" points="984 1000 1039.43 1032 1039.43 1096 984 1128 928.57 1096 928.57 1032"/><polygon class="hex-19-5 hex" points="1099 1000 1154.43 1032 1154.43 1096 1099 1128 1043.57 1096 1043.57 1032"/><polygon class="hex-21-5 hex" points="1214 1000 1269.43 1032 1269.43 1096 1214 1128 1158.57 1096 1158.57 1032"/><polygon class="hex-23-5 hex" points="1329 1000 1384.43 1032 1384.43 1096 1329 1128 1273.57 1096 1273.57 1032"/><polygon class="hex-25-5 hex" points="1444 1000 1499.43 1032 1499.43 1096 1444 1128 1388.57 1096 1388.57 1032"/><polygon class="hex-27-5 hex" points="1559 1000 1614.43 1032 1614.43 1096 1559 1128 1503.57 1096 1503.57 1032"/><polygon class="hex-29-5 hex" points="1674 1000 1729.43 1032 1729.43 1096 1674 1128 1618.57 1096 1618.57 1032"/><polygon class="hex-31-5 hex" points="1789 1000 1844.43 1032 1844.43 1096 1789 1128 1733.57 1096 1733.57 1032"/><polygon class="hex-33-5 hex" points="1904 1000 1959.43 1032 1959.43 1096 1904 1128 1848.57 1096 1848.57 1032"/><polygon class="hex-35-5 hex" points="2020 1000 2075.43 1032 2075.43 1096 2020 1128 1964.57 1096 1964.57 1032"/><polygon class="hex-1-7 hex" points="64 1400 119.43 1432 119.43 1496 64 1528 8.57 1496 8.57 1432"/><polygon class="hex-3-7 hex" points="179 1400 234.43 1432 234.43 1496 179 1528 123.57 1496 123.57 1432"/><polygon class="hex-5-7 hex" points="294 1400 349.43 1432 349.43 1496 294 1528 238.57 1496 238.57 1432"/><polygon class="hex-7-7 hex" points="409 1400 464.43 1432 464.43 1496 409 1528 353.57 1496 353.57 1432"/><polygon class="hex-9-7 hex" points="524 1400 579.43 1432 579.43 1496 524 1528 468.57 1496 468.57 1432"/><polygon class="hex-11-7 hex" points="639 1400 694.43 1432 694.43 1496 639 1528 583.57 1496 583.57 1432"/><polygon class="hex-13-7 hex" points="754 1400 809.43 1432 809.43 1496 754 1528 698.57 1496 698.57 1432"/><polygon class="hex-15-7 hex" points="869 1400 924.43 1432 924.43 1496 869 1528 813.57 1496 813.57 1432"/><polygon class="hex-17-7 hex" points="984 1400 1039.43 1432 1039.43 1496 984 1528 928.57 1496 928.57 1432"/><polygon class="hex-19-7 hex" points="1099 1400 1154.43 1432 1154.43 1496 1099 1528 1043.57 1496 1043.57 1432"/><polygon class="hex-21-7 hex" points="1214 1400 1269.43 1432 1269.43 1496 1214 1528 1158.57 1496 1158.57 1432"/><polygon class="hex-23-7 hex" points="1329 1400 1384.43 1432 1384.43 1496 1329 1528 1273.57 1496 1273.57 1432"/><polygon class="hex-25-7 hex" points="1444 1400 1499.43 1432 1499.43 1496 1444 1528 1388.57 1496 1388.57 1432"/><polygon class="hex-27-7 hex" points="1559 1400 1614.43 1432 1614.43 1496 1559 1528 1503.57 1496 1503.57 1432"/><polygon class="hex-29-7 hex" points="1674 1400 1729.43 1432 1729.43 1496 1674 1528 1618.57 1496 1618.57 1432"/><polygon class="hex-31-7 hex" points="1789 1400 1844.43 1432 1844.43 1496 1789 1528 1733.57 1496 1733.57 1432"/><polygon class="hex-33-7 hex" points="1904 1400 1959.43 1432 1959.43 1496 1904 1528 1848.57 1496 1848.57 1432"/><polygon class="hex-35-7 hex" points="2020 1400 2075.43 1432 2075.43 1496 2020 1528 1964.57 1496 1964.57 1432"/><polygon class="hex-2-0 hex" points="122 100 177.43 132 177.43 196 122 228 66.57 196 66.57 132"/><polygon class="hex-1-3 hex" points="64 600 119.43 632 119.43 696 64 728 8.57 696 8.57 632"/><polygon class="hex-3-3 hex" points="179 600 234.43 632 234.43 696 179 728 123.57 696 123.57 632"/><polygon class="hex-5-3 hex" points="294 600 349.43 632 349.43 696 294 728 238.57 696 238.57 632"/><polygon class="hex-7-3 hex" points="409 600 464.43 632 464.43 696 409 728 353.57 696 353.57 632"/><polygon class="hex-9-3 hex" points="524 600 579.43 632 579.43 696 524 728 468.57 696 468.57 632"/><polygon class="hex-11-3 hex" points="639 600 694.43 632 694.43 696 639 728 583.57 696 583.57 632"/><polygon class="hex-13-3 hex" points="754 600 809.43 632 809.43 696 754 728 698.57 696 698.57 632"/><polygon class="hex-15-3 hex" points="869 600 924.43 632 924.43 696 869 728 813.57 696 813.57 632"/><polygon class="hex-17-3 hex" points="984 600 1039.43 632 1039.43 696 984 728 928.57 696 928.57 632"/><polygon class="hex-19-3 hex" points="1099 600 1154.43 632 1154.43 696 1099 728 1043.57 696 1043.57 632"/><polygon class="hex-21-3 hex" points="1214 600 1269.43 632 1269.43 696 1214 728 1158.57 696 1158.57 632"/><polygon class="hex-23-3 hex" points="1329 600 1384.43 632 1384.43 696 1329 728 1273.57 696 1273.57 632"/><polygon class="hex-25-3 hex" points="1444 600 1499.43 632 1499.43 696 1444 728 1388.57 696 1388.57 632"/><polygon class="hex-27-3 hex" points="1559 600 1614.43 632 1614.43 696 1559 728 1503.57 696 1503.57 632"/><polygon class="hex-29-3 hex" points="1674 600 1729.43 632 1729.43 696 1674 728 1618.57 696 1618.57 632"/><polygon class="hex-31-3 hex" points="1789 600 1844.43 632 1844.43 696 1789 728 1733.57 696 1733.57 632"/><polygon class="hex-33-3 hex" points="1904 600 1959.43 632 1959.43 696 1904 728 1848.57 696 1848.57 632"/><polygon class="hex-35-3 hex" points="2020 600 2075.43 632 2075.43 696 2020 728 1964.57 696 1964.57 632"/><polygon class="hex-4-0 hex" points="237 100 292.43 132 292.43 196 237 228 181.57 196 181.57 132"/><polygon class="hex-6-0 hex" points="352 100 407.43 132 407.43 196 352 228 296.57 196 296.57 132"/><polygon class="hex-8-0 hex" points="467 100 522.43 132 522.43 196 467 228 411.57 196 411.57 132"/><polygon class="hex-10-0 hex" points="582 100 637.43 132 637.43 196 582 228 526.57 196 526.57 132"/><polygon class="hex-12-0 hex" points="697 100 752.43 132 752.43 196 697 228 641.57 196 641.57 132"/><polygon class="hex-14-0 hex" points="812 100 867.43 132 867.43 196 812 228 756.57 196 756.57 132"/><polygon class="hex-16-0 hex" points="927 100 982.43 132 982.43 196 927 228 871.57 196 871.57 132"/><polygon class="hex-18-0 hex" points="1042 100 1097.43 132 1097.43 196 1042 228 986.57 196 986.57 132"/><polygon class="hex-20-0 hex" points="1157 100 1212.43 132 1212.43 196 1157 228 1101.57 196 1101.57 132"/><polygon class="hex-22-0 hex" points="1272 100 1327.43 132 1327.43 196 1272 228 1216.57 196 1216.57 132"/><polygon class="hex-24-0 hex" points="1387 100 1442.43 132 1442.43 196 1387 228 1331.57 196 1331.57 132"/><polygon class="hex-26-0 hex" points="1502 100 1557.43 132 1557.43 196 1502 228 1446.57 196 1446.57 132"/><polygon class="hex-28-0 hex" points="1617 100 1672.43 132 1672.43 196 1617 228 1561.57 196 1561.57 132"/><polygon class="hex-30-0 hex" points="1732 100 1787.43 132 1787.43 196 1732 228 1676.57 196 1676.57 132"/><polygon class="hex-32-0 hex" points="1847 100 1902.43 132 1902.43 196 1847 228 1791.57 196 1791.57 132"/><polygon class="hex-34-0 hex" points="1962 100 2017.43 132 2017.43 196 1962 228 1906.57 196 1906.57 132"/><polygon class="hex-36-0 hex" points="2078 100 2133.43 132 2133.43 196 2078 228 2022.57 196 2022.57 132"/><polygon class="hex-2-4 hex" points="122 900 177.43 932 177.43 996 122 1028 66.57 996 66.57 932"/><polygon class="hex-4-4 hex" points="237 900 292.43 932 292.43 996 237 1028 181.57 996 181.57 932"/><polygon class="hex-6-4 hex" points="352 900 407.43 932 407.43 996 352 1028 296.57 996 296.57 932"/><polygon class="hex-8-4 hex" points="467 900 522.43 932 522.43 996 467 1028 411.57 996 411.57 932"/><polygon class="hex-10-4 hex" points="582 900 637.43 932 637.43 996 582 1028 526.57 996 526.57 932"/><polygon class="hex-12-4 hex" points="697 900 752.43 932 752.43 996 697 1028 641.57 996 641.57 932"/><polygon class="hex-14-4 hex" points="812 900 867.43 932 867.43 996 812 1028 756.57 996 756.57 932"/><polygon class="hex-16-4 hex" points="927 900 982.43 932 982.43 996 927 1028 871.57 996 871.57 932"/><polygon class="hex-18-4 hex" points="1042 900 1097.43 932 1097.43 996 1042 1028 986.57 996 986.57 932"/><polygon class="hex-20-4 hex" points="1157 900 1212.43 932 1212.43 996 1157 1028 1101.57 996 1101.57 932"/><polygon class="hex-22-4 hex" points="1272 900 1327.43 932 1327.43 996 1272 1028 1216.57 996 1216.57 932"/><polygon class="hex-24-4 hex" points="1387 900 1442.43 932 1442.43 996 1387 1028 1331.57 996 1331.57 932"/><polygon class="hex-26-4 hex" points="1502 900 1557.43 932 1557.43 996 1502 1028 1446.57 996 1446.57 932"/><polygon class="hex-28-4 hex" points="1617 900 1672.43 932 1672.43 996 1617 1028 1561.57 996 1561.57 932"/><polygon class="hex-30-4 hex" points="1732 900 1787.43 932 1787.43 996 1732 1028 1676.57 996 1676.57 932"/><polygon class="hex-32-4 hex" points="1847 900 1902.43 932 1902.43 996 1847 1028 1791.57 996 1791.57 932"/><polygon class="hex-34-4 hex" points="1962 900 2017.43 932 2017.43 996 1962 1028 1906.57 996 1906.57 932"/><polygon class="hex-36-4 hex" points="2078 900 2133.43 932 2133.43 996 2078 1028 2022.57 996 2022.57 932"/><polygon class="hex-2-2 hex" points="122 500 177.43 532 177.43 596 122 628 66.57 596 66.57 532"/><polygon class="hex-4-2 hex" points="237 500 292.43 532 292.43 596 237 628 181.57 596 181.57 532"/><polygon class="hex-6-2 hex" points="352 500 407.43 532 407.43 596 352 628 296.57 596 296.57 532"/><polygon class="hex-8-2 hex" points="467 500 522.43 532 522.43 596 467 628 411.57 596 411.57 532"/><polygon class="hex-10-2 hex" points="582 500 637.43 532 637.43 596 582 628 526.57 596 526.57 532"/><polygon class="hex-12-2 hex" points="697 500 752.43 532 752.43 596 697 628 641.57 596 641.57 532"/><polygon class="hex-14-2 hex" points="812 500 867.43 532 867.43 596 812 628 756.57 596 756.57 532"/><polygon class="hex-16-2 hex" points="927 500 982.43 532 982.43 596 927 628 871.57 596 871.57 532"/><polygon class="hex-18-2 hex" points="1042 500 1097.43 532 1097.43 596 1042 628 986.57 596 986.57 532"/><polygon class="hex-20-2 hex" points="1157 500 1212.43 532 1212.43 596 1157 628 1101.57 596 1101.57 532"/><polygon class="hex-22-2 hex" points="1272 500 1327.43 532 1327.43 596 1272 628 1216.57 596 1216.57 532"/><polygon class="hex-24-2 hex" points="1387 500 1442.43 532 1442.43 596 1387 628 1331.57 596 1331.57 532"/><polygon class="hex-26-2 hex" points="1502 500 1557.43 532 1557.43 596 1502 628 1446.57 596 1446.57 532"/><polygon class="hex-28-2 hex" points="1617 500 1672.43 532 1672.43 596 1617 628 1561.57 596 1561.57 532"/><polygon class="hex-30-2 hex" points="1732 500 1787.43 532 1787.43 596 1732 628 1676.57 596 1676.57 532"/><polygon class="hex-32-2 hex" points="1847 500 1902.43 532 1902.43 596 1847 628 1791.57 596 1791.57 532"/><polygon class="hex-34-2 hex" points="1962 500 2017.43 532 2017.43 596 1962 628 1906.57 596 1906.57 532"/><polygon class="hex-36-2 hex" points="2078 500 2133.43 532 2133.43 596 2078 628 2022.57 596 2022.57 532"/><polygon class="hex-2-6 hex" points="122 1300 177.43 1332 177.43 1396 122 1428 66.57 1396 66.57 1332"/><polygon class="hex-4-6 hex" points="237 1300 292.43 1332 292.43 1396 237 1428 181.57 1396 181.57 1332"/><polygon class="hex-6-6 hex" points="352 1300 407.43 1332 407.43 1396 352 1428 296.57 1396 296.57 1332"/><polygon class="hex-8-6 hex" points="467 1300 522.43 1332 522.43 1396 467 1428 411.57 1396 411.57 1332"/><polygon class="hex-10-6 hex" points="582 1300 637.43 1332 637.43 1396 582 1428 526.57 1396 526.57 1332"/><polygon class="hex-12-6 hex" points="697 1300 752.43 1332 752.43 1396 697 1428 641.57 1396 641.57 1332"/><polygon class="hex-14-6 hex" points="812 1300 867.43 1332 867.43 1396 812 1428 756.57 1396 756.57 1332"/><polygon class="hex-16-6 hex" points="927 1300 982.43 1332 982.43 1396 927 1428 871.57 1396 871.57 1332"/><polygon class="hex-18-6 hex" points="1042 1300 1097.43 1332 1097.43 1396 1042 1428 986.57 1396 986.57 1332"/><polygon class="hex-20-6 hex" points="1157 1300 1212.43 1332 1212.43 1396 1157 1428 1101.57 1396 1101.57 1332"/><polygon class="hex-22-6 hex" points="1272 1300 1327.43 1332 1327.43 1396 1272 1428 1216.57 1396 1216.57 1332"/><polygon class="hex-24-6 hex" points="1387 1300 1442.43 1332 1442.43 1396 1387 1428 1331.57 1396 1331.57 1332"/><polygon class="hex-26-6 hex" points="1502 1300 1557.43 1332 1557.43 1396 1502 1428 1446.57 1396 1446.57 1332"/><polygon class="hex-28-6 hex" points="1617 1300 1672.43 1332 1672.43 1396 1617 1428 1561.57 1396 1561.57 1332"/><polygon class="hex-30-6 hex" points="1732 1300 1787.43 1332 1787.43 1396 1732 1428 1676.57 1396 1676.57 1332"/><polygon class="hex-32-6 hex" points="1847 1300 1902.43 1332 1902.43 1396 1847 1428 1791.57 1396 1791.57 1332"/><polygon class="hex-34-6 hex" points="1962 1300 2017.43 1332 2017.43 1396 1962 1428 1906.57 1396 1906.57 1332"/><polygon class="hex-36-6 hex" points="2078 1300 2133.43 1332 2133.43 1396 2078 1428 2022.57 1396 2022.57 1332"/><polygon class="hex-2-7 hex" points="121 1500 176.43 1532 176.43 1596 121 1628 65.57 1596 65.57 1532"/><polygon class="hex-2-5 hex" points="122 1100 177.43 1132 177.43 1196 122 1228 66.57 1196 66.57 1132"/><polygon class="hex-2-1 hex" points="122 300 177.43 332 177.43 396 122 428 66.57 396 66.57 332"/><polygon class="hex-4-1 hex" points="237 300 292.43 332 292.43 396 237 428 181.57 396 181.57 332"/><polygon class="hex-6-1 hex" points="352 300 407.43 332 407.43 396 352 428 296.57 396 296.57 332"/><polygon class="hex-8-1 hex" points="467 300 522.43 332 522.43 396 467 428 411.57 396 411.57 332"/><polygon class="hex-10-1 hex" points="582 300 637.43 332 637.43 396 582 428 526.57 396 526.57 332"/><polygon class="hex-12-1 hex" points="697 300 752.43 332 752.43 396 697 428 641.57 396 641.57 332"/><polygon class="hex-14-1 hex" points="812 300 867.43 332 867.43 396 812 428 756.57 396 756.57 332"/><polygon class="hex-16-1 hex" points="927 300 982.43 332 982.43 396 927 428 871.57 396 871.57 332"/><polygon class="hex-18-1 hex" points="1042 300 1097.43 332 1097.43 396 1042 428 986.57 396 986.57 332"/><polygon class="hex-20-1 hex" points="1157 300 1212.43 332 1212.43 396 1157 428 1101.57 396 1101.57 332"/><polygon class="hex-22-1 hex" points="1272 300 1327.43 332 1327.43 396 1272 428 1216.57 396 1216.57 332"/><polygon class="hex-24-1 hex" points="1387 300 1442.43 332 1442.43 396 1387 428 1331.57 396 1331.57 332"/><polygon class="hex-26-1 hex" points="1502 300 1557.43 332 1557.43 396 1502 428 1446.57 396 1446.57 332"/><polygon class="hex-28-1 hex" points="1617 300 1672.43 332 1672.43 396 1617 428 1561.57 396 1561.57 332"/><polygon class="hex-30-1 hex" points="1732 300 1787.43 332 1787.43 396 1732 428 1676.57 396 1676.57 332"/><polygon class="hex-32-1 hex" points="1847 300 1902.43 332 1902.43 396 1847 428 1791.57 396 1791.57 332"/><polygon class="hex-34-1 hex" points="1962 300 2017.43 332 2017.43 396 1962 428 1906.57 396 1906.57 332"/><polygon class="hex-36-1 hex" points="2078 300 2133.43 332 2133.43 396 2078 428 2022.57 396 2022.57 332"/><polygon class="hex-4-5 hex" points="237 1100 292.43 1132 292.43 1196 237 1228 181.57 1196 181.57 1132"/><polygon class="hex-6-5 hex" points="352 1100 407.43 1132 407.43 1196 352 1228 296.57 1196 296.57 1132"/><polygon class="hex-8-5 hex" points="467 1100 522.43 1132 522.43 1196 467 1228 411.57 1196 411.57 1132"/><polygon class="hex-10-5 hex" points="582 1100 637.43 1132 637.43 1196 582 1228 526.57 1196 526.57 1132"/><polygon class="hex-12-5 hex" points="697 1100 752.43 1132 752.43 1196 697 1228 641.57 1196 641.57 1132"/><polygon class="hex-14-5 hex" points="812 1100 867.43 1132 867.43 1196 812 1228 756.57 1196 756.57 1132"/><polygon class="hex-16-5 hex" points="927 1100 982.43 1132 982.43 1196 927 1228 871.57 1196 871.57 1132"/><polygon class="hex-18-5 hex" points="1042 1100 1097.43 1132 1097.43 1196 1042 1228 986.57 1196 986.57 1132"/><polygon class="hex-20-5 hex" points="1157 1100 1212.43 1132 1212.43 1196 1157 1228 1101.57 1196 1101.57 1132"/><polygon class="hex-22-5 hex" points="1272 1100 1327.43 1132 1327.43 1196 1272 1228 1216.57 1196 1216.57 1132"/><polygon class="hex-24-5 hex" points="1387 1100 1442.43 1132 1442.43 1196 1387 1228 1331.57 1196 1331.57 1132"/><polygon class="hex-26-5 hex" points="1502 1100 1557.43 1132 1557.43 1196 1502 1228 1446.57 1196 1446.57 1132"/><polygon class="hex-28-5 hex" points="1617 1100 1672.43 1132 1672.43 1196 1617 1228 1561.57 1196 1561.57 1132"/><polygon class="hex-30-5 hex" points="1732 1100 1787.43 1132 1787.43 1196 1732 1228 1676.57 1196 1676.57 1132"/><polygon class="hex-32-5 hex" points="1847 1100 1902.43 1132 1902.43 1196 1847 1228 1791.57 1196 1791.57 1132"/><polygon class="hex-34-5 hex" points="1962.43 1100 2017.85 1132 2017.85 1196 1962.43 1228 1907 1196 1907 1132"/><polygon class="hex-36-5 hex" points="2078.43 1100 2133.85 1132 2133.85 1196 2078.43 1228 2023 1196 2023 1132"/><polygon class="hex-2-3 hex" points="122 700 177.43 732 177.43 796 122 828 66.57 796 66.57 732"/><polygon class="hex-4-3 hex" points="237 700 292.43 732 292.43 796 237 828 181.57 796 181.57 732"/><polygon class="hex-6-3 hex" points="352 700 407.43 732 407.43 796 352 828 296.57 796 296.57 732"/><polygon class="hex-8-3 hex" points="467 700 522.43 732 522.43 796 467 828 411.57 796 411.57 732"/><polygon class="hex-10-3 hex" points="582 700 637.43 732 637.43 796 582 828 526.57 796 526.57 732"/><polygon class="hex-12-3 hex" points="697 700 752.43 732 752.43 796 697 828 641.57 796 641.57 732"/><polygon class="hex-14-3 hex" points="812 700 867.43 732 867.43 796 812 828 756.57 796 756.57 732"/><polygon class="hex-16-3 hex" points="927 700 982.43 732 982.43 796 927 828 871.57 796 871.57 732"/><polygon class="hex-18-3 hex" points="1042 700 1097.43 732 1097.43 796 1042 828 986.57 796 986.57 732"/><polygon class="hex-20-3 hex" points="1157 700 1212.43 732 1212.43 796 1157 828 1101.57 796 1101.57 732"/><polygon class="hex-22-3 hex" points="1272 700 1327.43 732 1327.43 796 1272 828 1216.57 796 1216.57 732"/><polygon class="hex-24-3 hex" points="1387 700 1442.43 732 1442.43 796 1387 828 1331.57 796 1331.57 732"/><polygon class="hex-26-3 hex" points="1502 700 1557.43 732 1557.43 796 1502 828 1446.57 796 1446.57 732"/><polygon class="hex-28-3 hex" points="1617 700 1672.43 732 1672.43 796 1617 828 1561.57 796 1561.57 732"/><polygon class="hex-30-3 hex" points="1732 700 1787.43 732 1787.43 796 1732 828 1676.57 796 1676.57 732"/><polygon class="hex-32-3 hex" points="1847 700 1902.43 732 1902.43 796 1847 828 1791.57 796 1791.57 732"/><polygon class="hex-34-3 hex" points="1962 700 2017.43 732 2017.43 796 1962 828 1906.57 796 1906.57 732"/><polygon class="hex-36-3 hex" points="2078 700 2133.43 732 2133.43 796 2078 828 2022.57 796 2022.57 732"/><polygon class="hex-4-7 hex" points="236 1500 291.43 1532 291.43 1596 236 1628 180.57 1596 180.57 1532"/><polygon class="hex-6-7 hex" points="351 1500 406.43 1532 406.43 1596 351 1628 295.57 1596 295.57 1532"/><polygon class="hex-8-7 hex" points="466 1500 521.43 1532 521.43 1596 466 1628 410.57 1596 410.57 1532"/><polygon class="hex-10-7 hex" points="581 1500 636.43 1532 636.43 1596 581 1628 525.57 1596 525.57 1532"/><polygon class="hex-12-7 hex" points="696 1500 751.43 1532 751.43 1596 696 1628 640.57 1596 640.57 1532"/><polygon class="hex-14-7 hex" points="811 1500 866.43 1532 866.43 1596 811 1628 755.57 1596 755.57 1532"/><polygon class="hex-16-7 hex" points="926 1500 981.43 1532 981.43 1596 926 1628 870.57 1596 870.57 1532"/><polygon class="hex-18-7 hex" points="1041 1500 1096.43 1532 1096.43 1596 1041 1628 985.57 1596 985.57 1532"/><polygon class="hex-20-7 hex" points="1156 1500 1211.43 1532 1211.43 1596 1156 1628 1100.57 1596 1100.57 1532"/><polygon class="hex-22-7 hex" points="1271 1500 1326.43 1532 1326.43 1596 1271 1628 1215.57 1596 1215.57 1532"/><polygon class="hex-24-7 hex" points="1386 1500 1441.43 1532 1441.43 1596 1386 1628 1330.57 1596 1330.57 1532"/><polygon class="hex-26-7 hex" points="1501 1500 1556.43 1532 1556.43 1596 1501 1628 1445.57 1596 1445.57 1532"/><polygon class="hex-28-7 hex" points="1616 1500 1671.43 1532 1671.43 1596 1616 1628 1560.57 1596 1560.57 1532"/><polygon class="hex-30-7 hex" points="1731 1500 1786.43 1532 1786.43 1596 1731 1628 1675.57 1596 1675.57 1532"/><polygon class="hex-32-7 hex" points="1846 1500 1901.43 1532 1901.43 1596 1846 1628 1790.57 1596 1790.57 1532"/><polygon class="hex-34-7 hex" points="1961 1500 2016.43 1532 2016.43 1596 1961 1628 1905.57 1596 1905.57 1532"/><polygon class="hex-36-7 hex" points="2077 1500 2132.43 1532 2132.43 1596 2077 1628 2021.57 1596 2021.57 1532"/></g></svg>