<?xml version="1.0" encoding="UTF-8" standalone="no"?>
<svg viewBox="0 0 500 500" version="1.1" xmlns="http://www.w3.org/2000/svg" xmlns:xlink="http://www.w3.org/1999/xlink">
    <!-- Generator: Sketch 45.1 (43504) - http://www.bohemiancoding.com/sketch -->
    <title>Slice</title>
    <desc>Created with Sketch.</desc>
    <defs></defs>
    <g id="categoryIcons" class="svgSprite" stroke="none" stroke-width="1" fill="none" fill-rule="evenodd">
        <g class="section content-strategy" transform="translate(38.000000, 2558.000000)">
            <path d="M424.998652,47.9565852 C425.003322,41.2202244 424.993981,34.3733158 424.998652,27.3782261 C424.998652,12.2496393 412.851163,0 397.864122,0 L179.769759,0 L194.82919,47.9565852 L424.998652,47.9565852 Z M93.389951,39.4937967 C101.882919,39.4937967 108.766963,32.5481007 108.766963,23.9794686 C108.766963,15.4084844 101.882919,8.46278843 93.389951,8.46278843 C84.8969834,8.46278843 78.0129393,15.4084844 78.0129393,23.9794686 C78.0129393,32.5481007 84.8969834,39.4937967 93.389951,39.4937967 Z M140.877712,39.4937967 C149.37068,39.4937967 156.254724,32.5481007 156.254724,23.9794686 C156.254724,15.4084844 149.37068,8.46278843 140.877712,8.46278843 C132.384745,8.46278843 125.500701,15.4084844 125.500701,23.9794686 C125.498366,32.5481007 132.384745,39.4937967 140.877712,39.4937967 Z M44.4146943,39.4937967 C52.9076618,39.4937967 59.7917059,32.5481007 59.7917059,23.9794686 C59.7917059,15.4084844 52.9076618,8.46278843 44.4146943,8.46278843 C35.9217267,8.46278843 29.0376826,15.4084844 29.0376826,23.9794686 C29.0376826,32.5481007 35.9217267,39.4937967 44.4146943,39.4937967 Z M424.998652,61.8879626 L0,61.8879626 L0,283.858577 C0.00467031485,298.968347 12.1591647,311.213282 27.1438699,311.208578 C99.1118651,311.183489 189.144492,310.920064 297.24175,310.418301 L297.24175,392 L389.936278,311.152128 C420.143874,311.163888 425.04302,311.185057 424.998652,311.217986 C424.872553,311.307365 424.900575,228.196573 424.998652,61.8879626 Z" class="quote" fill="#CEE5F2" fill-rule="nonzero"></path>
            <path d="M262.185799,93.5111136 L154.350503,93.5111136 L154.350503,277.918574 L301.876059,277.918574 L301.876059,133.845936 L268.452301,133.845936 L268.452301,133.858916 L262.185799,133.858916 L262.185799,93.5111136 Z M268.452301,95.0226268 L268.452301,127.458907 L300.276486,127.458907 L268.452301,95.0226268 Z M310.226562,125.563827 L310.226562,286.429687 L146,286.429687 L146,85 L270.428202,85 L310.226562,125.563827 Z M229.487549,123.827752 L229.487549,126.155505 L231.815301,126.155505 L234.143053,126.155505 L234.143053,130.81101 L234.143053,135.466514 L231.815301,135.466514 L229.487549,135.466514 L229.487549,137.794267 L229.487549,140.122019 L232.036992,140.122019 C236.165981,140.122019 241.181733,140.648534 243.17695,141.258184 C246.613156,142.338926 247.804743,144.140163 248.026434,148.546266 C248.192702,152.093317 247.305939,155.723502 245.199877,160.129605 C244.396249,161.792285 243.731176,163.233275 243.731176,163.288698 C243.731176,163.34412 244.728785,163.399543 245.920372,163.399543 L248.109568,163.399543 L248.109568,168.055048 L248.109568,172.710552 L224.832044,172.710552 L201.55452,172.710552 L201.55452,168.055048 L201.55452,163.399543 L203.743716,163.399543 C204.935303,163.399543 205.9052,163.34412 205.9052,163.288698 C205.9052,163.233275 205.350973,161.958553 204.630479,160.462141 C202.275015,155.418678 201.360541,151.73307 201.637654,147.992039 C201.803922,145.359462 202.302726,144.08474 203.605159,142.810019 C205.212417,141.258184 207.484746,140.731669 214.274024,140.34371 L220.176539,140.011174 L220.176539,137.738844 L220.176539,135.466514 L217.848787,135.466514 L215.521034,135.466514 L215.521034,130.81101 L215.521034,126.155505 L217.848787,126.155505 L220.176539,126.155505 L220.176539,123.827752 L220.176539,121.5 L224.832044,121.5 L229.487549,121.5 L229.487549,123.827752 Z M238.798558,179.333562 C238.798558,180.442016 238.937115,183.074593 239.103383,185.236077 C240.48895,203.137601 244.811919,218.351126 250.769856,226.276569 L252.626516,228.715166 L252.70965,230.959785 L252.820495,233.232114 L224.832044,233.232114 L196.843593,233.232114 L196.954438,230.959785 L197.037572,228.715166 L198.894232,226.276569 C205.240128,217.824611 209.951055,200.227911 210.754684,181.799871 L210.948664,177.366057 L224.887467,177.366057 L238.798558,177.366057 L238.798558,179.333562 Z M259.33266,238.303289 C260.496536,238.802093 261.715835,240.298506 261.937525,241.462382 C262.020659,241.988897 262.076082,244.898588 262.020659,247.974546 C261.909814,254.098752 261.854391,254.320443 259.914598,255.761432 C259.13868,256.371082 259.000124,256.371082 224.832044,256.371082 C190.663964,256.371082 190.525408,256.371082 189.74949,255.761432 C187.754274,254.292731 187.726563,254.209597 187.726563,247.198629 C187.726563,240.18766 187.754274,240.104526 189.74949,238.635825 C190.525408,238.026176 190.691676,238.026176 224.499508,237.970753 C252.266268,237.915331 258.612165,237.970753 259.33266,238.303289 Z" class="icon" fill="#FFFFFF"></path>
            <g class="invert" transform="translate(500.000000, 0.000000)">
                <path d="M424.998652,47.9565852 C425.003322,41.2202244 424.993981,34.3733158 424.998652,27.3782261 C424.998652,12.2496393 412.851163,0 397.864122,0 L179.769759,0 L194.82919,47.9565852 L424.998652,47.9565852 Z M93.389951,39.4937967 C101.882919,39.4937967 108.766963,32.5481007 108.766963,23.9794686 C108.766963,15.4084844 101.882919,8.46278843 93.389951,8.46278843 C84.8969834,8.46278843 78.0129393,15.4084844 78.0129393,23.9794686 C78.0129393,32.5481007 84.8969834,39.4937967 93.389951,39.4937967 Z M140.877712,39.4937967 C149.37068,39.4937967 156.254724,32.5481007 156.254724,23.9794686 C156.254724,15.4084844 149.37068,8.46278843 140.877712,8.46278843 C132.384745,8.46278843 125.500701,15.4084844 125.500701,23.9794686 C125.498366,32.5481007 132.384745,39.4937967 140.877712,39.4937967 Z M44.4146943,39.4937967 C52.9076618,39.4937967 59.7917059,32.5481007 59.7917059,23.9794686 C59.7917059,15.4084844 52.9076618,8.46278843 44.4146943,8.46278843 C35.9217267,8.46278843 29.0376826,15.4084844 29.0376826,23.9794686 C29.0376826,32.5481007 35.9217267,39.4937967 44.4146943,39.4937967 Z M0.000296836478,61.8879626 L424.998949,61.8879626 L424.998949,283.858577 C424.994278,298.968347 412.839784,311.213282 397.855079,311.208578 C325.887084,311.183489 235.854457,310.920064 127.757198,310.418301 L127.757198,392 L35.0626709,311.152128 C4.85507439,311.163888 -0.0440711546,311.185057 0.000296836478,311.217986 C0.126395338,311.307365 0.0983734484,228.196573 0.000296836478,61.8879626 Z" class="quote" fill="#CEE5F2" fill-rule="nonzero"></path>
                <path d="M262.185799,93.5111136 L154.350503,93.5111136 L154.350503,277.918574 L301.876059,277.918574 L301.876059,133.845936 L268.452301,133.845936 L268.452301,133.858916 L262.185799,133.858916 L262.185799,93.5111136 Z M268.452301,95.0226268 L268.452301,127.458907 L300.276486,127.458907 L268.452301,95.0226268 Z M310.226562,125.563827 L310.226562,286.429687 L146,286.429687 L146,85 L270.428202,85 L310.226562,125.563827 Z M229.487549,123.827752 L229.487549,126.155505 L231.815301,126.155505 L234.143053,126.155505 L234.143053,130.81101 L234.143053,135.466514 L231.815301,135.466514 L229.487549,135.466514 L229.487549,137.794267 L229.487549,140.122019 L232.036992,140.122019 C236.165981,140.122019 241.181733,140.648534 243.17695,141.258184 C246.613156,142.338926 247.804743,144.140163 248.026434,148.546266 C248.192702,152.093317 247.305939,155.723502 245.199877,160.129605 C244.396249,161.792285 243.731176,163.233275 243.731176,163.288698 C243.731176,163.34412 244.728785,163.399543 245.920372,163.399543 L248.109568,163.399543 L248.109568,168.055048 L248.109568,172.710552 L224.832044,172.710552 L201.55452,172.710552 L201.55452,168.055048 L201.55452,163.399543 L203.743716,163.399543 C204.935303,163.399543 205.9052,163.34412 205.9052,163.288698 C205.9052,163.233275 205.350973,161.958553 204.630479,160.462141 C202.275015,155.418678 201.360541,151.73307 201.637654,147.992039 C201.803922,145.359462 202.302726,144.08474 203.605159,142.810019 C205.212417,141.258184 207.484746,140.731669 214.274024,140.34371 L220.176539,140.011174 L220.176539,137.738844 L220.176539,135.466514 L217.848787,135.466514 L215.521034,135.466514 L215.521034,130.81101 L215.521034,126.155505 L217.848787,126.155505 L220.176539,126.155505 L220.176539,123.827752 L220.176539,121.5 L224.832044,121.5 L229.487549,121.5 L229.487549,123.827752 Z M238.798558,179.333562 C238.798558,180.442016 238.937115,183.074593 239.103383,185.236077 C240.48895,203.137601 244.811919,218.351126 250.769856,226.276569 L252.626516,228.715166 L252.70965,230.959785 L252.820495,233.232114 L224.832044,233.232114 L196.843593,233.232114 L196.954438,230.959785 L197.037572,228.715166 L198.894232,226.276569 C205.240128,217.824611 209.951055,200.227911 210.754684,181.799871 L210.948664,177.366057 L224.887467,177.366057 L238.798558,177.366057 L238.798558,179.333562 Z M259.33266,238.303289 C260.496536,238.802093 261.715835,240.298506 261.937525,241.462382 C262.020659,241.988897 262.076082,244.898588 262.020659,247.974546 C261.909814,254.098752 261.854391,254.320443 259.914598,255.761432 C259.13868,256.371082 259.000124,256.371082 224.832044,256.371082 C190.663964,256.371082 190.525408,256.371082 189.74949,255.761432 C187.754274,254.292731 187.726563,254.209597 187.726563,247.198629 C187.726563,240.18766 187.754274,240.104526 189.74949,238.635825 C190.525408,238.026176 190.691676,238.026176 224.499508,237.970753 C252.266268,237.915331 258.612165,237.970753 259.33266,238.303289 Z" class="icon" fill="#FFFFFF"></path>
            </g>
        </g>
        <g class="section ppc" transform="translate(38.000000, 2058.000000)">
            <path d="M424.998652,47.9565852 C425.003322,41.2202244 424.993981,34.3733158 424.998652,27.3782261 C424.998652,12.2496393 412.851163,0 397.864122,0 L179.769759,0 L194.82919,47.9565852 L424.998652,47.9565852 Z M93.389951,39.4937967 C101.882919,39.4937967 108.766963,32.5481007 108.766963,23.9794686 C108.766963,15.4084844 101.882919,8.46278843 93.389951,8.46278843 C84.8969834,8.46278843 78.0129393,15.4084844 78.0129393,23.9794686 C78.0129393,32.5481007 84.8969834,39.4937967 93.389951,39.4937967 Z M140.877712,39.4937967 C149.37068,39.4937967 156.254724,32.5481007 156.254724,23.9794686 C156.254724,15.4084844 149.37068,8.46278843 140.877712,8.46278843 C132.384745,8.46278843 125.500701,15.4084844 125.500701,23.9794686 C125.498366,32.5481007 132.384745,39.4937967 140.877712,39.4937967 Z M44.4146943,39.4937967 C52.9076618,39.4937967 59.7917059,32.5481007 59.7917059,23.9794686 C59.7917059,15.4084844 52.9076618,8.46278843 44.4146943,8.46278843 C35.9217267,8.46278843 29.0376826,15.4084844 29.0376826,23.9794686 C29.0376826,32.5481007 35.9217267,39.4937967 44.4146943,39.4937967 Z M424.998652,61.8879626 L0,61.8879626 L0,283.858577 C0.00467031485,298.968347 12.1591647,311.213282 27.1438699,311.208578 C99.1118651,311.183489 189.144492,310.920064 297.24175,310.418301 L297.24175,392 L389.936278,311.152128 C420.143874,311.163888 425.04302,311.185057 424.998652,311.217986 C424.872553,311.307365 424.900575,228.196573 424.998652,61.8879626 Z" class="quote" fill="#CEE5F2" fill-rule="nonzero"></path>
            <path d="M192.122864,102.278439 C207.437016,103.918136 221.111471,109.455981 228.227138,116.881025 C232.341849,121.2123 233.950609,124.832009 233.950609,129.812975 C233.919671,142.621175 218.543643,153.139987 194.628816,156.728758 C189.338472,157.533138 174.612136,157.533138 169.290855,156.728758 C148.902923,153.665927 134.547839,145.529317 130.80438,134.917693 C130.216564,133.185183 130,131.978613 130,129.812975 C130,124.832009 131.608759,121.2123 135.723471,116.881025 C142.931951,109.33223 156.482655,103.918136 172.229935,102.278439 C175.849643,101.907187 188.503155,101.907187 192.122864,102.278439 Z M233.734045,140.393662 C233.857796,140.703039 233.950609,143.734932 233.950609,147.076201 C233.950609,152.273732 233.857796,153.511239 233.300917,155.274687 C232.434662,158.151891 230.454651,161.090971 227.484633,163.968175 C225.009619,166.381314 224.947743,166.412252 222.225227,167.000068 C215.604564,168.454139 207.127639,171.826346 201.342293,175.322304 C198.836341,176.869188 198.526964,176.962001 194.474127,177.51888 C188.688781,178.323259 174.735887,178.323259 169.290855,177.51888 C148.964799,174.486987 134.547839,166.319439 130.80438,155.707814 C130.061875,153.573114 130,152.985299 130,147.076201 C130,143.611181 130.123751,140.579288 130.278439,140.331787 C130.464065,140.053348 130.773442,140.548351 131.268445,141.847733 C135.228468,152.768735 151.965754,161.616912 172.508374,163.658798 C176.839649,164.091926 187.110959,164.091926 191.442235,163.658798 C207.220452,162.080977 220.709281,156.635945 228.041511,148.901525 C230.485588,146.302759 231.846846,144.137122 233.208104,140.610226 C233.486543,139.929597 233.548419,139.898659 233.734045,140.393662 Z M131.268445,162.637855 C133.960023,170.001023 142.870075,176.838251 154.997646,180.798274 C164.1552,183.799229 172.322748,184.912985 183.831565,184.727359 C187.6369,184.665484 190.761606,184.665484 190.761606,184.727359 C190.761606,184.758297 190.328478,185.438926 189.802538,186.18143 C187.667838,189.275198 186.151891,193.420848 185.687826,197.25712 L185.471262,199.175256 L179.0981,198.958693 C175.571204,198.86588 171.116178,198.556503 169.136167,198.278064 C149.181362,195.369922 134.547839,187.078623 130.80438,176.497936 C130.061875,174.363236 130,173.77542 130,167.866323 C130,164.401303 130.123751,161.36941 130.278439,161.121909 C130.464065,160.84347 130.773442,161.338472 131.268445,162.637855 Z M251.987277,171.331343 C262.042023,172.166661 272.777398,174.98199 279.985878,178.632636 C290.690316,184.04673 296.290036,190.976771 296.320974,198.804004 C296.320974,203.784971 294.712214,207.40468 290.597503,211.735955 C283.389023,219.284749 269.838319,224.698843 254.091039,226.33854 C250.100078,226.771668 238.591261,226.771668 234.6003,226.33854 C218.85302,224.698843 205.302316,219.284749 198.093836,211.735955 C193.979125,207.40468 192.370365,203.784971 192.370365,198.804004 C192.401303,186.05768 207.962956,175.38418 231.506532,171.919159 C234.971552,171.424156 248.33663,171.021967 251.987277,171.331343 Z M131.268445,183.427977 C133.960023,190.791145 142.870075,197.628372 154.997646,201.588396 C163.258007,204.310911 171.425555,205.548419 180.706859,205.548419 L185.533138,205.548419 L185.533138,212.756898 L185.533138,219.965378 L179.129038,219.748814 C175.602142,219.656001 171.116178,219.346625 169.136167,219.068185 C149.181362,216.160043 134.547839,207.868745 130.80438,197.288058 C130.061875,195.153358 130,194.565542 130,188.656445 C130,185.191425 130.123751,182.159532 130.278439,181.91203 C130.464065,181.633591 130.773442,182.128594 131.268445,183.427977 Z M131.268445,204.218098 C133.960023,211.581267 142.870075,218.418494 154.997646,222.378517 C163.258007,225.101033 171.425555,226.33854 180.706859,226.33854 L185.533138,226.33854 L185.533138,233.54702 L185.533138,240.7555 L179.129038,240.538936 C175.602142,240.446123 171.116178,240.136746 169.136167,239.858307 C149.181362,236.950165 134.547839,228.658867 130.80438,218.07818 C130.061875,215.94348 130,215.355664 130,209.446567 C130,205.981546 130.123751,202.949654 130.278439,202.702152 C130.464065,202.423713 130.773442,202.918716 131.268445,204.218098 Z M296.135348,209.66313 C296.228161,209.941569 296.320974,212.911587 296.320974,216.283794 C296.320974,221.481325 296.228161,222.687894 295.671282,224.451342 C294.743152,227.452297 293.350956,229.648872 290.597503,232.526077 C283.389023,240.074871 269.838319,245.488965 254.091039,247.128662 C250.100078,247.56179 238.591261,247.56179 234.6003,247.128662 C218.85302,245.488965 205.302316,240.074871 198.093836,232.526077 C195.340383,229.648872 193.948187,227.452297 193.020056,224.451342 C192.463178,222.687894 192.370365,221.481325 192.370365,216.160043 C192.370365,212.756898 192.494116,209.755943 192.648804,209.53938 C192.83443,209.230003 193.143807,209.725006 193.607872,211.024388 C197.50602,221.636013 212.387045,229.927311 232.651226,232.74264 C238.250946,233.516082 250.440393,233.516082 256.040113,232.74264 C276.273356,229.927311 291.185319,221.636013 295.052529,211.024388 C295.454719,210.003445 295.795033,209.13719 295.856909,209.13719 C295.887846,209.13719 296.011597,209.353754 296.135348,209.66313 Z M296.135348,230.453252 C296.228161,230.731691 296.320974,233.701709 296.320974,237.073916 C296.320974,242.271446 296.228161,243.478016 295.671282,245.241464 C294.743152,248.242419 293.350956,250.438994 290.597503,253.316198 C283.389023,260.864993 269.838319,266.279087 254.091039,267.918784 C250.100078,268.351911 238.591261,268.351911 234.6003,267.918784 C218.85302,266.279087 205.302316,260.864993 198.093836,253.316198 C195.340383,250.438994 193.948187,248.242419 193.020056,245.241464 C192.463178,243.478016 192.370365,242.271446 192.370365,236.950165 C192.370365,233.54702 192.494116,230.546065 192.648804,230.329501 C192.83443,230.020125 193.143807,230.515127 193.607872,231.81451 C197.50602,242.426135 212.387045,250.717433 232.651226,253.532762 C238.250946,254.306204 250.440393,254.306204 256.040113,253.532762 C276.273356,250.717433 291.185319,242.426135 295.052529,231.81451 C295.454719,230.793567 295.795033,229.927311 295.856909,229.927311 C295.887846,229.927311 296.011597,230.143875 296.135348,230.453252 Z" class="icon" fill="#FFFFFF"></path>
            <g class="invert" transform="translate(500.000000, 0.000000)">
                <path d="M424.998652,47.9565852 C425.003322,41.2202244 424.993981,34.3733158 424.998652,27.3782261 C424.998652,12.2496393 412.851163,0 397.864122,0 L179.769759,0 L194.82919,47.9565852 L424.998652,47.9565852 Z M93.389951,39.4937967 C101.882919,39.4937967 108.766963,32.5481007 108.766963,23.9794686 C108.766963,15.4084844 101.882919,8.46278843 93.389951,8.46278843 C84.8969834,8.46278843 78.0129393,15.4084844 78.0129393,23.9794686 C78.0129393,32.5481007 84.8969834,39.4937967 93.389951,39.4937967 Z M140.877712,39.4937967 C149.37068,39.4937967 156.254724,32.5481007 156.254724,23.9794686 C156.254724,15.4084844 149.37068,8.46278843 140.877712,8.46278843 C132.384745,8.46278843 125.500701,15.4084844 125.500701,23.9794686 C125.498366,32.5481007 132.384745,39.4937967 140.877712,39.4937967 Z M44.4146943,39.4937967 C52.9076618,39.4937967 59.7917059,32.5481007 59.7917059,23.9794686 C59.7917059,15.4084844 52.9076618,8.46278843 44.4146943,8.46278843 C35.9217267,8.46278843 29.0376826,15.4084844 29.0376826,23.9794686 C29.0376826,32.5481007 35.9217267,39.4937967 44.4146943,39.4937967 Z M0.000296836478,61.8879626 L424.998949,61.8879626 L424.998949,283.858577 C424.994278,298.968347 412.839784,311.213282 397.855079,311.208578 C325.887084,311.183489 235.854457,310.920064 127.757198,310.418301 L127.757198,392 L35.0626709,311.152128 C4.85507439,311.163888 -0.0440711546,311.185057 0.000296836478,311.217986 C0.126395338,311.307365 0.0983734484,228.196573 0.000296836478,61.8879626 Z" class="quote" fill="#CEE5F2" fill-rule="nonzero"></path>
                <path d="M233.734045,140.393662 C233.857796,140.703039 233.950609,143.734932 233.950609,147.076201 C233.950609,152.273732 233.857796,153.511239 233.300917,155.274687 C232.434662,158.151891 230.454651,161.090971 227.484633,163.968175 C225.009619,166.381314 224.947743,166.412252 222.225227,167.000068 C215.604564,168.454139 207.127639,171.826346 201.342293,175.322304 C198.836341,176.869188 198.526964,176.962001 194.474127,177.51888 C188.688781,178.323259 174.735887,178.323259 169.290855,177.51888 C148.964799,174.486987 134.547839,166.319439 130.80438,155.707814 C130.061875,153.573114 130,152.985299 130,147.076201 C130,143.611181 130.123751,140.579288 130.278439,140.331787 C130.464065,140.053348 130.773442,140.548351 131.268445,141.847733 C135.228468,152.768735 151.965754,161.616912 172.508374,163.658798 C176.839649,164.091926 187.110959,164.091926 191.442235,163.658798 C207.220452,162.080977 220.709281,156.635945 228.041511,148.901525 C230.485588,146.302759 231.846846,144.137122 233.208104,140.610226 C233.486543,139.929597 233.548419,139.898659 233.734045,140.393662 Z M131.268445,162.637855 C133.960023,170.001023 142.870075,176.838251 154.997646,180.798274 C164.1552,183.799229 172.322748,184.912985 183.831565,184.727359 C187.6369,184.665484 190.761606,184.665484 190.761606,184.727359 C190.761606,184.758297 190.328478,185.438926 189.802538,186.18143 C187.667838,189.275198 186.151891,193.420848 185.687826,197.25712 L185.471262,199.175256 L179.0981,198.958693 C175.571204,198.86588 171.116178,198.556503 169.136167,198.278064 C149.181362,195.369922 134.547839,187.078623 130.80438,176.497936 C130.061875,174.363236 130,173.77542 130,167.866323 C130,164.401303 130.123751,161.36941 130.278439,161.121909 C130.464065,160.84347 130.773442,161.338472 131.268445,162.637855 Z M251.987277,171.331343 C262.042023,172.166661 272.777398,174.98199 279.985878,178.632636 C290.690316,184.04673 296.290036,190.976771 296.320974,198.804004 C296.320974,203.784971 294.712214,207.40468 290.597503,211.735955 C283.389023,219.284749 269.838319,224.698843 254.091039,226.33854 C250.100078,226.771668 238.591261,226.771668 234.6003,226.33854 C218.85302,224.698843 205.302316,219.284749 198.093836,211.735955 C193.979125,207.40468 192.370365,203.784971 192.370365,198.804004 C192.401303,186.05768 207.962956,175.38418 231.506532,171.919159 C234.971552,171.424156 248.33663,171.021967 251.987277,171.331343 Z M131.268445,183.427977 C133.960023,190.791145 142.870075,197.628372 154.997646,201.588396 C163.258007,204.310911 171.425555,205.548419 180.706859,205.548419 L185.533138,205.548419 L185.533138,212.756898 L185.533138,219.965378 L179.129038,219.748814 C175.602142,219.656001 171.116178,219.346625 169.136167,219.068185 C149.181362,216.160043 134.547839,207.868745 130.80438,197.288058 C130.061875,195.153358 130,194.565542 130,188.656445 C130,185.191425 130.123751,182.159532 130.278439,181.91203 C130.464065,181.633591 130.773442,182.128594 131.268445,183.427977 Z M131.268445,204.218098 C133.960023,211.581267 142.870075,218.418494 154.997646,222.378517 C163.258007,225.101033 171.425555,226.33854 180.706859,226.33854 L185.533138,226.33854 L185.533138,233.54702 L185.533138,240.7555 L179.129038,240.538936 C175.602142,240.446123 171.116178,240.136746 169.136167,239.858307 C149.181362,236.950165 134.547839,228.658867 130.80438,218.07818 C130.061875,215.94348 130,215.355664 130,209.446567 C130,205.981546 130.123751,202.949654 130.278439,202.702152 C130.464065,202.423713 130.773442,202.918716 131.268445,204.218098 Z M296.135348,209.66313 C296.228161,209.941569 296.320974,212.911587 296.320974,216.283794 C296.320974,221.481325 296.228161,222.687894 295.671282,224.451342 C294.743152,227.452297 293.350956,229.648872 290.597503,232.526077 C283.389023,240.074871 269.838319,245.488965 254.091039,247.128662 C250.100078,247.56179 238.591261,247.56179 234.6003,247.128662 C218.85302,245.488965 205.302316,240.074871 198.093836,232.526077 C195.340383,229.648872 193.948187,227.452297 193.020056,224.451342 C192.463178,222.687894 192.370365,221.481325 192.370365,216.160043 C192.370365,212.756898 192.494116,209.755943 192.648804,209.53938 C192.83443,209.230003 193.143807,209.725006 193.607872,211.024388 C197.50602,221.636013 212.387045,229.927311 232.651226,232.74264 C238.250946,233.516082 250.440393,233.516082 256.040113,232.74264 C276.273356,229.927311 291.185319,221.636013 295.052529,211.024388 C295.454719,210.003445 295.795033,209.13719 295.856909,209.13719 C295.887846,209.13719 296.011597,209.353754 296.135348,209.66313 Z M296.135348,230.453252 C296.228161,230.731691 296.320974,233.701709 296.320974,237.073916 C296.320974,242.271446 296.228161,243.478016 295.671282,245.241464 C294.743152,248.242419 293.350956,250.438994 290.597503,253.316198 C283.389023,260.864993 269.838319,266.279087 254.091039,267.918784 C250.100078,268.351911 238.591261,268.351911 234.6003,267.918784 C218.85302,266.279087 205.302316,260.864993 198.093836,253.316198 C195.340383,250.438994 193.948187,248.242419 193.020056,245.241464 C192.463178,243.478016 192.370365,242.271446 192.370365,236.950165 C192.370365,233.54702 192.494116,230.546065 192.648804,230.329501 C192.83443,230.020125 193.143807,230.515127 193.607872,231.81451 C197.50602,242.426135 212.387045,250.717433 232.651226,253.532762 C238.250946,254.306204 250.440393,254.306204 256.040113,253.532762 C276.273356,250.717433 291.185319,242.426135 295.052529,231.81451 C295.454719,230.793567 295.795033,229.927311 295.856909,229.927311 C295.887846,229.927311 296.011597,230.143875 296.135348,230.453252 Z M192.122864,102.278439 C207.437016,103.918136 221.111471,109.455981 228.227138,116.881025 C232.341849,121.2123 233.950609,124.832009 233.950609,129.812975 C233.919671,142.621175 218.543643,153.139987 194.628816,156.728758 C189.338472,157.533138 174.612136,157.533138 169.290855,156.728758 C148.902923,153.665927 134.547839,145.529317 130.80438,134.917693 C130.216564,133.185183 130,131.978613 130,129.812975 C130,124.832009 131.608759,121.2123 135.723471,116.881025 C142.931951,109.33223 156.482655,103.918136 172.229935,102.278439 C175.849643,101.907187 188.503155,101.907187 192.122864,102.278439 Z" class="icon" fill="#FFFFFF"></path>
            </g>
        </g>
        <g class="section analytics" transform="translate(38.000000, 1558.000000)">
            <path d="M424.998652,47.9565852 C425.003322,41.2202244 424.993981,34.3733158 424.998652,27.3782261 C424.998652,12.2496393 412.851163,0 397.864122,0 L179.769759,0 L194.82919,47.9565852 L424.998652,47.9565852 Z M93.389951,39.4937967 C101.882919,39.4937967 108.766963,32.5481007 108.766963,23.9794686 C108.766963,15.4084844 101.882919,8.46278843 93.389951,8.46278843 C84.8969834,8.46278843 78.0129393,15.4084844 78.0129393,23.9794686 C78.0129393,32.5481007 84.8969834,39.4937967 93.389951,39.4937967 Z M140.877712,39.4937967 C149.37068,39.4937967 156.254724,32.5481007 156.254724,23.9794686 C156.254724,15.4084844 149.37068,8.46278843 140.877712,8.46278843 C132.384745,8.46278843 125.500701,15.4084844 125.500701,23.9794686 C125.498366,32.5481007 132.384745,39.4937967 140.877712,39.4937967 Z M44.4146943,39.4937967 C35.9217267,39.4937967 29.0376826,32.5481007 29.0376826,23.9794686 C29.0376826,15.4084844 35.9217267,8.46278843 44.4146943,8.46278843 C52.9076618,8.46278843 59.7917059,15.4084844 59.7917059,23.9794686 C59.7917059,32.5481007 52.9076618,39.4937967 44.4146943,39.4937967 Z M424.998652,61.8879626 C424.900575,228.196573 424.872553,311.307365 424.998652,311.217986 C425.04302,311.185057 420.143874,311.163888 389.936278,311.152128 L297.24175,392 L297.24175,310.418301 C189.144492,310.920064 99.1118651,311.183489 27.1438699,311.208578 C12.1591647,311.213282 0.00467031485,298.968347 1.0658141e-14,283.858577 L1.0658141e-14,61.8879626 L424.998652,61.8879626 Z" class="quote" fill="#CEE5F2" fill-rule="nonzero"></path>
            <path d="M160.799078,113.329767 L199.227072,185.210748 L199.201732,185.260482 L199.273101,185.296847 L201.149376,188.806488 L202.330142,188.175244 L202.330142,188.735233 L288.607002,188.735233 C285.709424,230.551402 251.612937,264.259981 208.796569,265.755161 C163.038761,267.353059 124.649375,231.554378 123.051478,185.796569 C121.99791,155.626346 137.202019,128.65945 160.799078,113.329767 L160.799078,113.329767 Z M166.83081,109.764904 C177.64761,103.975891 189.921411,100.508544 203.010069,100.051478 C215.841091,99.6034084 228.092729,102.095858 239.116235,106.923859 L203.100506,177.608707 L166.83081,109.764904 L166.83081,109.764904 Z M245.40432,110.001623 C270.357335,123.552595 287.692482,149.578926 288.755161,180.010069 C288.775284,180.586312 288.789476,181.161386 288.797792,181.735233 L208.85422,181.735233 L245.40432,110.001623 L245.40432,110.001623 Z" class="icon" fill="#FFFFFF"></path>
            <g class="invert" transform="translate(500.000000, 0.000000)">
                <path d="M424.998652,47.9565852 C425.003322,41.2202244 424.993981,34.3733158 424.998652,27.3782261 C424.998652,12.2496393 412.851163,0 397.864122,0 L179.769759,0 L194.82919,47.9565852 L424.998652,47.9565852 Z M93.389951,39.4937967 C101.882919,39.4937967 108.766963,32.5481007 108.766963,23.9794686 C108.766963,15.4084844 101.882919,8.46278843 93.389951,8.46278843 C84.8969834,8.46278843 78.0129393,15.4084844 78.0129393,23.9794686 C78.0129393,32.5481007 84.8969834,39.4937967 93.389951,39.4937967 Z M140.877712,39.4937967 C149.37068,39.4937967 156.254724,32.5481007 156.254724,23.9794686 C156.254724,15.4084844 149.37068,8.46278843 140.877712,8.46278843 C132.384745,8.46278843 125.500701,15.4084844 125.500701,23.9794686 C125.498366,32.5481007 132.384745,39.4937967 140.877712,39.4937967 Z M44.4146943,39.4937967 C52.9076618,39.4937967 59.7917059,32.5481007 59.7917059,23.9794686 C59.7917059,15.4084844 52.9076618,8.46278843 44.4146943,8.46278843 C35.9217267,8.46278843 29.0376826,15.4084844 29.0376826,23.9794686 C29.0376826,32.5481007 35.9217267,39.4937967 44.4146943,39.4937967 Z M0.000296836478,61.8879626 L424.998949,61.8879626 L424.998949,283.858577 C424.994278,298.968347 412.839784,311.213282 397.855079,311.208578 C325.887084,311.183489 235.854457,310.920064 127.757198,310.418301 L127.757198,392 L35.0626709,311.152128 C4.85507439,311.163888 -0.0440711546,311.185057 0.000296836478,311.217986 C0.126395338,311.307365 0.0983734484,228.196573 0.000296836478,61.8879626 Z" class="quote" fill="#CEE5F2" fill-rule="nonzero"></path>
                <path d="M160.799078,113.329767 L199.227072,185.210748 L199.201732,185.260482 L199.273101,185.296847 L201.149376,188.806488 L202.330142,188.175244 L202.330142,188.735233 L288.607002,188.735233 C285.709424,230.551402 251.612937,264.259981 208.796569,265.755161 C163.038761,267.353059 124.649375,231.554378 123.051478,185.796569 C121.99791,155.626346 137.202019,128.65945 160.799078,113.329767 L160.799078,113.329767 Z M166.83081,109.764904 C177.64761,103.975891 189.921411,100.508544 203.010069,100.051478 C215.841091,99.6034084 228.092729,102.095858 239.116235,106.923859 L203.100506,177.608707 L166.83081,109.764904 L166.83081,109.764904 Z M245.40432,110.001623 C270.357335,123.552595 287.692482,149.578926 288.755161,180.010069 C288.775284,180.586312 288.789476,181.161386 288.797792,181.735233 L208.85422,181.735233 L245.40432,110.001623 L245.40432,110.001623 Z" class="icon" fill="#FFFFFF"></path>
            </g>
        </g>
        <g class="section seo" transform="translate(38.000000, 1058.000000)">
            <path d="M424.998652,47.9565852 C425.003322,41.2202244 424.993981,34.3733158 424.998652,27.3782261 C424.998652,12.2496393 412.851163,0 397.864122,0 L179.769759,0 L194.82919,47.9565852 L424.998652,47.9565852 Z M93.389951,39.4937967 C101.882919,39.4937967 108.766963,32.5481007 108.766963,23.9794686 C108.766963,15.4084844 101.882919,8.46278843 93.389951,8.46278843 C84.8969834,8.46278843 78.0129393,15.4084844 78.0129393,23.9794686 C78.0129393,32.5481007 84.8969834,39.4937967 93.389951,39.4937967 Z M140.877712,39.4937967 C149.37068,39.4937967 156.254724,32.5481007 156.254724,23.9794686 C156.254724,15.4084844 149.37068,8.46278843 140.877712,8.46278843 C132.384745,8.46278843 125.500701,15.4084844 125.500701,23.9794686 C125.498366,32.5481007 132.384745,39.4937967 140.877712,39.4937967 Z M44.4146943,39.4937967 C52.9076618,39.4937967 59.7917059,32.5481007 59.7917059,23.9794686 C59.7917059,15.4084844 52.9076618,8.46278843 44.4146943,8.46278843 C35.9217267,8.46278843 29.0376826,15.4084844 29.0376826,23.9794686 C29.0376826,32.5481007 35.9217267,39.4937967 44.4146943,39.4937967 Z M424.998652,61.8879626 L0,61.8879626 L0,283.858577 C0.00467031485,298.968347 12.1591647,311.213282 27.1438699,311.208578 C99.1118651,311.183489 189.144492,310.920064 297.24175,310.418301 L297.24175,392 L389.936278,311.152128 C420.143874,311.163888 425.04302,311.185057 424.998652,311.217986 C424.872553,311.307365 424.900575,228.196573 424.998652,61.8879626 Z" class="quote" fill="#CEE5F2" fill-rule="nonzero"></path>
            <path d="M240.577264,188.903605 L298.565462,246.891804 L278.651929,266.805338 L219.599302,207.752712 C210.437508,212.801046 199.813033,215.688457 188.484415,215.688457 C153.975225,215.688457 126,188.895283 126,155.844228 C126,122.793174 153.975225,96 188.484415,96 C222.993604,96 250.96883,122.793174 250.96883,155.844228 C250.96883,168.065803 247.143602,179.431698 240.577264,188.903605 L240.577264,188.903605 Z M188.484415,197.274848 C212.375392,197.274848 231.742856,178.725728 231.742856,155.844228 C231.742856,132.962729 212.375392,114.413609 188.484415,114.413609 C164.593438,114.413609 145.225974,132.962729 145.225974,155.844228 C145.225974,178.725728 164.593438,197.274848 188.484415,197.274848 Z M179.953263,164.046737 L179.953263,164.046737 L161.436068,164.046737 C157.614747,164.046737 154.516955,160.948945 154.516955,157.127624 L154.516955,154.872376 C154.516955,151.051055 157.614747,147.953263 161.436068,147.953263 L179.953263,147.953263 L179.953263,129.436068 C179.953263,125.614747 183.051055,122.516955 186.872376,122.516955 L189.127624,122.516955 C192.948945,122.516955 196.046737,125.614747 196.046737,129.436068 L196.046737,147.953263 L214.563932,147.953263 C218.385253,147.953263 221.483045,151.051055 221.483045,154.872376 L221.483045,157.127624 C221.483045,160.948945 218.385253,164.046737 214.563932,164.046737 L196.046737,164.046737 L196.046737,182.563932 C196.046737,186.385253 192.948945,189.483045 189.127624,189.483045 L186.872376,189.483045 C183.051055,189.483045 179.953263,186.385253 179.953263,182.563932 L179.953263,164.046737 Z" class="icon" fill="#FFFFFF"></path>
            <g class="invert" transform="translate(500.000000, 0.000000)">
                <path d="M424.998652,47.9565852 C425.003322,41.2202244 424.993981,34.3733158 424.998652,27.3782261 C424.998652,12.2496393 412.851163,0 397.864122,0 L179.769759,0 L194.82919,47.9565852 L424.998652,47.9565852 Z M93.389951,39.4937967 C101.882919,39.4937967 108.766963,32.5481007 108.766963,23.9794686 C108.766963,15.4084844 101.882919,8.46278843 93.389951,8.46278843 C84.8969834,8.46278843 78.0129393,15.4084844 78.0129393,23.9794686 C78.0129393,32.5481007 84.8969834,39.4937967 93.389951,39.4937967 Z M140.877712,39.4937967 C149.37068,39.4937967 156.254724,32.5481007 156.254724,23.9794686 C156.254724,15.4084844 149.37068,8.46278843 140.877712,8.46278843 C132.384745,8.46278843 125.500701,15.4084844 125.500701,23.9794686 C125.498366,32.5481007 132.384745,39.4937967 140.877712,39.4937967 Z M44.4146943,39.4937967 C52.9076618,39.4937967 59.7917059,32.5481007 59.7917059,23.9794686 C59.7917059,15.4084844 52.9076618,8.46278843 44.4146943,8.46278843 C35.9217267,8.46278843 29.0376826,15.4084844 29.0376826,23.9794686 C29.0376826,32.5481007 35.9217267,39.4937967 44.4146943,39.4937967 Z M0.000296836478,61.8879626 L424.998949,61.8879626 L424.998949,283.858577 C424.994278,298.968347 412.839784,311.213282 397.855079,311.208578 C325.887084,311.183489 235.854457,310.920064 127.757198,310.418301 L127.757198,392 L35.0626709,311.152128 C4.85507439,311.163888 -0.0440711546,311.185057 0.000296836478,311.217986 C0.126395338,311.307365 0.0983734484,228.196573 0.000296836478,61.8879626 Z" class="Combined-Shape" fill="#CEE5F2" fill-rule="nonzero"></path>
                <path d="M240.577264,188.903605 L298.565462,246.891804 L278.651929,266.805338 L219.599302,207.752712 C210.437508,212.801046 199.813033,215.688457 188.484415,215.688457 C153.975225,215.688457 126,188.895283 126,155.844228 C126,122.793174 153.975225,96 188.484415,96 C222.993604,96 250.96883,122.793174 250.96883,155.844228 C250.96883,168.065803 247.143602,179.431698 240.577264,188.903605 L240.577264,188.903605 Z M188.484415,197.274848 C212.375392,197.274848 231.742856,178.725728 231.742856,155.844228 C231.742856,132.962729 212.375392,114.413609 188.484415,114.413609 C164.593438,114.413609 145.225974,132.962729 145.225974,155.844228 C145.225974,178.725728 164.593438,197.274848 188.484415,197.274848 Z M179.953263,164.046737 L179.953263,164.046737 L161.436068,164.046737 C157.614747,164.046737 154.516955,160.948945 154.516955,157.127624 L154.516955,154.872376 C154.516955,151.051055 157.614747,147.953263 161.436068,147.953263 L179.953263,147.953263 L179.953263,129.436068 C179.953263,125.614747 183.051055,122.516955 186.872376,122.516955 L189.127624,122.516955 C192.948945,122.516955 196.046737,125.614747 196.046737,129.436068 L196.046737,147.953263 L214.563932,147.953263 C218.385253,147.953263 221.483045,151.051055 221.483045,154.872376 L221.483045,157.127624 C221.483045,160.948945 218.385253,164.046737 214.563932,164.046737 L196.046737,164.046737 L196.046737,182.563932 C196.046737,186.385253 192.948945,189.483045 189.127624,189.483045 L186.872376,189.483045 C183.051055,189.483045 179.953263,186.385253 179.953263,182.563932 L179.953263,164.046737 Z" class="icon" fill="#FFFFFF"></path>
            </g>
        </g>
        <g class="section usability" transform="translate(38.000000, 558.000000)">
            <path d="M424.998652,47.9565852 C425.003322,41.2202244 424.993981,34.3733158 424.998652,27.3782261 C424.998652,12.2496393 412.851163,0 397.864122,0 L179.769759,0 L194.82919,47.9565852 L424.998652,47.9565852 Z M93.389951,39.4937967 C101.882919,39.4937967 108.766963,32.5481007 108.766963,23.9794686 C108.766963,15.4084844 101.882919,8.46278843 93.389951,8.46278843 C84.8969834,8.46278843 78.0129393,15.4084844 78.0129393,23.9794686 C78.0129393,32.5481007 84.8969834,39.4937967 93.389951,39.4937967 Z M140.877712,39.4937967 C149.37068,39.4937967 156.254724,32.5481007 156.254724,23.9794686 C156.254724,15.4084844 149.37068,8.46278843 140.877712,8.46278843 C132.384745,8.46278843 125.500701,15.4084844 125.500701,23.9794686 C125.498366,32.5481007 132.384745,39.4937967 140.877712,39.4937967 Z M44.4146943,39.4937967 C52.9076618,39.4937967 59.7917059,32.5481007 59.7917059,23.9794686 C59.7917059,15.4084844 52.9076618,8.46278843 44.4146943,8.46278843 C35.9217267,8.46278843 29.0376826,15.4084844 29.0376826,23.9794686 C29.0376826,32.5481007 35.9217267,39.4937967 44.4146943,39.4937967 Z M424.998652,61.8879626 L0,61.8879626 L0,283.858577 C0.00467031485,298.968347 12.1591647,311.213282 27.1438699,311.208578 C99.1118651,311.183489 189.144492,310.920064 297.24175,310.418301 L297.24175,392 L389.936278,311.152128 C420.143874,311.163888 425.04302,311.185057 424.998652,311.217986 C424.872553,311.307365 424.900575,228.196573 424.998652,61.8879626 Z" class="quote" fill="#CEE5F2" fill-rule="nonzero"></path>
            <path d="M335.105447,185.316816 L322.927089,173.138457 C319.773605,169.984974 314.660798,169.984974 311.507314,173.138457 L309.646206,174.999565 C306.492723,178.153049 306.492723,183.265856 309.646206,186.41934 L329.243008,206.016142 C330.668848,207.441982 332.495247,208.223132 334.359982,208.359591 C336.706794,208.613222 339.143508,207.84052 340.942541,206.041487 L380.885197,166.098831 C384.038681,162.945347 384.038681,157.83254 380.885197,154.679056 L379.024089,152.817948 C375.870606,149.664465 370.757799,149.664465 367.604315,152.817948 L335.105447,185.316816 Z M68.7659154,176.1195 L53.4848957,191.40052 C50.3314121,194.554004 50.3314121,199.666811 53.4848957,202.820295 L55.3460036,204.681403 C58.4994872,207.834886 63.6122945,207.834886 66.7657781,204.681403 L82.0467978,189.400383 L97.3278175,204.681403 C100.481301,207.834886 105.594108,207.834886 108.747592,204.681403 L110.6087,202.820295 C113.762184,199.666811 113.762184,194.554004 110.6087,191.40052 L95.3276802,176.1195 L110.6087,160.838481 C113.762184,157.684997 113.762184,152.57219 110.6087,149.418706 L108.747592,147.557598 C105.594108,144.404115 100.481301,144.404115 97.3278175,147.557598 L82.0467978,162.838618 L66.7657781,147.557598 C63.6122945,144.404115 58.4994872,144.404115 55.3460036,147.557598 L53.4848957,149.418706 C50.3314121,152.57219 50.3314121,157.684997 53.4848957,160.838481 L68.7659154,176.1195 Z M81.8976426,227.917452 C53.2353661,227.917452 30,204.664335 30,175.980163 C30,147.29599 53.2353661,124.042873 81.8976426,124.042873 C110.559919,124.042873 133.795285,147.29599 133.795285,175.980163 C133.795285,204.664335 110.559919,227.917452 81.8976426,227.917452 Z M212.047643,226.874579 C183.385366,226.874579 160.15,203.621462 160.15,174.937289 C160.15,146.253117 183.385366,123 212.047643,123 C240.709919,123 263.945285,146.253117 263.945285,174.937289 C263.945285,203.621462 240.709919,226.874579 212.047643,226.874579 Z M210.330635,136.719284 C205.870935,136.719284 202.255635,140.334585 202.255635,144.794284 L202.255635,177.305826 C202.255635,181.765526 205.870935,185.380826 210.330635,185.380826 L212.78545,185.380826 C217.245149,185.380826 220.86045,181.765526 220.86045,177.305826 L220.86045,144.794284 C220.86045,140.334585 217.245149,136.719284 212.78545,136.719284 L210.330635,136.719284 Z M210.330635,194.536267 C205.870935,194.536267 202.255635,198.151567 202.255635,202.611267 L202.255635,204.914737 C202.255635,209.374436 205.870935,212.989737 210.330635,212.989737 L212.78545,212.989737 C217.245149,212.989737 220.86045,209.374436 220.86045,204.914737 L220.86045,202.611267 C220.86045,198.151567 217.245149,194.536267 212.78545,194.536267 L210.330635,194.536267 Z M341.247643,226.874579 C312.585366,226.874579 289.35,203.621462 289.35,174.937289 C289.35,146.253117 312.585366,123 341.247643,123 C369.909919,123 393.145285,146.253117 393.145285,174.937289 C393.145285,203.621462 369.909919,226.874579 341.247643,226.874579 Z" class="icon" fill="#FFFFFF"></path>
            <g class="invert" transform="translate(500.000000, 0.000000)">
                <path d="M424.998652,47.9565852 C425.003322,41.2202244 424.993981,34.3733158 424.998652,27.3782261 C424.998652,12.2496393 412.851163,0 397.864122,0 L179.769759,0 L194.82919,47.9565852 L424.998652,47.9565852 Z M93.389951,39.4937967 C101.882919,39.4937967 108.766963,32.5481007 108.766963,23.9794686 C108.766963,15.4084844 101.882919,8.46278843 93.389951,8.46278843 C84.8969834,8.46278843 78.0129393,15.4084844 78.0129393,23.9794686 C78.0129393,32.5481007 84.8969834,39.4937967 93.389951,39.4937967 Z M140.877712,39.4937967 C149.37068,39.4937967 156.254724,32.5481007 156.254724,23.9794686 C156.254724,15.4084844 149.37068,8.46278843 140.877712,8.46278843 C132.384745,8.46278843 125.500701,15.4084844 125.500701,23.9794686 C125.498366,32.5481007 132.384745,39.4937967 140.877712,39.4937967 Z M44.4146943,39.4937967 C52.9076618,39.4937967 59.7917059,32.5481007 59.7917059,23.9794686 C59.7917059,15.4084844 52.9076618,8.46278843 44.4146943,8.46278843 C35.9217267,8.46278843 29.0376826,15.4084844 29.0376826,23.9794686 C29.0376826,32.5481007 35.9217267,39.4937967 44.4146943,39.4937967 Z M0.000296836478,61.8879626 L424.998949,61.8879626 L424.998949,283.858577 C424.994278,298.968347 412.839784,311.213282 397.855079,311.208578 C325.887084,311.183489 235.854457,310.920064 127.757198,310.418301 L127.757198,392 L35.0626709,311.152128 C4.85507439,311.163888 -0.0440711546,311.185057 0.000296836478,311.217986 C0.126395338,311.307365 0.0983734484,228.196573 0.000296836478,61.8879626 Z" class="quote" fill="#CEE5F2" fill-rule="nonzero"></path>
                <path d="M335.105447,185.316816 L322.927089,173.138457 C319.773605,169.984974 314.660798,169.984974 311.507314,173.138457 L309.646206,174.999565 C306.492723,178.153049 306.492723,183.265856 309.646206,186.41934 L329.243008,206.016142 C330.668848,207.441982 332.495247,208.223132 334.359982,208.359591 C336.706794,208.613222 339.143508,207.84052 340.942541,206.041487 L380.885197,166.098831 C384.038681,162.945347 384.038681,157.83254 380.885197,154.679056 L379.024089,152.817948 C375.870606,149.664465 370.757799,149.664465 367.604315,152.817948 L335.105447,185.316816 Z M68.7659154,176.1195 L53.4848957,191.40052 C50.3314121,194.554004 50.3314121,199.666811 53.4848957,202.820295 L55.3460036,204.681403 C58.4994872,207.834886 63.6122945,207.834886 66.7657781,204.681403 L82.0467978,189.400383 L97.3278175,204.681403 C100.481301,207.834886 105.594108,207.834886 108.747592,204.681403 L110.6087,202.820295 C113.762184,199.666811 113.762184,194.554004 110.6087,191.40052 L95.3276802,176.1195 L110.6087,160.838481 C113.762184,157.684997 113.762184,152.57219 110.6087,149.418706 L108.747592,147.557598 C105.594108,144.404115 100.481301,144.404115 97.3278175,147.557598 L82.0467978,162.838618 L66.7657781,147.557598 C63.6122945,144.404115 58.4994872,144.404115 55.3460036,147.557598 L53.4848957,149.418706 C50.3314121,152.57219 50.3314121,157.684997 53.4848957,160.838481 L68.7659154,176.1195 Z M81.8976426,227.917452 C53.2353661,227.917452 30,204.664335 30,175.980163 C30,147.29599 53.2353661,124.042873 81.8976426,124.042873 C110.559919,124.042873 133.795285,147.29599 133.795285,175.980163 C133.795285,204.664335 110.559919,227.917452 81.8976426,227.917452 Z M212.047643,226.874579 C183.385366,226.874579 160.15,203.621462 160.15,174.937289 C160.15,146.253117 183.385366,123 212.047643,123 C240.709919,123 263.945285,146.253117 263.945285,174.937289 C263.945285,203.621462 240.709919,226.874579 212.047643,226.874579 Z M210.330635,136.719284 C205.870935,136.719284 202.255635,140.334585 202.255635,144.794284 L202.255635,177.305826 C202.255635,181.765526 205.870935,185.380826 210.330635,185.380826 L212.78545,185.380826 C217.245149,185.380826 220.86045,181.765526 220.86045,177.305826 L220.86045,144.794284 C220.86045,140.334585 217.245149,136.719284 212.78545,136.719284 L210.330635,136.719284 Z M210.330635,194.536267 C205.870935,194.536267 202.255635,198.151567 202.255635,202.611267 L202.255635,204.914737 C202.255635,209.374436 205.870935,212.989737 210.330635,212.989737 L212.78545,212.989737 C217.245149,212.989737 220.86045,209.374436 220.86045,204.914737 L220.86045,202.611267 C220.86045,198.151567 217.245149,194.536267 212.78545,194.536267 L210.330635,194.536267 Z M341.247643,226.874579 C312.585366,226.874579 289.35,203.621462 289.35,174.937289 C289.35,146.253117 312.585366,123 341.247643,123 C369.909919,123 393.145285,146.253117 393.145285,174.937289 C393.145285,203.621462 369.909919,226.874579 341.247643,226.874579 Z" class="icon" fill="#FFFFFF"></path>
            </g>
        </g>
        <g class="section web-design" transform="translate(38.000000, 58.000000)">
            <path d="M424.998652,47.9565852 C425.003322,41.2202244 424.993981,34.3733158 424.998652,27.3782261 C424.998652,12.2496393 412.851163,0 397.864122,0 L179.769759,0 L194.82919,47.9565852 L424.998652,47.9565852 Z M93.389951,39.4937967 C101.882919,39.4937967 108.766963,32.5481007 108.766963,23.9794686 C108.766963,15.4084844 101.882919,8.46278843 93.389951,8.46278843 C84.8969834,8.46278843 78.0129393,15.4084844 78.0129393,23.9794686 C78.0129393,32.5481007 84.8969834,39.4937967 93.389951,39.4937967 Z M140.877712,39.4937967 C149.37068,39.4937967 156.254724,32.5481007 156.254724,23.9794686 C156.254724,15.4084844 149.37068,8.46278843 140.877712,8.46278843 C132.384745,8.46278843 125.500701,15.4084844 125.500701,23.9794686 C125.498366,32.5481007 132.384745,39.4937967 140.877712,39.4937967 Z M44.4146943,39.4937967 C52.9076618,39.4937967 59.7917059,32.5481007 59.7917059,23.9794686 C59.7917059,15.4084844 52.9076618,8.46278843 44.4146943,8.46278843 C35.9217267,8.46278843 29.0376826,15.4084844 29.0376826,23.9794686 C29.0376826,32.5481007 35.9217267,39.4937967 44.4146943,39.4937967 Z M424.998652,61.8879626 L0,61.8879626 L0,283.858577 C0.00467031485,298.968347 12.1591647,311.213282 27.1438699,311.208578 C99.1118651,311.183489 189.144492,310.920064 297.24175,310.418301 L297.24175,392 L389.936278,311.152128 C420.143874,311.163888 425.04302,311.185057 424.998652,311.217986 C424.872553,311.307365 424.900575,228.196573 424.998652,61.8879626 Z" class="quote" fill="#CEE5F2" fill-rule="nonzero"></path>
            <path d="M286.112298,127.538394 C285.577342,128.675176 282.96943,131.751174 280.361519,134.359085 L275.480044,139.106821 L260.233793,123.793701 L244.987542,108.54745 L250.069626,103.532236 C252.878146,100.723716 256.087883,98.1158048 257.157795,97.7145876 C259.698837,96.7784143 263.309791,96.7784143 265.783963,97.7145876 C268.391875,98.7176304 284.641169,114.766316 286.045428,117.708575 C287.382819,120.517094 287.382819,124.663005 286.112298,127.538394 Z M229.32243,185.456169 L186.525937,228.252663 L171.279686,212.939543 L155.966565,197.693292 L198.829928,154.896798 L241.626422,112.033435 L252.526154,122.933167 L263.425886,133.832899 L223.237304,174.021481 C201.103492,196.088423 182.981852,214.544411 182.981852,214.945628 C182.981852,215.346845 183.784286,216.483627 184.787329,217.352931 L186.592806,219.024669 L226.781388,178.902956 C248.84833,156.769145 267.237449,138.714374 267.638666,138.714374 C268.106753,138.714374 269.243534,139.583678 270.313447,140.65359 L272.118924,142.592806 L229.32243,185.456169 Z M137.157646,248.496737 C136.890168,248.229259 149.954945,204.384208 150.423031,203.849252 C150.690509,203.514905 180.113099,232.736886 180.113099,233.405581 C180.113099,233.606189 137.358255,248.697345 137.157646,248.496737 Z" class="icon" fill="#FFFFFF"></path>
            <g class="invert" transform="translate(500.000000, 0.000000)">
                <path d="M424.998652,47.9565852 L194.82919,47.9565852 L179.769759,0 L397.864122,0 C412.851163,0 424.998652,12.2496393 424.998652,27.3782261 C424.993981,34.3733158 425.003322,41.2202244 424.998652,47.9565852 Z M93.389951,39.4937967 C84.8969834,39.4937967 78.0129393,32.5481007 78.0129393,23.9794686 C78.0129393,15.4084844 84.8969834,8.46278843 93.389951,8.46278843 C101.882919,8.46278843 108.766963,15.4084844 108.766963,23.9794686 C108.766963,32.5481007 101.882919,39.4937967 93.389951,39.4937967 Z M140.877712,39.4937967 C132.384745,39.4937967 125.498366,32.5481007 125.500701,23.9794686 C125.500701,15.4084844 132.384745,8.46278843 140.877712,8.46278843 C149.37068,8.46278843 156.254724,15.4084844 156.254724,23.9794686 C156.254724,32.5481007 149.37068,39.4937967 140.877712,39.4937967 Z M44.4146943,39.4937967 C35.9217267,39.4937967 29.0376826,32.5481007 29.0376826,23.9794686 C29.0376826,15.4084844 35.9217267,8.46278843 44.4146943,8.46278843 C52.9076618,8.46278843 59.7917059,15.4084844 59.7917059,23.9794686 C59.7917059,32.5481007 52.9076618,39.4937967 44.4146943,39.4937967 Z M0.000296836478,61.8879626 L424.998949,61.8879626 L424.998949,283.858577 C424.994278,298.968347 412.839784,311.213282 397.855079,311.208578 C325.887084,311.183489 235.854457,310.920064 127.757198,310.418301 L127.757198,392 L35.0626709,311.152128 C4.85507439,311.163888 -0.0440711546,311.185057 0.000296836478,311.217986 C0.126395338,311.307365 0.0983734484,228.196573 0.000296836478,61.8879626 Z" class="quote" fill="#CEE5F2" fill-rule="nonzero"></path>
                <g class="icon" transform="translate(137.000000, 97.000000)" fill="#FFFFFF">
                    <path d="M149.112298,30.5383942 C148.577342,31.675176 145.96943,34.751174 143.361519,37.3590854 L138.480044,42.1068214 L123.233793,26.793701 L107.987542,11.5474501 L113.069626,6.53223599 C115.878146,3.72371609 119.087883,1.11580476 120.157795,0.714587629 C122.698837,-0.22158567 126.309791,-0.22158567 128.783963,0.714587629 C131.391875,1.71763045 147.641169,17.7663156 149.045428,20.7085745 C150.382819,23.5170944 150.382819,27.6630047 149.112298,30.5383942 Z M92.3224302,88.4561692 L49.5259365,131.252663 L34.2796856,115.939543 L18.9665652,100.693292 L61.8299285,57.896798 L104.626422,15.0334348 L115.526154,25.9331667 L126.425886,36.8328987 L86.2373038,77.0214811 C64.1034922,99.0884231 45.9818519,117.544411 45.9818519,117.945628 C45.9818519,118.346845 46.7842861,119.483627 47.787329,120.352931 L49.592806,122.024669 L89.7813884,81.9029562 C111.84833,59.7691446 130.237449,41.7143738 130.638666,41.7143738 C131.106753,41.7143738 132.243534,42.5836776 133.313447,43.6535899 L135.118924,45.592806 L92.3224302,88.4561692 Z M0.157646213,151.496737 C-0.109831873,151.229259 12.9549447,107.384208 13.4230314,106.849252 C13.6905095,106.514905 43.1130989,135.736886 43.1130989,136.405581 C43.1130989,136.606189 0.358254777,151.697345 0.157646213,151.496737 Z" class="Combined-Shape"></path>
                </g>
            </g>
        </g>
    </g>
</svg>