<?xml version="1.0" encoding="UTF-8" standalone="no"?>
<svg width="250px" height="100px" viewBox="0 0 250 100" version="1.1" xmlns="http://www.w3.org/2000/svg" xmlns:xlink="http://www.w3.org/1999/xlink">
    <!-- Generator: Sketch 44.1 (41455) - http://www.bohemiancoding.com/sketch -->
    <title>Slice</title>
    <desc>Created with Sketch.</desc>
    <defs></defs>
    <g id="Page-1" stroke="none" stroke-width="1" fill="none" fill-rule="evenodd">
        <g id="Logo" transform="translate(4.000000, 1.000000)">
            <path d="M14.3104343,98.8794145 C5.22401346,98.8794145 0.612194968,93.9206284 0.419941622,93.7101355 L0,93.2472036 L0.43728212,92.8002875 L3.0971637,90.0875219 L3.56912682,89.6070489 L4.03204272,90.0974364 C4.07049339,90.1370945 7.9132985,94.1189189 14.7439468,94.1189189 C19.0270498,94.1189189 22.0186626,91.8156993 22.0186626,88.5172142 C22.0186626,85.5649748 20.4142896,83.2182839 12.4271055,80.6420336 C5.63264607,78.4654148 2.0409012,74.8191589 2.0409012,70.101372 C2.0409012,64.1534218 7.28677877,60 14.7974762,60 C22.7997389,60 26.8777717,64.1968932 27.047407,64.3761172 L27.4892127,64.8398118 L27.0413755,65.2958798 L24.3814939,68.0086453 L23.9125465,68.4860677 L23.4496306,68.0010188 C23.4172115,67.9697499 20.2921522,64.7612583 14.9060427,64.7612583 C10.0959394,64.7612583 7.57704363,67.2650562 7.57704363,69.7368227 C7.57704363,72.6455908 9.89690067,74.5491789 15.584584,76.3048118 C23.6750571,78.7994579 27.6083344,82.6394284 27.6083344,88.0474185 C27.6090883,94.4247437 22.1400461,98.8794145 14.3104343,98.8794145 Z M40.9077423,98.3577581 L40.2570967,98.3577581 L35.9136789,98.3577581 L35.2622794,98.3577581 L35.2622794,97.6995864 L35.2622794,61.1805907 L35.2622794,60.522419 L35.9136789,60.522419 L40.2570967,60.522419 L40.9077423,60.522419 L40.9077423,61.1805907 L40.9077423,97.6995864 L40.9077423,98.3577581 Z M65.0110343,98.3585207 L64.3588808,98.3585207 L60.1240297,98.3585207 L59.4726301,98.3585207 L59.4726301,97.6995864 L59.4726301,65.3866358 L47.5830801,65.3866358 L46.9316805,65.3866358 L46.9316805,64.7277014 L46.9316805,61.1790654 L46.9316805,60.520131 L47.5830801,60.520131 L76.8998305,60.520131 L77.55123,60.520131 L77.55123,61.1790654 L77.55123,64.7277014 L77.55123,65.3866358 L76.8998305,65.3866358 L65.0110343,65.3866358 L65.0110343,97.6995864 L65.0110343,98.3585207 Z M111.476029,98.3562328 L110.826138,98.3562328 L83.9536434,98.3562328 L83.3029978,98.3562328 L83.3029978,97.6988237 L83.3029978,61.1805907 L83.3029978,60.522419 L83.9536434,60.522419 L110.283305,60.522419 L110.934704,60.522419 L110.934704,61.1805907 L110.934704,64.7284641 L110.934704,65.3858731 L110.283305,65.3858731 L88.8391402,65.3858731 L88.8391402,76.3292168 L107.568386,76.3292168 L108.219031,76.3292168 L108.219031,76.9866258 L108.219031,80.3262942 L108.219031,80.9844659 L107.568386,80.9844659 L88.8391402,80.9844659 L88.8391402,93.5454019 L110.826138,93.5454019 L111.476029,93.5454019 L111.476029,94.2043363 L111.476029,97.6988237 L111.476029,98.3562328 Z M152.110847,98.3585207 L150.344378,98.3585207 L144.644632,98.3585207 L144.402619,98.3585207 L144.218659,98.1976004 L124.395454,80.8784568 L124.395454,97.6995864 L124.395454,98.3585207 L123.744055,98.3585207 L119.508449,98.3585207 L118.856296,98.3585207 L118.856296,97.6995864 L118.856296,61.1790654 L118.856296,60.520131 L119.508449,60.520131 L123.744055,60.520131 L124.395454,60.520131 L124.395454,61.1790654 L124.395454,76.9614582 L143.135255,60.679526 L143.317707,60.520131 L143.558966,60.520131 L149.259466,60.520131 L151.0576,60.520131 L149.676392,61.6854686 L129.423445,78.7666638 L150.766582,97.1977591 L152.110847,98.3585207 Z M161.305835,98.3569954 L160.655189,98.3569954 L156.311771,98.3569954 L155.661126,98.3569954 L155.661126,97.6988237 L155.661126,61.179828 L155.661126,60.5208937 L156.311771,60.5208937 L160.655189,60.5208937 L161.305835,60.5208937 L161.305835,61.179828 L161.305835,97.6988237 L161.305835,98.3569954 Z M189.210465,98.8794145 C177.855455,98.8794145 168.960534,90.3872455 168.960534,79.5438097 C168.960534,68.5844502 177.927079,60 189.372561,60 C198.678377,60 203.657362,65.5132366 203.865448,65.7481345 L204.312531,66.2522497 L203.801363,66.690014 L200.815028,69.2464352 L200.343065,69.6491173 L199.919354,69.1953373 C199.880903,69.1541539 195.989846,65.0724217 189.319032,65.0724217 C180.868932,65.0724217 174.49743,71.2491685 174.49743,79.4385632 C174.49743,87.6584642 180.868932,93.857328 189.319032,93.857328 C196.349473,93.857328 200.34985,89.2798697 200.389055,89.2333478 L200.818044,88.7322831 L201.311871,89.1700474 L204.133849,91.6738453 L204.610335,92.0955938 L204.20698,92.5882693 C203.997386,92.8452842 198.959595,98.8794145 189.210465,98.8794145 Z M243.90315,98.3577581 L242.135173,98.3577581 L236.435426,98.3577581 L236.193413,98.3577581 L236.009453,98.1976004 L216.186249,80.8799821 L216.186249,97.6980611 L216.186249,98.3577581 L215.534849,98.3577581 L211.299998,98.3577581 L210.64709,98.3577581 L210.64709,97.6980611 L210.64709,61.1790654 L210.64709,60.520131 L211.299998,60.520131 L215.534849,60.520131 L216.186249,60.520131 L216.186249,61.1790654 L216.186249,76.9622209 L234.926049,60.6802887 L235.108501,60.520131 L235.349761,60.520131 L241.050261,60.520131 L242.848395,60.520131 L241.467941,61.684706 L221.214239,78.7674264 L242.55813,97.1969964 L243.90315,98.3577581 Z" id="Text" fill="#2589BD"></path>
            <path d="M151.561234,7.62985405 C151.561976,6.55810448 151.560491,5.46876684 151.561234,4.3558537 C151.561234,1.94890774 149.63017,0 147.247709,0 L112.577659,0 L114.971629,7.62985405 L151.561234,7.62985405 Z M98.8460243,6.28343123 C100.196135,6.28343123 101.290479,5.17837659 101.290479,3.81511413 C101.290479,2.45147746 100.196135,1.34642282 98.8460243,1.34642282 C97.4959133,1.34642282 96.4015698,2.45147746 96.4015698,3.81511413 C96.4015698,5.17837659 97.4959133,6.28343123 98.8460243,6.28343123 Z M106.395064,6.28343123 C107.745175,6.28343123 108.839519,5.17837659 108.839519,3.81511413 C108.839519,2.45147746 107.745175,1.34642282 106.395064,1.34642282 C105.044953,1.34642282 103.95061,2.45147746 103.95061,3.81511413 C103.950238,5.17837659 105.044953,6.28343123 106.395064,6.28343123 Z M91.0605202,6.28343123 C92.4106312,6.28343123 93.5049747,5.17837659 93.5049747,3.81511413 C93.5049747,2.45147746 92.4106312,1.34642282 91.0605202,1.34642282 C89.7104091,1.34642282 88.6160656,2.45147746 88.6160656,3.81511413 C88.6160656,5.17837659 89.7104091,6.28343123 91.0605202,6.28343123 Z M151.561234,9.84632497 L84,9.84632497 L84,45.1616708 C84.0007424,47.5656231 85.9329195,49.5137824 88.3150098,49.513034 C99.7556262,49.5090423 114.067943,49.4671316 131.25196,49.3873016 L131.25196,62.3668841 L145.987434,49.5040528 C150.789479,49.5059239 151.568287,49.5092918 151.561234,49.5145308 C151.541188,49.528751 151.545643,36.3058909 151.561234,9.84632497 Z" id="Shape" fill="#CEE5F2" fill-rule="nonzero"></path>
        </g>
    </g>
</svg>