<?xml version="1.0" encoding="UTF-8" standalone="no"?>
<svg viewBox="0 0 500 500" version="1.1" xmlns="http://www.w3.org/2000/svg" xmlns:xlink="http://www.w3.org/1999/xlink">
    <!-- Generator: Sketch 45.1 (43504) - http://www.bohemiancoding.com/sketch -->
    <title>svgTest</title>
    <desc>Created with Sketch.</desc>
    <defs></defs>
    <g id="Page-1" class="quote-right" stroke="none" stroke-width="1" fill="none" fill-rule="evenodd">
        <path d="M462.960969,101.956585 L232.791507,101.956585 L217.732077,54 L435.82644,54 C450.81348,54 462.960969,66.2496393 462.960969,81.3782261 C462.956299,88.3733158 462.96564,95.2202244 462.960969,101.956585 Z M131.352268,93.4937967 C122.859301,93.4937967 115.975257,86.5481007 115.975257,77.9794686 C115.975257,69.4084844 122.859301,62.4627884 131.352268,62.4627884 C139.845236,62.4627884 146.72928,69.4084844 146.72928,77.9794686 C146.72928,86.5481007 139.845236,93.4937967 131.352268,93.4937967 Z M178.84003,93.4937967 C170.347062,93.4937967 163.460683,86.5481007 163.463018,77.9794686 C163.463018,69.4084844 170.347062,62.4627884 178.84003,62.4627884 C187.332997,62.4627884 194.217041,69.4084844 194.217041,77.9794686 C194.217041,86.5481007 187.332997,93.4937967 178.84003,93.4937967 Z M82.3770117,93.4937967 C73.8840441,93.4937967 67,86.5481007 67,77.9794686 C67,69.4084844 73.8840441,62.4627884 82.3770117,62.4627884 C90.8699792,62.4627884 97.7540233,69.4084844 97.7540233,77.9794686 C97.7540233,86.5481007 90.8699792,93.4937967 82.3770117,93.4937967 Z" class="controls" fill="#CEE5F2"></path>
        <path d="M462.998652,116 L38,116 L38,337.970614 C38.0046703,353.080384 50.1591647,365.32532 65.1438699,365.320615 C137.111865,365.295526 227.144492,365.032101 335.24175,364.530339 L335.24175,446.112037 L427.936278,365.264165 C458.143874,365.275926 463.04302,365.297095 462.998652,365.330024 C462.872553,365.419403 462.900575,282.308611 462.998652,116 Z" class="quoteBody" fill="#CEE5F2"></path>
        <path d="M324.958703,181.525937 C324.423747,182.662718 321.815836,185.738716 319.207924,188.346628 L314.326449,193.094364 L299.080198,177.781243 L283.833947,162.534992 L288.916031,157.519778 C291.724551,154.711258 294.934288,152.103347 296.0042,151.70213 C298.545242,150.765957 302.156196,150.765957 304.630369,151.70213 C307.23828,152.705173 323.487574,168.753858 324.891834,171.696117 C326.229224,174.504637 326.229224,178.650547 324.958703,181.525937 Z M268.168835,239.443712 L225.372342,282.240205 L210.126091,266.927085 L194.81297,251.680834 L237.676334,208.88434 L280.472827,166.020977 L291.372559,176.920709 L302.272291,187.820441 L262.083709,228.009023 C239.949897,250.075965 221.828257,268.531953 221.828257,268.933171 C221.828257,269.334388 222.630691,270.47117 223.633734,271.340473 L225.439211,273.012211 L265.627793,232.890498 C287.694736,210.756687 306.083854,192.701916 306.485071,192.701916 C306.953158,192.701916 308.08994,193.57122 309.159852,194.641132 L310.965329,196.580348 L268.168835,239.443712 Z M176.004051,302.484279 C175.736573,302.216801 188.80135,258.371751 189.269436,257.836795 C189.536915,257.502447 218.959504,286.724428 218.959504,287.393123 C218.959504,287.593732 176.20466,302.684888 176.004051,302.484279 Z" class="icon" fill="#FFFFFF"></path>
        <g id="invert" class="quote-invert" transform="translate(538.000000, 54.000000)">
            <path d="M424.960969,47.9565852 L194.791507,47.9565852 L179.732077,0 L397.82644,0 C412.81348,0 424.960969,12.2496393 424.960969,27.3782261 C424.956299,34.3733158 424.96564,41.2202244 424.960969,47.9565852 Z M93.3522684,39.4937967 C84.8593008,39.4937967 77.9752567,32.5481007 77.9752567,23.9794686 C77.9752567,15.4084844 84.8593008,8.46278843 93.3522684,8.46278843 C101.845236,8.46278843 108.72928,15.4084844 108.72928,23.9794686 C108.72928,32.5481007 101.845236,39.4937967 93.3522684,39.4937967 Z M140.84003,39.4937967 C132.347062,39.4937967 125.460683,32.5481007 125.463018,23.9794686 C125.463018,15.4084844 132.347062,8.46278843 140.84003,8.46278843 C149.332997,8.46278843 156.217041,15.4084844 156.217041,23.9794686 C156.217041,32.5481007 149.332997,39.4937967 140.84003,39.4937967 Z M44.3770117,39.4937967 C35.8840441,39.4937967 29,32.5481007 29,23.9794686 C29,15.4084844 35.8840441,8.46278843 44.3770117,8.46278843 C52.8699792,8.46278843 59.7540233,15.4084844 59.7540233,23.9794686 C59.7540233,32.5481007 52.8699792,39.4937967 44.3770117,39.4937967 Z" class="controls" fill="#CEE5F2"></path>
            <path d="M424.998652,62 L0,62 L0,283.970614 C0.00467031485,299.080384 12.1591647,311.32532 27.1438699,311.320615 C99.1118651,311.295526 189.144492,311.032101 297.24175,310.530339 L297.24175,392.112037 L389.936278,311.264165 C420.143874,311.275926 425.04302,311.297095 424.998652,311.330024 C424.872553,311.419403 424.900575,228.308611 424.998652,62 Z" class="quoteBody" fill="#CEE5F2" transform="translate(212.499474, 227.056019) scale(-1, 1) translate(-212.499474, -227.056019) "></path>
            <path d="M286.958703,127.525937 C286.423747,128.662718 283.815836,131.738716 281.207924,134.346628 L276.326449,139.094364 L261.080198,123.781243 L245.833947,108.534992 L250.916031,103.519778 C253.724551,100.711258 256.934288,98.1033471 258.0042,97.70213 C260.545242,96.7659567 264.156196,96.7659567 266.630369,97.70213 C269.23828,98.7051728 285.487574,114.753858 286.891834,117.696117 C288.229224,120.504637 288.229224,124.650547 286.958703,127.525937 Z M230.168835,185.443712 L187.372342,228.240205 L172.126091,212.927085 L156.81297,197.680834 L199.676334,154.88434 L242.472827,112.020977 L253.372559,122.920709 L264.272291,133.820441 L224.083709,174.009023 C201.949897,196.075965 183.828257,214.531953 183.828257,214.933171 C183.828257,215.334388 184.630691,216.47117 185.633734,217.340473 L187.439211,219.012211 L227.627793,178.890498 C249.694736,156.756687 268.083854,138.701916 268.485071,138.701916 C268.953158,138.701916 270.08994,139.57122 271.159852,140.641132 L272.965329,142.580348 L230.168835,185.443712 Z M138.004051,248.484279 C137.736573,248.216801 150.80135,204.371751 151.269436,203.836795 C151.536915,203.502447 180.959504,232.724428 180.959504,233.393123 C180.959504,233.593732 138.20466,248.684888 138.004051,248.484279 Z" class="icon" fill="#FFFFFF"></path>
        </g>
    </g>
</svg>